<svg width="256" height="256" viewBox="0 0 256 256" fill="none" xmlns="http://www.w3.org/2000/svg">
<rect width="256" height="256" fill="white"/>
<path d="M56.4155 184L51.7422 177.8H50.6911V184H47.6158V169.455H50.6911V175.264H51.3089L56.1385 169.455H59.9666L54.2919 176.202L60.2294 184H56.4155ZM64.8299 184.206C64.1339 184.206 63.5136 184.085 62.9691 183.844C62.4246 183.598 61.9937 183.235 61.6765 182.757C61.364 182.274 61.2077 181.673 61.2077 180.953C61.2077 180.347 61.319 179.838 61.5415 179.426C61.7641 179.014 62.0671 178.683 62.4506 178.432C62.8342 178.181 63.2698 177.991 63.7575 177.864C64.2499 177.736 64.766 177.646 65.3058 177.594C65.9402 177.527 66.4516 177.466 66.8398 177.409C67.2281 177.348 67.5098 177.258 67.685 177.139C67.8602 177.021 67.9478 176.846 67.9478 176.614V176.571C67.9478 176.121 67.8058 175.773 67.5217 175.527C67.2423 175.281 66.8446 175.158 66.3285 175.158C65.784 175.158 65.3507 175.278 65.0288 175.52C64.7068 175.757 64.4937 176.055 64.3896 176.415L61.5913 176.188C61.7333 175.525 62.0127 174.952 62.4293 174.469C62.846 173.981 63.3834 173.607 64.0415 173.347C64.7044 173.081 65.4715 172.949 66.3427 172.949C66.9487 172.949 67.5288 173.02 68.0827 173.162C68.6415 173.304 69.1362 173.524 69.5671 173.822C70.0027 174.121 70.346 174.504 70.5969 174.973C70.8479 175.437 70.9734 175.993 70.9734 176.642V184H68.104V182.487H68.0188C67.8436 182.828 67.6093 183.129 67.3157 183.389C67.0221 183.645 66.6694 183.846 66.2575 183.993C65.8455 184.135 65.3697 184.206 64.8299 184.206ZM65.6964 182.118C66.1415 182.118 66.5344 182.03 66.8754 181.855C67.2163 181.675 67.4838 181.434 67.6779 181.131C67.872 180.828 67.9691 180.484 67.9691 180.101V178.943C67.8744 179.005 67.7442 179.062 67.5785 179.114C67.4175 179.161 67.2352 179.206 67.0316 179.249C66.828 179.286 66.6244 179.322 66.4208 179.355C66.2172 179.384 66.0326 179.41 65.8668 179.433C65.5117 179.485 65.2016 179.568 64.9364 179.682C64.6713 179.795 64.4653 179.949 64.3185 180.143C64.1718 180.333 64.0984 180.57 64.0984 180.854C64.0984 181.266 64.2475 181.58 64.5458 181.798C64.8488 182.011 65.2324 182.118 65.6964 182.118ZM73.3207 188.091V173.091H76.3036V174.923H76.4386C76.5711 174.63 76.7629 174.331 77.0138 174.028C77.2695 173.721 77.601 173.465 78.0082 173.261C78.4201 173.053 78.9315 172.949 79.5423 172.949C80.3377 172.949 81.0716 173.157 81.744 173.574C82.4163 173.986 82.9537 174.608 83.3562 175.442C83.7586 176.27 83.9599 177.31 83.9599 178.56C83.9599 179.777 83.7634 180.804 83.3704 181.642C82.9821 182.475 82.4518 183.107 81.7795 183.538C81.1119 183.964 80.3638 184.178 79.5352 184.178C78.948 184.178 78.4485 184.08 78.0366 183.886C77.6294 183.692 77.2956 183.448 77.0352 183.155C76.7747 182.857 76.5759 182.556 76.4386 182.253H76.3462V188.091H73.3207ZM76.2823 178.545C76.2823 179.194 76.3723 179.76 76.5522 180.243C76.7321 180.726 76.9925 181.102 77.3335 181.372C77.6744 181.637 78.0887 181.77 78.5763 181.77C79.0688 181.77 79.4854 181.635 79.8263 181.365C80.1673 181.09 80.4253 180.712 80.6005 180.229C80.7804 179.741 80.8704 179.18 80.8704 178.545C80.8704 177.916 80.7828 177.362 80.6076 176.884C80.4324 176.405 80.1744 176.031 79.8335 175.761C79.4925 175.491 79.0735 175.357 78.5763 175.357C78.0839 175.357 77.6673 175.487 77.3263 175.747C76.9902 176.008 76.7321 176.377 76.5522 176.855C76.3723 177.333 76.2823 177.897 76.2823 178.545ZM84.9205 175.47V173.091H94.8068V175.47H91.2912V184H88.4077V175.47H84.9205ZM99.3612 184.206C98.6651 184.206 98.0449 184.085 97.5004 183.844C96.9558 183.598 96.525 183.235 96.2077 182.757C95.8952 182.274 95.739 181.673 95.739 180.953C95.739 180.347 95.8503 179.838 96.0728 179.426C96.2953 179.014 96.5984 178.683 96.9819 178.432C97.3654 178.181 97.801 177.991 98.2887 177.864C98.7811 177.736 99.2972 177.646 99.837 177.594C100.471 177.527 100.983 177.466 101.371 177.409C101.759 177.348 102.041 177.258 102.216 177.139C102.391 177.021 102.479 176.846 102.479 176.614V176.571C102.479 176.121 102.337 175.773 102.053 175.527C101.774 175.281 101.376 175.158 100.86 175.158C100.315 175.158 99.882 175.278 99.56 175.52C99.238 175.757 99.025 176.055 98.9208 176.415L96.1225 176.188C96.2646 175.525 96.5439 174.952 96.9606 174.469C97.3772 173.981 97.9147 173.607 98.5728 173.347C99.2357 173.081 100.003 172.949 100.874 172.949C101.48 172.949 102.06 173.02 102.614 173.162C103.173 173.304 103.667 173.524 104.098 173.822C104.534 174.121 104.877 174.504 105.128 174.973C105.379 175.437 105.505 175.993 105.505 176.642V184H102.635V182.487H102.55C102.375 182.828 102.141 183.129 101.847 183.389C101.553 183.645 101.201 183.846 100.789 183.993C100.377 184.135 99.9009 184.206 99.3612 184.206ZM100.228 182.118C100.673 182.118 101.066 182.03 101.407 181.855C101.748 181.675 102.015 181.434 102.209 181.131C102.403 180.828 102.5 180.484 102.5 180.101V178.943C102.406 179.005 102.275 179.062 102.11 179.114C101.949 179.161 101.766 179.206 101.563 179.249C101.359 179.286 101.156 179.322 100.952 179.355C100.748 179.384 100.564 179.41 100.398 179.433C100.043 179.485 99.7328 179.568 99.4677 179.682C99.2025 179.795 98.9966 179.949 98.8498 180.143C98.703 180.333 98.6296 180.57 98.6296 180.854C98.6296 181.266 98.7788 181.58 99.0771 181.798C99.3801 182.011 99.7636 182.118 100.228 182.118ZM112.481 184V173.091H117.133C118.478 173.091 119.54 173.347 120.322 173.858C121.103 174.369 121.494 175.096 121.494 176.038C121.494 176.63 121.273 177.123 120.833 177.516C120.393 177.909 119.782 178.174 119.001 178.311C119.654 178.358 120.21 178.508 120.67 178.759C121.134 179.005 121.487 179.324 121.728 179.717C121.974 180.11 122.097 180.546 122.097 181.024C122.097 181.644 121.932 182.177 121.6 182.622C121.273 183.067 120.793 183.408 120.158 183.645C119.529 183.882 118.759 184 117.85 184H112.481ZM115.3 181.734H117.85C118.272 181.734 118.601 181.635 118.837 181.436C119.079 181.232 119.2 180.955 119.2 180.605C119.2 180.217 119.079 179.911 118.837 179.689C118.601 179.466 118.272 179.355 117.85 179.355H115.3V181.734ZM115.3 177.58H117.197C117.5 177.58 117.758 177.537 117.971 177.452C118.189 177.362 118.354 177.234 118.468 177.068C118.586 176.902 118.646 176.706 118.646 176.479C118.646 176.143 118.511 175.88 118.241 175.69C117.971 175.501 117.602 175.406 117.133 175.406H115.3V177.58ZM124.004 188.091V173.091H126.987V174.923H127.122C127.255 174.63 127.446 174.331 127.697 174.028C127.953 173.721 128.285 173.465 128.692 173.261C129.104 173.053 129.615 172.949 130.226 172.949C131.021 172.949 131.755 173.157 132.428 173.574C133.1 173.986 133.637 174.608 134.04 175.442C134.442 176.27 134.643 177.31 134.643 178.56C134.643 179.777 134.447 180.804 134.054 181.642C133.666 182.475 133.135 183.107 132.463 183.538C131.795 183.964 131.047 184.178 130.219 184.178C129.632 184.178 129.132 184.08 128.72 183.886C128.313 183.692 127.979 183.448 127.719 183.155C127.458 182.857 127.259 182.556 127.122 182.253H127.03V188.091H124.004ZM126.966 178.545C126.966 179.194 127.056 179.76 127.236 180.243C127.416 180.726 127.676 181.102 128.017 181.372C128.358 181.637 128.772 181.77 129.26 181.77C129.752 181.77 130.169 181.635 130.51 181.365C130.851 181.09 131.109 180.712 131.284 180.229C131.464 179.741 131.554 179.18 131.554 178.545C131.554 177.916 131.466 177.362 131.291 176.884C131.116 176.405 130.858 176.031 130.517 175.761C130.176 175.491 129.757 175.357 129.26 175.357C128.768 175.357 128.351 175.487 128.01 175.747C127.674 176.008 127.416 176.377 127.236 176.855C127.056 177.333 126.966 177.897 126.966 178.545ZM141.632 184.213C140.51 184.213 139.544 183.986 138.734 183.531C137.929 183.072 137.309 182.423 136.874 181.585C136.438 180.742 136.22 179.746 136.22 178.595C136.22 177.473 136.438 176.488 136.874 175.641C137.309 174.793 137.922 174.133 138.713 173.659C139.509 173.186 140.441 172.949 141.511 172.949C142.231 172.949 142.901 173.065 143.521 173.297C144.146 173.524 144.691 173.867 145.155 174.327C145.624 174.786 145.988 175.364 146.249 176.06C146.509 176.751 146.639 177.561 146.639 178.489V179.32H137.428V177.445H143.791C143.791 177.009 143.696 176.623 143.507 176.287C143.318 175.951 143.055 175.688 142.719 175.499C142.387 175.304 142.001 175.207 141.561 175.207C141.102 175.207 140.695 175.314 140.339 175.527C139.989 175.735 139.714 176.017 139.516 176.372C139.317 176.723 139.215 177.113 139.21 177.544V179.327C139.21 179.866 139.31 180.333 139.509 180.726C139.712 181.119 139.999 181.422 140.368 181.635C140.737 181.848 141.175 181.955 141.682 181.955C142.018 181.955 142.326 181.907 142.605 181.812C142.884 181.718 143.124 181.576 143.322 181.386C143.521 181.197 143.673 180.965 143.777 180.69L146.575 180.875C146.433 181.547 146.142 182.134 145.702 182.636C145.266 183.134 144.703 183.522 144.011 183.801C143.325 184.076 142.532 184.213 141.632 184.213ZM155.062 180.655L158.017 173.091H160.318L156.064 184H154.054L149.899 173.091H152.193L155.062 180.655ZM151.504 173.091V184H148.614V173.091H151.504ZM158.77 184V173.091H161.625V184H158.77ZM168.937 184.213C167.815 184.213 166.849 183.986 166.039 183.531C165.234 183.072 164.614 182.423 164.178 181.585C163.743 180.742 163.525 179.746 163.525 178.595C163.525 177.473 163.743 176.488 164.178 175.641C164.614 174.793 165.227 174.133 166.018 173.659C166.813 173.186 167.746 172.949 168.816 172.949C169.536 172.949 170.206 173.065 170.826 173.297C171.451 173.524 171.996 173.867 172.46 174.327C172.928 174.786 173.293 175.364 173.553 176.06C173.814 176.751 173.944 177.561 173.944 178.489V179.32H164.732V177.445H171.096C171.096 177.009 171.001 176.623 170.812 176.287C170.622 175.951 170.36 175.688 170.023 175.499C169.692 175.304 169.306 175.207 168.866 175.207C168.406 175.207 167.999 175.314 167.644 175.527C167.294 175.735 167.019 176.017 166.82 176.372C166.621 176.723 166.52 177.113 166.515 177.544V179.327C166.515 179.866 166.614 180.333 166.813 180.726C167.017 181.119 167.303 181.422 167.673 181.635C168.042 181.848 168.48 181.955 168.987 181.955C169.323 181.955 169.63 181.907 169.91 181.812C170.189 181.718 170.428 181.576 170.627 181.386C170.826 181.197 170.978 180.965 171.082 180.69L173.88 180.875C173.738 181.547 173.447 182.134 173.006 182.636C172.571 183.134 172.007 183.522 171.316 183.801C170.629 184.076 169.836 184.213 168.937 184.213ZM183.511 177.338V179.717H177.815V177.338H183.511ZM178.809 173.091V184H175.918V173.091H178.809ZM185.407 173.091V184H182.538V173.091H185.407ZM195.347 177.338V179.717H189.651V177.338H195.347ZM190.645 173.091V184H187.754V173.091H190.645ZM197.243 173.091V184H194.374V173.091H197.243ZM204.519 184.213C203.416 184.213 202.462 183.979 201.657 183.51C200.857 183.036 200.239 182.378 199.803 181.536C199.368 180.688 199.15 179.705 199.15 178.588C199.15 177.461 199.368 176.476 199.803 175.634C200.239 174.786 200.857 174.128 201.657 173.659C202.462 173.186 203.416 172.949 204.519 172.949C205.622 172.949 206.574 173.186 207.374 173.659C208.179 174.128 208.799 174.786 209.235 175.634C209.671 176.476 209.888 177.461 209.888 178.588C209.888 179.705 209.671 180.688 209.235 181.536C208.799 182.378 208.179 183.036 207.374 183.51C206.574 183.979 205.622 184.213 204.519 184.213ZM204.533 181.869C205.035 181.869 205.454 181.727 205.79 181.443C206.127 181.154 206.38 180.761 206.55 180.264C206.726 179.767 206.813 179.201 206.813 178.567C206.813 177.932 206.726 177.366 206.55 176.869C206.38 176.372 206.127 175.979 205.79 175.69C205.454 175.402 205.035 175.257 204.533 175.257C204.027 175.257 203.601 175.402 203.255 175.69C202.914 175.979 202.656 176.372 202.481 176.869C202.31 177.366 202.225 177.932 202.225 178.567C202.225 179.201 202.31 179.767 202.481 180.264C202.656 180.761 202.914 181.154 203.255 181.443C203.601 181.727 204.027 181.869 204.533 181.869ZM77.6513 201.338V203.717H71.9553V201.338H77.6513ZM72.9496 197.091V208H70.0589V197.091H72.9496ZM79.5476 197.091V208H76.6783V197.091H79.5476ZM86.8665 208.213C85.7443 208.213 84.7784 207.986 83.9688 207.531C83.1638 207.072 82.5436 206.423 82.108 205.585C81.6723 204.742 81.4545 203.746 81.4545 202.595C81.4545 201.473 81.6723 200.488 82.108 199.641C82.5436 198.793 83.1567 198.133 83.9474 197.659C84.7429 197.186 85.6757 196.949 86.7457 196.949C87.4654 196.949 88.1354 197.065 88.7557 197.297C89.3807 197.524 89.9252 197.867 90.3892 198.327C90.858 198.786 91.2225 199.364 91.483 200.06C91.7434 200.751 91.8736 201.561 91.8736 202.489V203.32H82.6619V201.445H89.0256C89.0256 201.009 88.9309 200.623 88.7415 200.287C88.5521 199.951 88.2893 199.688 87.9531 199.499C87.6217 199.304 87.2358 199.207 86.7955 199.207C86.3362 199.207 85.929 199.314 85.5739 199.527C85.2235 199.735 84.9489 200.017 84.75 200.372C84.5511 200.723 84.4493 201.113 84.4446 201.544V203.327C84.4446 203.866 84.544 204.333 84.7429 204.726C84.9465 205.119 85.233 205.422 85.6023 205.635C85.9716 205.848 86.4096 205.955 86.9162 205.955C87.2524 205.955 87.5601 205.907 87.8395 205.812C88.1188 205.718 88.358 205.576 88.5568 205.386C88.7557 205.197 88.9072 204.965 89.0114 204.69L91.8097 204.875C91.6676 205.547 91.3764 206.134 90.9361 206.636C90.5005 207.134 89.937 207.522 89.2457 207.801C88.5592 208.076 87.7661 208.213 86.8665 208.213ZM92.9957 211.196V205.599H93.8338C94.0753 205.448 94.2694 205.206 94.4162 204.875C94.5677 204.544 94.6908 204.153 94.7855 203.703C94.8849 203.253 94.9607 202.768 95.0128 202.247C95.0696 201.722 95.1193 201.191 95.1619 200.656L95.446 197.091H103.812V205.599H105.503V211.196H102.619V208H95.9503V211.196H92.9957ZM96.8452 205.599H100.957V199.42H98.017L97.9034 200.656C97.8229 201.821 97.7069 202.811 97.5554 203.625C97.4039 204.435 97.1671 205.093 96.8452 205.599ZM112.195 208.213C111.092 208.213 110.138 207.979 109.333 207.51C108.533 207.036 107.915 206.378 107.479 205.536C107.043 204.688 106.826 203.705 106.826 202.588C106.826 201.461 107.043 200.476 107.479 199.634C107.915 198.786 108.533 198.128 109.333 197.659C110.138 197.186 111.092 196.949 112.195 196.949C113.298 196.949 114.25 197.186 115.05 197.659C115.855 198.128 116.475 198.786 116.911 199.634C117.346 200.476 117.564 201.461 117.564 202.588C117.564 203.705 117.346 204.688 116.911 205.536C116.475 206.378 115.855 207.036 115.05 207.51C114.25 207.979 113.298 208.213 112.195 208.213ZM112.209 205.869C112.711 205.869 113.13 205.727 113.466 205.443C113.802 205.154 114.056 204.761 114.226 204.264C114.401 203.767 114.489 203.201 114.489 202.567C114.489 201.932 114.401 201.366 114.226 200.869C114.056 200.372 113.802 199.979 113.466 199.69C113.13 199.402 112.711 199.257 112.209 199.257C111.703 199.257 111.276 199.402 110.931 199.69C110.59 199.979 110.332 200.372 110.157 200.869C109.986 201.366 109.901 201.932 109.901 202.567C109.901 203.201 109.986 203.767 110.157 204.264C110.332 204.761 110.59 205.154 110.931 205.443C111.276 205.727 111.703 205.869 112.209 205.869ZM124.461 208.213C123.343 208.213 122.382 207.976 121.577 207.503C120.777 207.025 120.161 206.362 119.73 205.514C119.304 204.667 119.091 203.691 119.091 202.588C119.091 201.471 119.307 200.491 119.738 199.648C120.173 198.8 120.791 198.14 121.591 197.666C122.391 197.188 123.343 196.949 124.446 196.949C125.398 196.949 126.231 197.122 126.946 197.467C127.661 197.813 128.227 198.298 128.644 198.923C129.06 199.548 129.29 200.282 129.333 201.125H126.478C126.397 200.58 126.184 200.143 125.838 199.811C125.498 199.475 125.05 199.307 124.496 199.307C124.027 199.307 123.618 199.435 123.267 199.69C122.922 199.941 122.652 200.308 122.458 200.791C122.264 201.274 122.167 201.859 122.167 202.545C122.167 203.241 122.261 203.833 122.451 204.321C122.645 204.809 122.917 205.18 123.267 205.436C123.618 205.692 124.027 205.82 124.496 205.82C124.842 205.82 125.152 205.749 125.426 205.607C125.706 205.464 125.935 205.259 126.115 204.989C126.3 204.714 126.421 204.385 126.478 204.001H129.333C129.285 204.835 129.058 205.569 128.651 206.203C128.248 206.833 127.692 207.325 126.982 207.68C126.272 208.036 125.431 208.213 124.461 208.213ZM130.526 199.47V197.091H140.412V199.47H136.897V208H134.013V199.47H130.526ZM144.114 212.091C143.731 212.091 143.371 212.06 143.035 211.999C142.703 211.942 142.429 211.868 142.211 211.778L142.893 209.52C143.248 209.629 143.567 209.688 143.852 209.697C144.14 209.707 144.389 209.641 144.597 209.499C144.81 209.357 144.983 209.115 145.116 208.774L145.293 208.312L141.38 197.091H144.562L146.82 205.102H146.934L149.214 197.091H152.417L148.177 209.179C147.973 209.766 147.696 210.277 147.346 210.713C147 211.153 146.562 211.492 146.032 211.729C145.502 211.97 144.862 212.091 144.114 212.091ZM153.965 208V197.091H163.504V208H160.613V199.47H156.82V208H153.965ZM173.511 201.338V203.717H167.815V201.338H173.511ZM168.809 197.091V208H165.918V197.091H168.809ZM175.407 197.091V208H172.538V197.091H175.407ZM180.865 208.206C180.169 208.206 179.549 208.085 179.004 207.844C178.46 207.598 178.029 207.235 177.712 206.757C177.399 206.274 177.243 205.673 177.243 204.953C177.243 204.347 177.354 203.838 177.577 203.426C177.799 203.014 178.102 202.683 178.486 202.432C178.869 202.181 179.305 201.991 179.793 201.864C180.285 201.736 180.801 201.646 181.341 201.594C181.975 201.527 182.487 201.466 182.875 201.409C183.263 201.348 183.545 201.258 183.72 201.139C183.895 201.021 183.983 200.846 183.983 200.614V200.571C183.983 200.121 183.841 199.773 183.557 199.527C183.277 199.281 182.88 199.158 182.364 199.158C181.819 199.158 181.386 199.278 181.064 199.52C180.742 199.757 180.529 200.055 180.425 200.415L177.626 200.188C177.768 199.525 178.048 198.952 178.464 198.469C178.881 197.981 179.419 197.607 180.077 197.347C180.74 197.081 181.507 196.949 182.378 196.949C182.984 196.949 183.564 197.02 184.118 197.162C184.677 197.304 185.171 197.524 185.602 197.822C186.038 198.121 186.381 198.504 186.632 198.973C186.883 199.437 187.009 199.993 187.009 200.642V208H184.139V206.487H184.054C183.879 206.828 183.644 207.129 183.351 207.389C183.057 207.645 182.705 207.846 182.293 207.993C181.881 208.135 181.405 208.206 180.865 208.206ZM181.732 206.118C182.177 206.118 182.57 206.03 182.911 205.855C183.251 205.675 183.519 205.434 183.713 205.131C183.907 204.828 184.004 204.484 184.004 204.101V202.943C183.91 203.005 183.779 203.062 183.614 203.114C183.453 203.161 183.27 203.206 183.067 203.249C182.863 203.286 182.66 203.322 182.456 203.355C182.252 203.384 182.068 203.41 181.902 203.433C181.547 203.485 181.237 203.568 180.972 203.682C180.706 203.795 180.5 203.949 180.354 204.143C180.207 204.333 180.134 204.57 180.134 204.854C180.134 205.266 180.283 205.58 180.581 205.798C180.884 206.011 181.268 206.118 181.732 206.118Z" fill="#6D6D6D"/>
<g clip-path="url(#clip0_1104_5003)">
<path d="M151.062 36C141.171 36 133.125 44.0463 133.125 53.9375C133.125 63.142 147.516 79.4446 149.156 81.2742C149.643 81.8124 150.335 82.125 151.062 82.125C151.79 82.125 152.482 81.8124 152.969 81.2742C154.609 79.4446 169 63.142 169 53.9375C169 44.0463 160.954 36 151.062 36ZM151.062 61.625C146.819 61.625 143.375 58.181 143.375 53.9375C143.375 49.694 146.819 46.25 151.062 46.25C155.306 46.25 158.75 49.694 158.75 53.9375C158.75 58.181 155.306 61.625 151.062 61.625ZM88.6093 66.1043C88.134 66.2958 87.7269 66.6251 87.4402 67.0497C87.1534 67.4743 87.0001 67.975 87 68.4874V115.438C87 116.288 87.4254 117.083 88.1275 117.559C88.558 117.846 89.0551 118 89.5625 118C89.8854 118 90.2082 117.938 90.5157 117.815L112.625 108.97V56.5L88.6093 66.1043Z" fill="#6D6D6D"/>
<path d="M156.782 84.6977C155.327 86.3172 153.241 87.25 151.062 87.25C148.884 87.25 146.798 86.3172 145.343 84.6977C144.82 84.1186 144.149 83.355 143.375 82.4479V118L167.391 108.396C168.364 108.011 169 107.063 169 106.018V68.3439C164.803 75.4522 159.191 82.0122 156.782 84.6977ZM129.614 61.2458L117.75 56.5V108.97L138.25 117.17V76.016C134.975 71.6034 131.557 66.2888 129.614 61.2458Z" fill="#6D6D6D"/>
</g>
<defs>
<clipPath id="clip0_1104_5003">
<rect width="82" height="82" fill="white" transform="translate(87 36)"/>
</clipPath>
</defs>
</svg>
