<svg width="26" height="26" viewBox="0 0 26 26" fill="#000" xmlns="http://www.w3.org/2000/svg">
    <g clip-path="url(#clip0_658_7385)">
        <path d="M5.81396 11.6414C8.85153 11.6414 11.314 9.17892 11.314 6.14136C11.314 3.10379 8.85153 0.641357 5.81396 0.641357C2.7764 0.641357 0.313965 3.10379 0.313965 6.14136C0.313965 9.17892 2.7764 11.6414 5.81396 11.6414Z" fill="current"/>
        <path d="M12.689 25.3914C14.9671 25.3914 16.814 23.5445 16.814 21.2664C16.814 18.9882 14.9671 17.1414 12.689 17.1414C10.4108 17.1414 8.56396 18.9882 8.56396 21.2664C8.56396 23.5445 10.4108 25.3914 12.689 25.3914Z" fill="current"/>
        <path d="M22.314 11.6414C23.8327 11.6414 25.064 10.4101 25.064 8.89136C25.064 7.37257 23.8327 6.14136 22.314 6.14136C20.7952 6.14136 19.564 7.37257 19.564 8.89136C19.564 10.4101 20.7952 11.6414 22.314 11.6414Z" fill="current"/>
        <path d="M16.814 4.76636C17.5734 4.76636 18.189 4.15075 18.189 3.39136C18.189 2.63197 17.5734 2.01636 16.814 2.01636C16.0546 2.01636 15.439 2.63197 15.439 3.39136C15.439 4.15075 16.0546 4.76636 16.814 4.76636Z" fill="current"/>
        <path d="M22.314 19.8914C23.0734 19.8914 23.689 19.2757 23.689 18.5164C23.689 17.757 23.0734 17.1414 22.314 17.1414C21.5546 17.1414 20.939 17.757 20.939 18.5164C20.939 19.2757 21.5546 19.8914 22.314 19.8914Z" fill="current"/>
        <path d="M4.43896 17.1414C5.19836 17.1414 5.81396 16.5257 5.81396 15.7664C5.81396 15.007 5.19836 14.3914 4.43896 14.3914C3.67957 14.3914 3.06396 15.007 3.06396 15.7664C3.06396 16.5257 3.67957 17.1414 4.43896 17.1414Z" fill="current"/>
    </g>
    <defs>
        <clipPath id="clip0_658_7385">
            <rect width="24.75" height="24.75" fill="current" transform="translate(0.313965 0.641357)"/>
        </clipPath>
    </defs>
</svg>
