<svg xmlns="http://www.w3.org/2000/svg" version="1.1" xmlns:xlink="http://www.w3.org/1999/xlink" xmlns:svgjs="http://svgjs.com/svgjs" width="512" height="512" x="0" y="0" viewBox="0 0 64 64" style="enable-background:new 0 0 512 512" xml:space="preserve" class=""><g><path fill="#30c3e5" d="M.765 61.385h57.99V33.426H.765a.637.637 0 0 0-.637.637v26.685a.636.636 0 0 0 .637.637z" data-original="#30c3e5"></path><path d="M5.759 51.042c-.115 1.096-2.46 1.746-5.634 2.256v-6.335c1.657 1.428 5.787 2.588 5.634 4.079zM1.82 33.426H.125V44.63c2.919-2.345 13.945-2.09 14.187-4.767.255-2.881-8.719-4.869-12.492-6.437z" opacity=".09" fill="#000000" data-original="#000000"></path><path fill="#ffffff" d="M56.057 33.423V60.75c0 .344-.28.637-.637.637H3.481C1.072 59.692.715 58.596.868 57.895c.93-4.41 23.427-3.378 23.796-6.844.204-1.925-6.704-3.288-6.309-5.417.637-3.467 14.594-2.766 14.862-5.761.255-2.893-8.718-4.882-12.491-6.449z" opacity=".3" data-original="#ffffff"></path><path fill="#ffe169" d="M11.275 61.383h51.941a.637.637 0 0 0 .637-.637V29.99a.648.648 0 0 0-.618-.641c-16.06-.72-23.457 3.315-34.724 4.076 3.773 1.568 12.745 3.561 12.492 6.443-.263 3.004-14.222 2.296-14.859 5.766-.394 2.124 6.514 3.49 6.312 5.412-.374 3.469-22.87 2.438-23.801 6.848-.151.707.213 1.8 2.62 3.489z" data-original="#ffe169"></path><path d="M32.119 44.962c-.395 2.205 6.513 3.633 6.31 5.634-.37 3.62-22.867 2.549-23.798 7.138-.153.752.217 1.886 2.626 3.645h-5.978C8.87 59.696 8.5 58.6 8.653 57.886c.93-4.398 23.428-3.378 23.798-6.845.204-1.925-6.705-3.289-6.31-5.404.637-3.467 14.595-2.766 14.862-5.774.255-2.881-8.719-4.869-12.492-6.437a60.884 60.884 0 0 0 5.787-.688c.344-.051.676-.115 1.02-.178 4.104 1.581 11.905 3.582 11.663 6.386-.268 3.135-14.225 2.396-14.862 6.016z" opacity=".09" fill="#000000" data-original="#000000"></path><g fill="#ce9538"><path d="M49.334 54.694a.722.722 0 0 1-.548-.23.745.745 0 0 1-.217-.535c0-.102.012-.204.051-.293a.647.647 0 0 1 .166-.243c.28-.293.79-.293 1.083 0a.796.796 0 0 1 .167.243c.037.088.051.19.051.293a.746.746 0 0 1-.218.535.75.75 0 0 1-.535.23zM52.253 50.577c-.102 0-.203-.012-.293-.051s-.179-.09-.243-.166c-.153-.141-.229-.331-.229-.535s.076-.408.229-.548a.784.784 0 0 1 1.07 0c.153.139.23.344.23.548s-.077.395-.23.535a.741.741 0 0 1-.534.217zM56.83 40.278a.765.765 0 0 1-.765-.765c0-.192.09-.396.229-.535a.789.789 0 0 1 1.084 0 .847.847 0 0 1 .166.241.821.821 0 0 1 .051.294.765.765 0 0 1-.765.765zM31.988 58.365a.764.764 0 0 1-.765-.766c0-.204.09-.395.23-.535a.648.648 0 0 1 .241-.166.787.787 0 0 1 .841.166c.141.141.217.331.217.535s-.076.396-.217.549a.801.801 0 0 1-.547.217zM59.914 37.843a.756.756 0 0 1-.535-.229.713.713 0 0 1-.23-.535c0-.102.012-.204.051-.293a.885.885 0 0 1 .166-.255c.294-.28.803-.28 1.084 0a.828.828 0 0 1 .229.548.712.712 0 0 1-.229.535c-.065.076-.153.127-.243.166s-.191.063-.293.063zM53.63 54.171a.762.762 0 0 1-.765-.765c0-.203.076-.395.217-.535a.777.777 0 0 1 1.083 0c.141.141.23.332.23.535 0 .204-.09.396-.23.535a.713.713 0 0 1-.535.23zM27.807 57.752a.8.8 0 0 1-.548-.217c-.14-.153-.217-.344-.217-.548s.077-.396.217-.535c.294-.294.803-.294 1.084 0 .141.139.23.331.23.535a.762.762 0 0 1-.766.765zM42.81 46.714a.765.765 0 0 1-.765-.765c0-.204.09-.395.229-.535.281-.294.79-.294 1.084 0a.765.765 0 0 1-.548 1.3z" fill="#ce9538" data-original="#ce9538"></path></g><path fill="#606060" d="M50.612 37.06a1.138 1.138 0 0 1-1.393-.806l-8.6-32.206a1.138 1.138 0 0 1 2.199-.587l8.599 32.206a1.137 1.137 0 0 1-.805 1.393z" data-original="#606060"></path><path fill="#f43d76" d="m60.141 15.318-.24-.898c-1.887-7.066-9.797-11.086-17.669-8.984-7.865 2.1-12.719 9.528-10.832 16.595l.24.898a2.091 2.091 0 0 0 2.56 1.481l1.659-.443a2.091 2.091 0 0 0 1.481-2.56l-.24-.898 17.101-4.566.24.898a2.091 2.091 0 0 0 2.56 1.481l1.659-.443a2.093 2.093 0 0 0 1.481-2.561z" data-original="#f43d76"></path><path fill="#f4f4f4" d="m54.441 16.84-.24-.898C52.314 8.875 46.956 4.174 42.233 5.435c-4.719 1.26-7.02 8.007-5.133 15.073l.24.898a2.091 2.091 0 0 0 2.56 1.481l1.659-.443a2.091 2.091 0 0 0 1.481-2.56l-.24-.898 5.7-1.522.24.898a2.091 2.091 0 0 0 2.56 1.481l1.66-.443a2.091 2.091 0 0 0 1.481-2.56z" data-original="#f4f4f4"></path><path fill="#f43d76" d="m48.741 18.362-.24-.898c-1.887-7.066-4.692-12.449-6.266-12.029-1.573.42-1.321 6.485.566 13.551l.24.898a2.091 2.091 0 0 0 2.56 1.481l1.659-.443a2.092 2.092 0 0 0 1.481-2.56z" data-original="#f43d76"></path><path d="m35.276 20.992.24.899a2.09 2.09 0 0 0 1.362 1.444c-.264.295-.613.52-1.019.628l-1.662.444a2.092 2.092 0 0 1-2.559-1.48l-.24-.899C29.51 14.96 34.363 7.543 42.232 5.442a14.778 14.778 0 0 1 1.979-.396c-6.722 2.691-10.664 9.469-8.935 15.946z" opacity=".09" fill="#000000" data-original="#000000"></path><path fill="#0b0c0c" d="M24.033 34.191H.765a.764.764 0 1 1 0-1.53h23.268a.764.764 0 1 1 0 1.53zm-8.406 1.684a.764.764 0 1 0 0 1.53h4.429a.764.764 0 1 0 0-1.53zm-3.547 5.634a.764.764 0 1 0 0-1.528H9.503a.764.764 0 1 0 0 1.528zm-2.556 5.785h3.502a.764.764 0 1 0 0-1.528H9.524a.764.764 0 1 0 0 1.528zM6.08 37.362a.765.765 0 1 0 0 1.529h1.614a.764.764 0 1 0 0-1.529zm1.141 10.947H5.137a.764.764 0 1 0 0 1.528h2.084a.764.764 0 1 0 0-1.528zm56.778-18.926c-.019.422-.325.742-.799.73a76.001 76.001 0 0 0-12.358.432l1.315 4.924a1.906 1.906 0 0 1-2.792 2.138 1.882 1.882 0 0 1-.886-1.156l-1.433-5.367c-2.24.372-4.367.8-6.413 1.222-2.884.595-5.652 1.166-8.636 1.546l.289.095c4.78 1.581 9.722 3.216 9.48 5.988-.178 2.04-3.443 2.611-7.576 3.335-2.98.522-7.06 1.236-7.292 2.503-.1.539 1.82 1.522 2.851 2.05 1.862.952 3.622 1.853 3.469 3.303-.23 2.136-4.266 2.741-11.377 3.627-4.801.599-12.057 1.502-12.436 3.298-.061.285.043 1.115 2.311 2.706a.766.766 0 0 1-.879 1.252c-2.28-1.599-3.21-2.959-2.928-4.277.603-2.86 6.985-3.656 13.742-4.497 3.471-.433 9.933-1.237 10.045-2.273.042-.405-1.841-1.368-2.645-1.779-1.95-.998-3.966-2.03-3.658-3.689.424-2.313 4.363-3.002 8.532-3.732 2.334-.408 6.241-1.093 6.317-1.962.137-1.567-5.23-3.342-8.437-4.402-1.352-.447-2.629-.869-3.587-1.268a.764.764 0 0 1 .242-1.47c4.272-.289 7.96-1.049 11.864-1.855 2.016-.416 4.115-.835 6.326-1.207l-1.984-7.432a2.85 2.85 0 0 1-1.126-.419c-.018.034-.028.071-.048.104a2.83 2.83 0 0 1-1.736 1.329l-1.657.443a2.847 2.847 0 0 1-2.168-.287c-.034-.019-.061-.046-.093-.067a2.843 2.843 0 0 1-1.78 1.433l-1.659.443a2.865 2.865 0 0 1-3.498-2.022l-.24-.899c-1.835-6.878 2.366-14.088 9.508-16.902l-.288-1.079a1.906 1.906 0 0 1 1.348-2.329 1.906 1.906 0 0 1 2.33 1.347l.284 1.063c7.644-1.187 14.953 2.981 16.8 9.896l.239.899a2.831 2.831 0 0 1-.288 2.166 2.83 2.83 0 0 1-1.736 1.329l-1.657.443a2.83 2.83 0 0 1-2.168-.287c-.033-.019-.06-.046-.093-.067a2.843 2.843 0 0 1-1.78 1.433l-1.659.443a2.845 2.845 0 0 1-2.168-.287c-.033-.019-.06-.046-.092-.066a2.84 2.84 0 0 1-1.782 1.432l-1.252.335 3.754 14.061a.37.37 0 0 0 .457.265.376.376 0 0 0 .264-.458l-3.109-11.645a.766.766 0 0 1 1.479-.395l1.395 5.226a77.213 77.213 0 0 1 12.827-.465.768.768 0 0 1 .725.801zM53.702 17.037l-.24-.897c-1.491-5.587-5.22-9.623-8.936-10.088.453.572.919 1.307 1.403 2.236 1.209 2.319 2.384 5.508 3.311 8.978l.24.899a1.324 1.324 0 0 0 1.624.94l1.658-.443a1.33 1.33 0 0 0 .94-1.625zM48.014 5.729c3.05 1.81 5.704 5.439 6.926 10.015l.24.897v.001a1.324 1.324 0 0 0 1.624.94l1.657-.443a1.32 1.32 0 0 0 .94-1.623l-.239-.9c-1.324-4.96-5.842-8.326-11.148-8.887zm-6.395-.901c.14-.041.623-.174.72-.198l-.26-.972a.375.375 0 0 0-.457-.264.376.376 0 0 0-.264.458zm.681 15.254v-.006l-.239-.894c-.926-3.469-1.496-6.819-1.606-9.432-.05-1.202.001-2.179.149-2.952-6.352 2.566-10.089 8.953-8.466 15.034l.24.899a1.329 1.329 0 0 0 1.624.94l1.658-.443a1.33 1.33 0 0 0 .94-1.625l-.24-.897c-1.013-3.797-.89-7.73.339-10.79a.764.764 0 1 1 1.419.571c-1.108 2.76-1.21 6.341-.279 9.825l.24.897c.091.344.31.63.616.807.309.178.665.225 1.008.133l1.657-.443a1.32 1.32 0 0 0 .94-1.624zm3.103.545 1.658-.443a1.328 1.328 0 0 0 .94-1.624l-.24-.899c-1.988-7.448-4.532-11.428-5.344-11.483a.019.019 0 0 1-.007.002c-.637.445-.857 5.164 1.131 12.608l.239.899a1.328 1.328 0 0 0 1.623.94z" data-original="#0b0c0c"></path></g></svg>