<svg width="22" height="23" viewBox="0 0 22 23" fill="#000" xmlns="http://www.w3.org/2000/svg">
    <path d="M15.1135 7.77905C14.8752 7.75855 14.6352 7.78829 14.4091 7.86635C14.1831 7.9444 13.9759 8.06903 13.801 8.23218L13.3244 8.67749C13.2153 8.77896 13.0746 8.83979 12.9259 8.84975C12.7772 8.85971 12.6297 8.81819 12.508 8.73218C12.3716 8.63591 12.2781 8.4902 12.2475 8.32605C12.2168 8.1619 12.2514 7.99228 12.3439 7.85327L13.5041 6.09155C13.6474 5.87402 13.7401 5.62711 13.7753 5.369C13.8105 5.11089 13.7874 4.84817 13.7075 4.60021C13.6277 4.35224 13.4933 4.12535 13.3141 3.93625C13.1349 3.74715 12.9156 3.60066 12.6723 3.50759C12.429 3.41452 12.1679 3.37723 11.9083 3.39848C11.6487 3.41972 11.3971 3.49896 11.1722 3.63034C10.9472 3.76173 10.7546 3.94191 10.6086 4.15762C10.4625 4.37333 10.3668 4.61906 10.3283 4.87671L10.1721 5.93921C10.1497 6.07516 10.0855 6.20077 9.98848 6.29858L9.79707 6.48999C9.70349 6.58282 9.58402 6.64518 9.45435 6.66888C9.32468 6.69259 9.19088 6.67652 9.07051 6.6228L8.22285 6.22827C7.90161 6.0806 7.53916 6.04862 7.19702 6.13775C6.85488 6.22689 6.55411 6.43164 6.34575 6.71728C6.13738 7.00292 6.03425 7.35185 6.05386 7.70487C6.07347 8.05788 6.2146 8.39325 6.45332 8.65405L6.91035 9.14624C7.01966 9.26495 7.08034 9.42042 7.08034 9.58179C7.08034 9.74316 7.01966 9.89863 6.91035 10.0173L6.83613 10.0994C6.77674 10.1662 6.70399 10.2199 6.62258 10.2569C6.54116 10.2939 6.4529 10.3134 6.36348 10.3142C6.18407 10.3119 6.01282 10.2389 5.88691 10.1111L4.57441 8.71265C4.40427 8.53158 4.19688 8.38957 3.96655 8.2964C3.73622 8.20323 3.48843 8.16112 3.24025 8.17297C2.99207 8.18481 2.74942 8.25034 2.52901 8.36503C2.3086 8.47971 2.11568 8.64083 1.96356 8.83728C1.81144 9.03372 1.70372 9.26082 1.64785 9.50292C1.59197 9.74501 1.58925 9.99635 1.63989 10.2396C1.69053 10.4828 1.79332 10.7122 1.94117 10.9119C2.08902 11.1116 2.27841 11.2768 2.49629 11.3962L4.2541 12.3611C4.33354 12.4055 4.40277 12.4661 4.45731 12.539C4.51186 12.6118 4.5505 12.6953 4.57075 12.784C4.591 12.8728 4.5924 12.9648 4.57487 13.0541C4.55733 13.1434 4.52125 13.228 4.46895 13.3025L3.66426 14.4314C3.34129 14.8847 3.14952 15.4183 3.11001 15.9735C3.07051 16.5287 3.18479 17.0841 3.44031 17.5785C3.69583 18.073 4.0827 18.4875 4.55842 18.7765C5.03414 19.0655 5.58031 19.2177 6.13692 19.2166C6.24259 19.2172 6.34822 19.212 6.45332 19.2009C6.86717 19.1572 7.26761 19.0289 7.6298 18.8239C7.99199 18.619 8.30819 18.3418 8.55879 18.0095L9.91426 16.2048C10.015 16.072 10.1437 15.9629 10.2912 15.8852C10.4388 15.8076 10.6016 15.7633 10.7681 15.7554C10.9347 15.7476 11.1009 15.7765 11.2551 15.8399C11.4092 15.9034 11.5476 16 11.6604 16.1228L12.5041 17.0525C12.914 17.5018 13.4811 17.7761 14.0878 17.8186C14.6945 17.8611 15.2943 17.6685 15.7629 17.2808C16.2315 16.8931 16.5329 16.3399 16.6047 15.736C16.6765 15.1321 16.5132 14.5237 16.1486 14.0369L14.9494 12.4431C14.8982 12.3761 14.8607 12.2996 14.8393 12.218C14.8178 12.1364 14.8128 12.0514 14.8244 11.9678C14.836 11.8842 14.8641 11.8038 14.907 11.7312C14.9499 11.6586 15.0068 11.5952 15.0744 11.5447L16.0002 10.8416C16.2755 10.633 16.4812 10.3459 16.5899 10.0181C16.6987 9.69035 16.7055 9.33727 16.6095 9.00552C16.5134 8.67377 16.319 8.37895 16.0519 8.15999C15.7848 7.94102 15.4576 7.80819 15.1135 7.77905ZM3.7502 5.36499C4.53145 4.70874 4.43379 3.35327 3.53145 2.27905C3.14925 1.80936 2.63699 1.46287 2.05879 1.28296C1.87592 1.23006 1.68666 1.20246 1.49629 1.20093C1.14361 1.19359 0.799961 1.31276 0.52754 1.53687C-0.25371 2.19312 -0.156054 3.54858 0.74629 4.6189C0.987611 4.93422 1.29386 5.19401 1.64431 5.38069C1.99475 5.56737 2.38122 5.67658 2.77754 5.70093C3.13129 5.70755 3.47593 5.58852 3.7502 5.36499ZM7.2541 4.52124C8.01973 4.52124 8.62129 3.72046 8.62129 2.70093C8.62129 1.67749 8.01973 0.880615 7.2541 0.880615C6.48457 0.880615 5.88301 1.67749 5.88301 2.70093C5.88301 3.72046 6.48457 4.52124 7.2541 4.52124ZM15.0861 19.5017C14.2033 18.9939 13.2111 19.115 12.8283 19.7791C12.732 19.9593 12.6815 20.1606 12.6815 20.365C12.6815 20.5694 12.732 20.7707 12.8283 20.9509C13.0278 21.3393 13.3377 21.66 13.7189 21.8728C14.0556 22.0709 14.4378 22.1786 14.8283 22.1853C14.8752 22.1853 14.9182 22.1853 14.9611 22.1814C15.1675 22.1831 15.3706 22.13 15.5498 22.0276C15.729 21.9252 15.8778 21.7771 15.981 21.5984C16.0843 21.4197 16.1383 21.2168 16.1375 21.0104C16.1368 20.804 16.0813 20.6015 15.9768 20.4236C15.7772 20.0352 15.4674 19.7145 15.0861 19.5017ZM20.84 13.7478C19.9572 13.24 18.965 13.3611 18.5783 14.0251C18.4836 14.206 18.4344 14.4073 18.4351 14.6116C18.4357 14.8158 18.4863 15.0168 18.5822 15.197C18.7817 15.5854 19.0916 15.9061 19.4729 16.1189C19.8095 16.317 20.1917 16.4247 20.5822 16.4314C20.6252 16.4314 20.6721 16.4314 20.715 16.4275C20.9196 16.4212 21.1195 16.3649 21.2973 16.2634C21.475 16.162 21.6252 16.0184 21.7346 15.8455C21.8317 15.6753 21.8829 15.4828 21.883 15.2869C21.8553 14.9625 21.7449 14.6507 21.5623 14.3813C21.3797 14.1118 21.131 13.8937 20.84 13.7478Z" fill="current"/>
</svg>
