<svg width="11" height="11" viewBox="0 0 11 11" fill="#fff" xmlns="http://www.w3.org/2000/svg">
    <g clip-path="url(#clip0_165_1851)">
        <path d="M10.8005 10.2429C10.713 10.207 10.6293 10.1625 10.5506 10.1101C9.85448 9.64623 8.93419 9.64623 8.23805 10.1101C7.75906 10.4292 7.14099 10.4292 6.662 10.1101C5.96588 9.64623 5.06708 9.64623 4.37093 10.1101C3.89195 10.4292 3.27388 10.4292 2.79489 10.1101C2.09877 9.64623 1.17848 9.64623 0.482338 10.1101C0.395973 10.1678 0.303523 10.2158 0.206656 10.2533C0.0408002 10.3172 -0.041956 10.5038 0.022238 10.67C0.0861313 10.8358 0.274309 10.9192 0.438919 10.8544C0.579777 10.7999 0.714228 10.7302 0.839853 10.6464C1.31884 10.3273 1.95839 10.3273 2.43738 10.6464C2.78078 10.8752 3.17348 10.9967 3.56685 10.9998C3.97092 11.0029 4.3757 10.8814 4.72843 10.6464C5.20741 10.3273 5.82548 10.3273 6.30447 10.6464C6.65253 10.8783 7.05127 11 7.44999 11C7.84871 11 8.24746 10.8783 8.59552 10.6464C9.0745 10.3273 9.71438 10.3273 10.1934 10.6464C10.3074 10.7224 10.4288 10.7869 10.5556 10.839C10.7199 10.907 10.9084 10.8283 10.976 10.6634C11.0438 10.4988 10.9651 10.3106 10.8005 10.2429ZM8.84263 1.312C8.62422 1.22463 5.6196 0.0240191 5.6196 0.0240191C5.58261 0.0092381 5.54273 0 5.50043 0C5.32231 0 5.17817 0.144136 5.17817 0.322259V3.94497C4.86878 4.0552 4.63173 4.31845 4.5586 4.64382C4.86186 4.57376 5.17622 4.53311 5.50043 4.53311C5.82465 4.53311 6.13902 4.57374 6.44227 4.64382C6.36913 4.31845 6.13208 4.0552 5.82269 3.94497V3.11855L8.8426 1.91059C8.96502 1.8615 9.04528 1.74317 9.04528 1.6113C9.04528 1.47943 8.96504 1.36109 8.84263 1.312Z" fill="current"/>
        <path d="M5.49993 5.17761C3.5453 5.17761 1.95508 6.78932 1.95508 8.74395C1.95508 8.87773 1.96397 9.01046 1.97895 9.14213C2.39612 9.19344 2.79699 9.3374 3.15191 9.57383C3.28062 9.65942 3.42948 9.70475 3.58242 9.70475C3.73537 9.70475 3.88423 9.65945 4.01294 9.57383C4.46077 9.27548 4.98066 9.11781 5.51598 9.11781C6.05129 9.11781 6.57118 9.27548 7.01902 9.57383C7.14773 9.65942 7.29659 9.70475 7.44953 9.70475C7.60248 9.70475 7.75134 9.65945 7.88005 9.57383C8.22584 9.34346 8.61502 9.19932 9.02063 9.14454C9.03582 9.01213 9.04478 8.87857 9.04478 8.74395C9.04478 6.78932 7.45458 5.17761 5.49993 5.17761Z" fill="current"/>
    </g>
    <defs>
        <clipPath id="clip0_165_1851">
            <rect width="11" height="11" fill="current"/>
        </clipPath>
    </defs>
</svg>
