<svg width="20" height="20" viewBox="0 0 20 20" fill="none" xmlns="http://www.w3.org/2000/svg">
<g clip-path="url(#clip0_165_1143)">
<path d="M5.62513 7.906H8.83025V20H5.62513V7.906ZM11.1379 10.4701H14.3431V20H11.1379V10.4701ZM16.6508 5.94019H19.8559V20H16.6508V5.94019ZM0.112305 12.4786H3.31743V20H0.112305V12.4786Z" fill="current"/>
<path d="M18.1431 0C17.2469 0 16.5204 0.726026 16.5204 1.62162C16.5204 1.83124 16.5606 2.03137 16.6331 2.21526L13.5056 4.87949C13.2686 4.75125 13.0034 4.68429 12.7339 4.6847C12.2701 4.6847 11.8521 4.87945 11.5564 5.1912L8.85653 4.08547C8.85674 4.075 8.85734 4.06462 8.85734 4.05406C8.85734 3.15846 8.1308 2.43244 7.23456 2.43244C6.33832 2.43244 5.61182 3.15846 5.61182 4.05406C5.61182 4.1447 5.6196 4.23346 5.63392 4.32004L2.829 5.97846C2.54322 5.75275 2.18958 5.63019 1.82541 5.63064C0.929175 5.63064 0.202637 6.35667 0.202637 7.25227C0.202637 8.14786 0.929175 8.87389 1.82541 8.87389C2.72165 8.87389 3.44815 8.14786 3.44815 7.25227C3.44807 7.16315 3.44069 7.07419 3.42606 6.98628L6.23097 5.32786C6.51677 5.55358 6.87042 5.67614 7.2346 5.67568C7.69841 5.67568 8.11644 5.48094 8.41217 5.16919L11.112 6.27491C11.1118 6.28539 11.1112 6.29577 11.1112 6.30628C11.1112 7.20188 11.8377 7.92791 12.734 7.92791C13.6302 7.92791 14.3567 7.20188 14.3567 6.30628C14.3567 6.11863 14.3244 5.93859 14.2658 5.77094L17.4278 3.07727C17.6503 3.18673 17.8951 3.24352 18.1432 3.24325C19.0394 3.24325 19.7659 2.51722 19.7659 1.62162C19.7659 0.726026 19.0393 0 18.1431 0Z" fill="current"/>
</g>
<defs>
<clipPath id="clip0_165_1143">
<rect width="19.7436" height="20" fill="white" transform="translate(0.112305)"/>
</clipPath>
</defs>
</svg>
