<svg width="20" height="20" viewBox="0 0 20 20" fill="none" xmlns="http://www.w3.org/2000/svg">
<g clip-path="url(#clip0_195_935)">
<path d="M10 20C4.486 20 0 15.514 0 10C0 4.486 4.486 0 10 0C15.514 0 20 4.486 20 10C20 15.514 15.514 20 10 20ZM10 1.33333C5.22133 1.33333 1.33333 5.22133 1.33333 10C1.33333 14.7787 5.22133 18.6667 10 18.6667C14.7787 18.6667 18.6667 14.7787 18.6667 10C18.6667 5.22133 14.7787 1.33333 10 1.33333ZM9.138 13.138L15.138 7.138C15.1999 7.0761 15.249 7.00262 15.2825 6.92175C15.316 6.84088 15.3332 6.7542 15.3332 6.66667C15.3332 6.57913 15.316 6.49245 15.2825 6.41158C15.249 6.33071 15.1999 6.25723 15.138 6.19533C15.0761 6.13344 15.0026 6.08434 14.9218 6.05084C14.8409 6.01734 14.7542 6.0001 14.6667 6.0001C14.5791 6.0001 14.4925 6.01734 14.4116 6.05084C14.3307 6.08434 14.2572 6.13344 14.1953 6.19533L8.66667 11.724L6.47133 9.52867C6.40944 9.46677 6.33596 9.41767 6.25508 9.38417C6.17421 9.35068 6.08753 9.33343 6 9.33343C5.91247 9.33343 5.82579 9.35068 5.74492 9.38417C5.66404 9.41767 5.59056 9.46677 5.52867 9.52867C5.46677 9.59056 5.41767 9.66405 5.38417 9.74492C5.35068 9.82579 5.33343 9.91247 5.33343 10C5.33343 10.0875 5.35068 10.1742 5.38417 10.2551C5.41767 10.336 5.46677 10.4094 5.52867 10.4713L8.19533 13.138C8.2571 13.2001 8.33054 13.2494 8.41143 13.2831C8.49232 13.3167 8.57906 13.334 8.66667 13.334C8.75427 13.334 8.84101 13.3167 8.9219 13.2831C9.00279 13.2494 9.07623 13.2001 9.138 13.138Z" fill="current"/>
</g>
<defs>
<clipPath id="clip0_195_935">
<rect width="20" height="20" fill="white"/>
</clipPath>
</defs>
</svg>
