<svg width="7" height="12" viewBox="0 0 7 12" fill="none" xmlns="http://www.w3.org/2000/svg">
    <path d="M6.5 1.34167L6.5 10.6583C6.49931 10.8231 6.44976 10.984 6.35763 11.1207C6.26549 11.2574 6.1349 11.3636 5.98238 11.4261C5.82985 11.4885 5.66223 11.5043 5.50072 11.4715C5.33921 11.4387 5.19106 11.3587 5.075 11.2417L0.424999 6.59167C0.346892 6.5142 0.284897 6.42203 0.24259 6.32048C0.200283 6.21893 0.178501 6.11001 0.178501 6C0.178501 5.88999 0.200283 5.78107 0.24259 5.67952C0.284897 5.57797 0.346892 5.4858 0.424999 5.40833L5.075 0.758332C5.19106 0.641314 5.33921 0.561338 5.50072 0.528517C5.66223 0.495696 5.82985 0.511504 5.98238 0.573942C6.1349 0.63638 6.26549 0.742644 6.35763 0.879297C6.44976 1.01595 6.49931 1.17685 6.5 1.34167Z" fill="black"/>
</svg>
