<svg width="21" height="20" viewBox="0 0 21 20" fill="none" xmlns="http://www.w3.org/2000/svg">
<g clip-path="url(#clip0_165_880)">
<path d="M11.9446 9.99997L19.7323 2.21211C20.2391 1.70554 20.2391 0.886449 19.7323 0.379933C19.2257 -0.126644 18.4066 -0.126644 17.9001 0.379933L10.1122 8.16773L2.3246 0.379933C1.81778 -0.126644 0.998996 -0.126644 0.492419 0.379933C-0.0144002 0.886509 -0.0144002 1.70554 0.492419 2.21211L8.27997 9.99997L0.49248 17.7878C-0.0143395 18.2943 -0.0143395 19.1134 0.49248 19.6199C0.612643 19.7405 0.755432 19.836 0.912644 19.9012C1.06986 19.9663 1.23839 19.9998 1.40857 19.9996C1.74021 19.9996 2.07198 19.8726 2.32466 19.6199L10.1122 11.8322L17.9001 19.6199C18.0203 19.7404 18.1631 19.836 18.3203 19.9011C18.4775 19.9663 18.646 19.9997 18.8162 19.9996C19.1479 19.9996 19.4796 19.8726 19.7323 19.6199C20.2391 19.1134 20.2391 18.2943 19.7323 17.7878L11.9446 9.99997Z" fill="current"/>
</g>
<defs>
<clipPath id="clip0_165_880">
<rect width="20.0001" height="19.9996" fill="white" transform="translate(0.112305)"/>
</clipPath>
</defs>
</svg>
