<svg width="21" height="20" viewBox="0 0 21 20" fill="#000" xmlns="http://www.w3.org/2000/svg">
    <path d="M13.8333 20.0001C13.155 19.9998 12.4868 19.8345 11.8866 19.5184C11.1593 19.8519 10.3651 20.0139 9.56524 19.9919C8.76539 19.97 7.98126 19.7646 7.27331 19.3917C7.19867 19.3545 7.11576 19.3371 7.03246 19.341C6.94917 19.345 6.86827 19.3702 6.79747 19.4142C6.09159 19.8232 5.28165 20.0173 4.46706 19.9725C3.65246 19.9278 2.86865 19.6462 2.2118 19.1624C1.55495 18.6785 1.05364 18.0134 0.76939 17.2487C0.485141 16.484 0.430315 15.653 0.611642 14.8576C0.785835 14.1107 1.16489 13.4273 1.7062 12.8841C2.2475 12.3409 2.9296 11.9594 3.67581 11.7826C4.32623 11.6259 5.00456 11.6259 5.65497 11.7826C5.696 11.7952 5.73975 11.7962 5.78128 11.7853C5.82281 11.7744 5.86047 11.7521 5.88998 11.7209C6.34361 11.204 6.89845 10.7857 7.52018 10.4918C8.14191 10.1979 8.81732 10.0347 9.50465 10.0122C10.192 9.98971 10.8766 10.1084 11.5162 10.3611C12.1558 10.6137 12.7368 10.9948 13.2233 11.4809C13.2775 11.5367 13.4041 11.6642 13.835 11.6642C14.4592 11.6636 15.0756 11.8036 15.6383 12.074C16.201 12.3444 16.6954 12.7381 17.085 13.2259C17.1244 13.283 17.1806 13.3264 17.2458 13.3501C17.6481 13.3049 18.0553 13.3412 18.4433 13.4567C18.9166 13.598 19.3454 13.859 19.6883 14.2145C20.0312 14.5699 20.2766 15.0078 20.4008 15.4859C20.5359 15.9849 20.5359 16.5108 20.4009 17.0097C20.2659 17.5087 20.0007 17.9629 19.6325 18.3257C19.2643 18.6885 18.8063 18.9469 18.3053 19.0745C17.8044 19.202 17.2785 19.1942 16.7816 19.0517C16.5525 18.9876 16.5058 19.0267 16.485 19.0434C15.7416 19.6651 14.8024 20.004 13.8333 20.0001ZM3.29664 10.1592C3.92886 10.0091 4.58146 9.9641 5.22831 10.0259C6.44959 8.94665 8.02223 8.34932 9.65204 8.34564C11.2818 8.34196 12.8572 8.93218 14.0833 10.0059C15.5293 10.0652 16.9011 10.6623 17.93 11.6801C18.2635 11.7052 18.5934 11.7655 18.9141 11.8601C19.3638 11.9961 19.7892 12.202 20.175 12.4701C20.2557 12.2774 20.3203 12.0784 20.3683 11.8751C20.5135 11.2744 20.5331 10.6503 20.4258 10.0417C20.3112 9.47547 20.0812 8.93889 19.75 8.46544C19.4189 7.99199 18.9939 7.59182 18.5013 7.28987C18.0087 6.98792 17.4593 6.79067 16.8871 6.71042C16.315 6.63016 15.7324 6.66862 15.1758 6.82339C14.6562 6.20273 13.994 5.71718 13.2459 5.40827C12.4977 5.09936 11.6859 4.9763 10.8798 5.0496C10.0737 5.12291 9.29732 5.3904 8.61715 5.8292C7.93698 6.26799 7.37323 6.86503 6.97414 7.56923C6.46901 7.46646 5.9466 7.48646 5.45081 7.62756C4.93587 7.77259 4.46278 8.03796 4.07056 8.40178C3.67834 8.7656 3.37823 9.21745 3.19498 9.72006C3.15102 9.88325 3.12668 10.0511 3.12248 10.2201C3.17998 10.1984 3.23581 10.1734 3.29664 10.1592ZM1.70831 8.95756C1.99822 8.25023 2.44523 7.6181 3.01551 7.10904C3.58579 6.59997 4.2644 6.2273 4.99998 6.01923C5.37249 5.91271 5.75623 5.85033 6.14331 5.83339C6.70997 5.13251 7.41263 4.55358 8.20898 4.13148C9.00533 3.70937 9.87888 3.45283 10.777 3.37731C11.6751 3.30178 12.5793 3.40884 13.4349 3.69202C14.2906 3.9752 15.0801 4.42865 15.7558 5.02506C17.1298 4.89539 18.5056 5.25387 19.6416 6.03756C19.6902 5.53803 19.5849 5.0356 19.34 4.59756C19.1645 4.29314 18.9276 4.02853 18.6445 3.82052C18.3613 3.6125 18.0379 3.46563 17.695 3.38923C17.5157 3.36623 17.3503 3.28099 17.2275 3.1484C16.736 2.51776 16.0587 2.0577 15.2913 1.83336C14.5239 1.60902 13.7054 1.63177 12.9516 1.8984C12.4873 1.26711 11.8692 0.765176 11.156 0.440357C10.4428 0.115537 9.6584 -0.0213526 8.87737 0.0427168C8.09634 0.106786 7.3447 0.369683 6.69401 0.806382C6.04331 1.24308 5.51521 1.83905 5.15998 2.53756C5.13831 2.58173 5.10831 2.60339 5.11664 2.60673C4.43483 2.4375 3.71852 2.47022 3.05498 2.70089C2.39725 2.92401 1.81394 3.32448 1.36941 3.85813C0.924875 4.39177 0.6364 5.03784 0.535809 5.72506C0.454069 6.45247 0.566494 7.18855 0.861642 7.85839C1.04221 8.29291 1.33427 8.67207 1.70831 8.95756Z" fill="current"/>
</svg>
