<svg width="25" height="25" viewBox="0 0 25 25" fill="#000" xmlns="http://www.w3.org/2000/svg">
    <g clip-path="url(#clip0_1188_5177)">
        <path d="M0.576497 4.47815H2.65983C2.79796 4.47815 2.93044 4.42328 3.02812 4.32561C3.12579 4.22793 3.18066 4.09545 3.18066 3.95732C3.18066 3.81919 3.12579 3.68671 3.02812 3.58904C2.93044 3.49136 2.79796 3.43649 2.65983 3.43649H0.576497C0.438364 3.43649 0.305888 3.49136 0.208213 3.58904C0.110537 3.68671 0.0556641 3.81919 0.0556641 3.95732C0.0556641 4.09545 0.110537 4.22793 0.208213 4.32561C0.305888 4.42328 0.438364 4.47815 0.576497 4.47815ZM0.576497 6.56149H2.65983C2.79796 6.56149 2.93044 6.50661 3.02812 6.40894C3.12579 6.31126 3.18066 6.17879 3.18066 6.04065C3.18066 5.90252 3.12579 5.77004 3.02812 5.67237C2.93044 5.57469 2.79796 5.51982 2.65983 5.51982H0.576497C0.438364 5.51982 0.305888 5.57469 0.208213 5.67237C0.110537 5.77004 0.0556641 5.90252 0.0556641 6.04065C0.0556641 6.17879 0.110537 6.31126 0.208213 6.40894C0.305888 6.50661 0.438364 6.56149 0.576497 6.56149ZM0.576497 8.64482H2.65983C2.79796 8.64482 2.93044 8.58995 3.02812 8.49227C3.12579 8.3946 3.18066 8.26212 3.18066 8.12399C3.18066 7.98585 3.12579 7.85338 3.02812 7.7557C2.93044 7.65803 2.79796 7.60315 2.65983 7.60315H0.576497C0.438364 7.60315 0.305888 7.65803 0.208213 7.7557C0.110537 7.85338 0.0556641 7.98585 0.0556641 8.12399C0.0556641 8.26212 0.110537 8.3946 0.208213 8.49227C0.305888 8.58995 0.438364 8.64482 0.576497 8.64482ZM0.576497 10.7282H2.65983C2.79796 10.7282 2.93044 10.6733 3.02812 10.5756C3.12579 10.4779 3.18066 10.3455 3.18066 10.2073C3.18066 10.0692 3.12579 9.93671 3.02812 9.83904C2.93044 9.74136 2.79796 9.68649 2.65983 9.68649H0.576497C0.438364 9.68649 0.305888 9.74136 0.208213 9.83904C0.110537 9.93671 0.0556641 10.0692 0.0556641 10.2073C0.0556641 10.3455 0.110537 10.4779 0.208213 10.5756C0.305888 10.6733 0.438364 10.7282 0.576497 10.7282ZM0.576497 12.8115H2.65983C2.79796 12.8115 2.93044 12.7566 3.02812 12.6589C3.12579 12.5613 3.18066 12.4288 3.18066 12.2907C3.18066 12.1525 3.12579 12.02 3.02812 11.9224C2.93044 11.8247 2.79796 11.7698 2.65983 11.7698H0.576497C0.438364 11.7698 0.305888 11.8247 0.208213 11.9224C0.110537 12.02 0.0556641 12.1525 0.0556641 12.2907C0.0556641 12.4288 0.110537 12.5613 0.208213 12.6589C0.305888 12.7566 0.438364 12.8115 0.576497 12.8115ZM0.576497 14.8948H2.65983C2.79796 14.8948 2.93044 14.8399 3.02812 14.7423C3.12579 14.6446 3.18066 14.5121 3.18066 14.374C3.18066 14.2359 3.12579 14.1034 3.02812 14.0057C2.93044 13.908 2.79796 13.8532 2.65983 13.8532H0.576497C0.438364 13.8532 0.305888 13.908 0.208213 14.0057C0.110537 14.1034 0.0556641 14.2359 0.0556641 14.374C0.0556641 14.5121 0.110537 14.6446 0.208213 14.7423C0.305888 14.8399 0.438364 14.8948 0.576497 14.8948ZM3.18066 16.4573C3.18066 16.3192 3.12579 16.1867 3.02812 16.089C2.93044 15.9914 2.79796 15.9365 2.65983 15.9365H0.576497C0.438364 15.9365 0.305888 15.9914 0.208213 16.089C0.110537 16.1867 0.0556641 16.3192 0.0556641 16.4573C0.0556641 16.5955 0.110537 16.7279 0.208213 16.8256C0.305888 16.9233 0.438364 16.9782 0.576497 16.9782H2.65983C2.79796 16.9782 2.93044 16.9233 3.02812 16.8256C3.12579 16.7279 3.18066 16.5955 3.18066 16.4573ZM7.60592 18.6081L7.04915 18.2196C6.9804 18.1716 6.92426 18.1077 6.88549 18.0333C6.84673 17.9589 6.82649 17.8763 6.8265 17.7925V4.47815H6.30566V17.7925C6.30567 17.8763 6.28543 17.9589 6.24667 18.0333C6.2079 18.1077 6.15176 18.1716 6.08301 18.2196L5.52624 18.6081C5.28508 18.7759 5.08797 18.9995 4.95164 19.2597C4.81532 19.52 4.7438 19.8093 4.74316 20.1032C4.74316 21.1084 5.56087 21.9261 6.56608 21.9261C7.57129 21.9261 8.389 21.1084 8.389 20.1032C8.38836 19.8093 8.31684 19.52 8.18052 19.2597C8.04419 18.9995 7.84708 18.7759 7.60592 18.6081ZM6.8265 2.91565C6.8235 2.8486 6.79475 2.78529 6.74624 2.7389C6.69773 2.69252 6.6332 2.66663 6.56608 2.66663C6.49896 2.66663 6.43443 2.69252 6.38592 2.7389C6.33741 2.78529 6.30866 2.8486 6.30566 2.91565V3.43649H6.8265V2.91565Z" fill="current"/>
        <path d="M9.17025 16.8532V2.91569C9.17025 1.47975 8.00202 0.311523 6.56608 0.311523C5.13014 0.311523 3.96191 1.47975 3.96191 2.91569V16.8532C3.4749 17.2435 3.0817 17.7381 2.81127 18.3006C2.54085 18.8631 2.4001 19.4791 2.39941 20.1032C2.39941 22.4006 4.26868 24.2699 6.56608 24.2699C8.86348 24.2699 10.7327 22.4006 10.7327 20.1032C10.7327 18.837 10.1533 17.6417 9.17025 16.8532ZM6.56608 22.9678C4.98665 22.9678 3.7015 21.6826 3.7015 20.1032C3.7015 19.1693 4.16087 18.2912 4.92988 17.7542L5.264 17.5206V2.91569C5.264 2.19772 5.84811 1.61361 6.56608 1.61361C7.28405 1.61361 7.86816 2.19772 7.86816 2.91569V17.5209L8.20202 17.754C8.58068 18.0178 8.8901 18.3692 9.10399 18.7781C9.31788 19.1871 9.42995 19.6417 9.43066 20.1032C9.43066 21.6826 8.14551 22.9678 6.56608 22.9678Z" fill="current"/>
        <path d="M16.7223 10.9886C18.592 10.9886 20.1077 9.4729 20.1077 7.60319C20.1077 5.73348 18.592 4.21777 16.7223 4.21777C14.8526 4.21777 13.3369 5.73348 13.3369 7.60319C13.3369 9.4729 14.8526 10.9886 16.7223 10.9886Z" fill="current"/>
        <path d="M16.7223 3.43652C16.8605 3.43652 16.9929 3.38165 17.0906 3.28398C17.1883 3.1863 17.2432 3.05382 17.2432 2.91569V0.832357C17.2432 0.694223 17.1883 0.561747 17.0906 0.464072C16.9929 0.366397 16.8605 0.311523 16.7223 0.311523C16.5842 0.311523 16.4517 0.366397 16.354 0.464072C16.2564 0.561747 16.2015 0.694223 16.2015 0.832357V2.91569C16.2015 3.05382 16.2564 3.1863 16.354 3.28398C16.4517 3.38165 16.5842 3.43652 16.7223 3.43652ZM16.7223 11.7699C16.5842 11.7699 16.4517 11.8247 16.354 11.9224C16.2564 12.0201 16.2015 12.1526 16.2015 12.2907V14.374C16.2015 14.5122 16.2564 14.6446 16.354 14.7423C16.4517 14.84 16.5842 14.8949 16.7223 14.8949C16.8605 14.8949 16.9929 14.84 17.0906 14.7423C17.1883 14.6446 17.2432 14.5122 17.2432 14.374V12.2907C17.2432 12.1526 17.1883 12.0201 17.0906 11.9224C16.9929 11.8247 16.8605 11.7699 16.7223 11.7699ZM20.0369 4.80944C20.1702 4.80944 20.3036 4.75866 20.4051 4.6571L21.8783 3.18366C21.9281 3.13561 21.9677 3.07814 21.995 3.0146C22.0223 2.95106 22.0367 2.88271 22.0373 2.81356C22.0379 2.7444 22.0247 2.67582 21.9985 2.61181C21.9724 2.5478 21.9337 2.48965 21.8848 2.44075C21.8359 2.39184 21.7777 2.35317 21.7137 2.32698C21.6497 2.30079 21.5811 2.28762 21.512 2.28822C21.4428 2.28882 21.3745 2.30318 21.3109 2.33048C21.2474 2.35778 21.1899 2.39746 21.1419 2.4472L19.6687 3.92038C19.5959 3.99322 19.5463 4.08601 19.5262 4.18703C19.5061 4.28805 19.5164 4.39275 19.5558 4.48791C19.5952 4.58306 19.662 4.6644 19.7476 4.72163C19.8332 4.77886 19.9339 4.80942 20.0369 4.80944ZM13.0395 10.5493L11.5661 12.0227C11.5163 12.0708 11.4767 12.1282 11.4494 12.1918C11.4221 12.2553 11.4077 12.3237 11.4071 12.3928C11.4065 12.462 11.4197 12.5306 11.4459 12.5946C11.472 12.6586 11.5107 12.7167 11.5596 12.7656C11.6085 12.8145 11.6667 12.8532 11.7307 12.8794C11.7947 12.9056 11.8633 12.9188 11.9324 12.9182C12.0016 12.9176 12.0699 12.9032 12.1335 12.8759C12.197 12.8486 12.2545 12.8089 12.3025 12.7592L13.7757 11.286C13.8734 11.1883 13.9283 11.0559 13.9283 10.9177C13.9284 10.7796 13.8735 10.6471 13.7758 10.5494C13.6782 10.4517 13.5457 10.3968 13.4076 10.3968C13.2694 10.3968 13.137 10.4516 13.0393 10.5493H13.0395ZM21.5101 12.9118C21.6131 12.9118 21.7138 12.8812 21.7994 12.824C21.885 12.7667 21.9518 12.6854 21.9912 12.5903C22.0306 12.4951 22.0409 12.3904 22.0208 12.2894C22.0007 12.1884 21.9511 12.0956 21.8783 12.0227L20.4051 10.5493C20.3568 10.5009 20.2993 10.4626 20.2361 10.4364C20.173 10.4102 20.1052 10.3968 20.0368 10.3968C19.9684 10.3968 19.9007 10.4103 19.8375 10.4365C19.7743 10.4627 19.7169 10.501 19.6686 10.5494C19.6202 10.5978 19.5818 10.6552 19.5557 10.7184C19.5295 10.7816 19.5161 10.8493 19.5161 10.9177C19.5161 10.9861 19.5296 11.0539 19.5557 11.117C19.5819 11.1802 19.6203 11.2376 19.6687 11.286L21.1419 12.7592C21.2434 12.8607 21.3768 12.9118 21.5101 12.9118ZM13.0395 4.6571C13.1411 4.75866 13.2744 4.80944 13.4077 4.80944C13.5411 4.80944 13.6742 4.75866 13.776 4.6571C13.8244 4.60873 13.8627 4.5513 13.8889 4.4881C13.9151 4.4249 13.9286 4.35715 13.9286 4.28874C13.9286 4.22032 13.9151 4.15258 13.8889 4.08937C13.8627 4.02617 13.8244 3.96874 13.776 3.92038L12.3028 2.4472C12.2548 2.39746 12.1973 2.35778 12.1337 2.33048C12.0702 2.30318 12.0019 2.28882 11.9327 2.28822C11.8635 2.28762 11.795 2.30079 11.7309 2.32698C11.6669 2.35317 11.6088 2.39184 11.5599 2.44075C11.511 2.48965 11.4723 2.5478 11.4461 2.61181C11.4199 2.67582 11.4068 2.7444 11.4074 2.81356C11.408 2.88271 11.4223 2.95106 11.4496 3.0146C11.4769 3.07814 11.5166 3.13561 11.5663 3.18366L13.0395 4.6571ZM23.4932 7.08236H21.4098C21.2717 7.08236 21.1392 7.13723 21.0415 7.23491C20.9439 7.33258 20.889 7.46506 20.889 7.60319C20.889 7.74132 20.9439 7.8738 21.0415 7.97148C21.1392 8.06915 21.2717 8.12402 21.4098 8.12402H23.4932C23.6313 8.12402 23.7638 8.06915 23.8615 7.97148C23.9591 7.8738 24.014 7.74132 24.014 7.60319C24.014 7.46506 23.9591 7.33258 23.8615 7.23491C23.7638 7.13723 23.6313 7.08236 23.4932 7.08236ZM9.9515 8.12402H12.0348C12.173 8.12402 12.3054 8.06915 12.4031 7.97148C12.5008 7.8738 12.5557 7.74132 12.5557 7.60319C12.5557 7.46506 12.5008 7.33258 12.4031 7.23491C12.3054 7.13723 12.173 7.08236 12.0348 7.08236H9.9515C9.81336 7.08236 9.68089 7.13723 9.58321 7.23491C9.48554 7.33258 9.43066 7.46506 9.43066 7.60319C9.43066 7.74132 9.48554 7.8738 9.58321 7.97148C9.68089 8.06915 9.81336 8.12402 9.9515 8.12402ZM13.5557 17.4985C13.5557 17.0485 13.3421 16.7946 13.2148 16.643C13.1229 16.5331 13.1184 16.5245 13.1184 16.4574C13.1184 16.3192 13.0636 16.1867 12.9659 16.0891C12.8682 15.9914 12.7357 15.9365 12.5976 15.9365C12.4595 15.9365 12.327 15.9914 12.2293 16.0891C12.1316 16.1867 12.0768 16.3192 12.0768 16.4574C12.0768 16.9076 12.2898 17.1613 12.4174 17.3128C12.5093 17.4227 12.5137 17.4313 12.5137 17.4985C12.5137 17.5657 12.5093 17.5743 12.4174 17.6842C12.2898 17.8357 12.0765 18.0897 12.0765 18.5397C12.0765 18.9897 12.29 19.2436 12.4176 19.3954C12.5117 19.5074 12.514 19.5152 12.514 19.5805C12.514 19.6477 12.5093 19.6563 12.4174 19.7662C12.2898 19.9178 12.0765 20.1717 12.0765 20.6217C12.0765 21.0717 12.2898 21.3256 12.4171 21.4772C12.5093 21.587 12.514 21.5956 12.514 21.6631C12.514 21.7311 12.5093 21.7397 12.4171 21.8498C12.2898 22.0016 12.0765 22.2558 12.0765 22.7061C12.0765 23.1563 12.2898 23.4102 12.4171 23.562C12.5093 23.6722 12.514 23.6811 12.514 23.749C12.514 23.8872 12.5689 24.0196 12.6665 24.1173C12.7642 24.215 12.8967 24.2699 13.0348 24.2699C13.173 24.2699 13.3054 24.215 13.4031 24.1173C13.5008 24.0196 13.5557 23.8872 13.5557 23.749C13.5557 23.2985 13.3424 23.0446 13.215 22.8928C13.1229 22.7826 13.1182 22.774 13.1182 22.7061C13.1182 22.6381 13.1229 22.6292 13.215 22.5191C13.3426 22.3673 13.5557 22.1133 13.5557 21.6631C13.5557 21.2128 13.3421 20.9589 13.2148 20.8074C13.1229 20.6975 13.1184 20.6889 13.1184 20.6217C13.1184 20.5545 13.1229 20.5462 13.2148 20.436C13.3424 20.2844 13.5557 20.0308 13.5557 19.5805C13.5557 19.1308 13.3421 18.8769 13.2148 18.7251C13.1229 18.6157 13.1184 18.6068 13.1184 18.5397C13.1184 18.4725 13.1229 18.4641 13.2148 18.354C13.3424 18.2024 13.5557 17.9488 13.5557 17.4985ZM16.4202 17.4985C16.4202 17.0485 16.2067 16.7946 16.0794 16.643C15.9874 16.5331 15.983 16.5245 15.983 16.4574C15.983 16.3192 15.9281 16.1867 15.8305 16.0891C15.7328 15.9914 15.6003 15.9365 15.4622 15.9365C15.324 15.9365 15.1916 15.9914 15.0939 16.0891C14.9962 16.1867 14.9413 16.3192 14.9413 16.4574C14.9413 16.9076 15.1544 17.1613 15.282 17.3128C15.3739 17.4227 15.3783 17.4313 15.3783 17.4985C15.3783 17.5657 15.3739 17.5743 15.282 17.6842C15.1544 17.8357 14.9411 18.0897 14.9411 18.5397C14.9411 18.9897 15.1546 19.2436 15.2822 19.3954C15.3762 19.5074 15.3786 19.5152 15.3786 19.5805C15.3786 19.6477 15.3739 19.6563 15.282 19.7662C15.1544 19.9178 14.9411 20.1717 14.9411 20.6217C14.9411 21.0717 15.1544 21.3256 15.2817 21.4772C15.3739 21.587 15.3786 21.5956 15.3786 21.6631C15.3786 21.7311 15.3739 21.7397 15.2817 21.8498C15.1544 22.0016 14.9411 22.2558 14.9411 22.7061C14.9411 23.1563 15.1544 23.4102 15.2817 23.562C15.3739 23.6722 15.3786 23.6811 15.3786 23.749C15.3786 23.8872 15.4335 24.0196 15.5311 24.1173C15.6288 24.215 15.7613 24.2699 15.8994 24.2699C16.0375 24.2699 16.17 24.215 16.2677 24.1173C16.3654 24.0196 16.4202 23.8872 16.4202 23.749C16.4202 23.2985 16.207 23.0446 16.0796 22.8928C15.9874 22.7826 15.9827 22.774 15.9827 22.7061C15.9827 22.6381 15.9874 22.6292 16.0796 22.5191C16.2072 22.3673 16.4202 22.1133 16.4202 21.6631C16.4202 21.2128 16.2067 20.9589 16.0794 20.8074C15.9874 20.6975 15.983 20.6889 15.983 20.6217C15.983 20.5545 15.9874 20.5462 16.0794 20.436C16.207 20.2844 16.4202 20.0308 16.4202 19.5805C16.4202 19.1308 16.2067 18.8769 16.0794 18.7251C15.9874 18.6157 15.983 18.6068 15.983 18.5397C15.983 18.4725 15.9874 18.4641 16.0794 18.354C16.207 18.2024 16.4202 17.9488 16.4202 17.4985ZM19.2848 17.4985C19.2848 17.0485 19.0713 16.7946 18.9439 16.643C18.852 16.5331 18.8476 16.5245 18.8476 16.4574C18.8476 16.3192 18.7927 16.1867 18.695 16.0891C18.5974 15.9914 18.4649 15.9365 18.3268 15.9365C18.1886 15.9365 18.0561 15.9914 17.9585 16.0891C17.8608 16.1867 17.8059 16.3192 17.8059 16.4574C17.8059 16.9076 18.0189 17.1613 18.1466 17.3128C18.2385 17.4227 18.2429 17.4313 18.2429 17.4985C18.2429 17.5657 18.2385 17.5743 18.1466 17.6842C18.0189 17.8357 17.8057 18.0897 17.8057 18.5397C17.8057 18.9897 18.0192 19.2436 18.1468 19.3954C18.2408 19.5074 18.2432 19.5152 18.2432 19.5805C18.2432 19.6477 18.2385 19.6563 18.1466 19.7662C18.0189 19.9178 17.8057 20.1717 17.8057 20.6217C17.8057 21.0717 18.0189 21.3256 18.1463 21.4772C18.2385 21.587 18.2432 21.5956 18.2432 21.6631C18.2432 21.7311 18.2385 21.7397 18.1463 21.8498C18.0189 22.0016 17.8057 22.2558 17.8057 22.7061C17.8057 23.1563 18.0189 23.4102 18.1463 23.562C18.2385 23.6722 18.2432 23.6811 18.2432 23.749C18.2432 23.8872 18.298 24.0196 18.3957 24.1173C18.4934 24.215 18.6259 24.2699 18.764 24.2699C18.9021 24.2699 19.0346 24.215 19.1323 24.1173C19.23 24.0196 19.2848 23.8872 19.2848 23.749C19.2848 23.2985 19.0715 23.0446 18.9442 22.8928C18.852 22.7826 18.8473 22.774 18.8473 22.7061C18.8473 22.6381 18.852 22.6292 18.9442 22.5191C19.0718 22.3673 19.2848 22.1133 19.2848 21.6631C19.2848 21.2128 19.0713 20.9589 18.9439 20.8074C18.852 20.6975 18.8476 20.6889 18.8476 20.6217C18.8476 20.5545 18.852 20.5462 18.9439 20.436C19.0715 20.2844 19.2848 20.0308 19.2848 19.5805C19.2848 19.1308 19.0713 18.8769 18.9439 18.7251C18.852 18.6157 18.8476 18.6068 18.8476 18.5397C18.8476 18.4725 18.852 18.4641 18.9439 18.354C19.0715 18.2024 19.2848 17.9488 19.2848 17.4985ZM22.1494 17.4985C22.1494 17.0485 21.9359 16.7946 21.8085 16.643C21.7166 16.5331 21.7122 16.5245 21.7122 16.4574C21.7122 16.3192 21.6573 16.1867 21.5596 16.0891C21.462 15.9914 21.3295 15.9365 21.1913 15.9365C21.0532 15.9365 20.9207 15.9914 20.8231 16.0891C20.7254 16.1867 20.6705 16.3192 20.6705 16.4574C20.6705 16.9076 20.8835 17.1613 21.0111 17.3128C21.1031 17.4227 21.1075 17.4313 21.1075 17.4985C21.1075 17.5657 21.1031 17.5743 21.0111 17.6842C20.8835 17.8357 20.6702 18.0897 20.6702 18.5397C20.6702 18.9897 20.8838 19.2436 21.0114 19.3954C21.1054 19.5074 21.1077 19.5152 21.1077 19.5805C21.1077 19.6477 21.1031 19.6563 21.0111 19.7662C20.8835 19.9178 20.6702 20.1717 20.6702 20.6217C20.6702 21.0717 20.8835 21.3256 21.0109 21.4772C21.1031 21.587 21.1077 21.5956 21.1077 21.6631C21.1077 21.7311 21.1031 21.7397 21.0109 21.8498C20.8835 22.0016 20.6702 22.2558 20.6702 22.7061C20.6702 23.1563 20.8835 23.4102 21.0109 23.562C21.1031 23.6722 21.1077 23.6811 21.1077 23.749C21.1077 23.8872 21.1626 24.0196 21.2603 24.1173C21.358 24.215 21.4904 24.2699 21.6286 24.2699C21.7667 24.2699 21.8992 24.215 21.9969 24.1173C22.0945 24.0196 22.1494 23.8872 22.1494 23.749C22.1494 23.2985 21.9361 23.0446 21.8088 22.8928C21.7166 22.7826 21.7119 22.774 21.7119 22.7061C21.7119 22.6381 21.7166 22.6292 21.8088 22.5191C21.9364 22.3673 22.1494 22.1133 22.1494 21.6631C22.1494 21.2128 21.9359 20.9589 21.8085 20.8074C21.7166 20.6975 21.7122 20.6889 21.7122 20.6217C21.7122 20.5545 21.7166 20.5462 21.8085 20.436C21.9361 20.2844 22.1494 20.0308 22.1494 19.5805C22.1494 19.1308 21.9359 18.8769 21.8085 18.7251C21.7166 18.6157 21.7122 18.6068 21.7122 18.5397C21.7122 18.4725 21.7166 18.4641 21.8085 18.354C21.9361 18.2024 22.1494 17.9488 22.1494 17.4985Z" fill="current"/>
    </g>
    <defs>
        <clipPath id="clip0_1188_5177">
            <rect width="23.9583" height="23.9583" fill="current" transform="translate(0.0556641 0.311523)"/>
        </clipPath>
    </defs>
</svg>
