<svg width="20" height="20" viewBox="0 0 20 20" fill="none" xmlns="http://www.w3.org/2000/svg">
<rect x="0.5" y="0.5" width="19" height="19" rx="9.5" stroke="current"/>
<rect x="2.80762" y="2.80774" width="14.3846" height="14.3846" rx="7.19231" stroke="current"/>
<g clip-path="url(#clip0_218_686)" fill="current">
<path d="M9.42423 11.8534C9.42903 12.1945 9.68581 12.468 10.0002 12.468C10.3146 12.468 10.5713 12.1919 10.5761 11.8534L10.7681 6.23881C10.7801 6.02527 10.7081 5.81694 10.5689 5.65548C10.4202 5.4836 10.2138 5.38464 10.0002 5.38464C9.7866 5.38464 9.58022 5.4836 9.43143 5.65548C9.29224 5.81694 9.22025 6.02527 9.23225 6.23881L9.42423 11.8534Z" fill="current"/>
<path d="M9.99987 15.3846C10.424 15.3846 10.7678 15.0115 10.7678 14.5513C10.7678 14.0911 10.424 13.718 9.99987 13.718C9.57575 13.718 9.23193 14.0911 9.23193 14.5513C9.23193 15.0115 9.57575 15.3846 9.99987 15.3846Z" fill="current"/>
</g>
<defs>
<clipPath id="clip0_218_686">
<rect width="1.53846" height="10" fill="white" transform="translate(9.23096 5.38464)"/>
</clipPath>
</defs>
</svg>
