<svg width="25" height="35" viewBox="0 0 25 35" fill="none" xmlns="http://www.w3.org/2000/svg">
    <path fill-rule="evenodd" clip-rule="evenodd" d="M4.34357 0.880615H15.5319L25 10.7635V29.9558C25 32.3594 23.06 34.3115 20.6564 34.3115H4.34357C1.95216 34.3115 6.85448e-10 32.3594 6.85448e-10 29.9558V5.22419C-4.22392e-05 2.83277 1.95216 0.880615 4.34357 0.880615Z" fill="#00733B"/>
    <path fill-rule="evenodd" clip-rule="evenodd" d="M15.52 0.880615V10.6781H25.0003L15.52 0.880615Z" fill="#4D9D76"/>
    <path d="M10.3953 25.2218H8.77252L7.66225 23.3551L6.55193 25.2218H4.91699L6.84478 21.9763L5.14885 19.1579H6.78374L7.6622 20.622L8.52846 19.1579H10.1634L8.47963 21.9885L10.3953 25.2218ZM10.9687 25.2218V19.1579H12.5182V23.9041H15.1537V25.2218H10.9687V25.2218ZM17.7159 25.295C17.1058 25.295 16.569 25.0998 16.1054 24.7216C15.6539 24.3555 15.3977 23.8919 15.3611 23.3429L16.691 22.9525C16.7276 23.2453 16.8496 23.5015 17.0571 23.6967C17.2767 23.892 17.5207 23.9895 17.7891 23.9895C18.0087 23.9895 18.1918 23.9407 18.3382 23.8431C18.4724 23.7455 18.5456 23.6113 18.5456 23.4527C18.5456 23.3185 18.4846 23.2087 18.3748 23.1111C18.2649 23.0257 18.1185 22.9525 17.9477 22.8915C17.7769 22.8305 17.5695 22.7694 17.362 22.7206C17.1424 22.6596 16.9228 22.5864 16.7154 22.4888C16.4958 22.4034 16.3006 22.2936 16.1297 22.1594C15.9467 22.0374 15.8125 21.8544 15.7027 21.6225C15.5929 21.4029 15.5319 21.1345 15.5319 20.8295C15.5319 20.3292 15.7393 19.9144 16.1663 19.585C16.5934 19.2433 17.1058 19.0847 17.7036 19.0847C18.3015 19.0847 18.8261 19.2311 19.2654 19.5118C19.7046 19.8046 19.9852 20.1828 20.0951 20.6465L18.7041 21.2321C18.6431 20.9759 18.5211 20.7685 18.3503 20.6099C18.1795 20.4635 17.9599 20.3781 17.7036 20.3781C17.5084 20.3781 17.362 20.4268 17.24 20.5001C17.1302 20.5733 17.0814 20.6831 17.0814 20.8173C17.0814 20.9393 17.1546 21.0491 17.301 21.1345C17.4474 21.2077 17.6426 21.2687 17.8623 21.3054C18.0819 21.342 18.3259 21.403 18.5821 21.4884C18.8505 21.586 19.0824 21.6836 19.3142 21.8178C19.5338 21.9398 19.7168 22.1472 19.8632 22.4157C20.0218 22.6963 20.095 23.0257 20.095 23.404C20.095 23.9652 19.8754 24.4289 19.4362 24.7705C18.9969 25.1121 18.4236 25.295 17.7159 25.295Z" fill="white"/>
</svg>
