<svg width="26" height="16" viewBox="0 0 26 16" fill="#000" xmlns="http://www.w3.org/2000/svg">
    <g clip-path="url(#clip0_748_3765)">
        <path d="M21.7147 9.50123C21.0038 9.4852 20.3001 9.64667 19.6673 9.97104C19.1472 10.2449 18.5653 10.38 17.9777 10.3633C17.392 10.3796 16.8119 10.2461 16.2923 9.97534C14.8755 9.35256 14.056 7.85339 14.2967 6.32451C14.3524 5.93158 14.5183 5.56247 14.7751 5.25987C13.9012 4.99106 12.9663 4.99406 12.0941 5.26848C11.7879 5.39142 11.5112 5.57793 11.2824 5.81568C11.0535 6.05344 10.8777 6.33704 10.7666 6.64776C10.5715 7.06953 10.4788 7.53143 10.496 7.99582C10.5132 8.46022 10.6399 8.91398 10.8657 9.32013C11.5209 10.4839 13.008 11.3848 14.745 11.6606C14.8522 11.6779 14.9489 11.7349 15.016 11.8202C15.083 11.9056 15.1154 12.0132 15.1067 12.1214C15.098 12.2296 15.0488 12.3305 14.969 12.4041C14.8892 12.4777 14.7846 12.5185 14.676 12.5184C14.653 12.519 14.6299 12.5175 14.6071 12.5141C12.6157 12.1951 10.8959 11.1305 10.1158 9.74257C9.82643 9.22306 9.66215 8.64328 9.63596 8.04921C9.60977 7.45514 9.7224 6.86315 9.96491 6.3202C10.122 5.90282 10.364 5.52259 10.6756 5.20356C10.9872 4.88453 11.3617 4.63364 11.7752 4.46677C13.5856 3.74696 15.6847 4.55729 16.12 4.80298C16.4108 4.96965 16.674 5.18049 16.9002 5.42796C16.9387 5.4858 16.9904 5.53359 17.0512 5.56734C17.1119 5.60108 17.1799 5.6198 17.2493 5.62193C17.3181 5.62213 17.386 5.60672 17.448 5.57686C17.51 5.547 17.5644 5.50346 17.6071 5.44953C17.8695 5.12072 18.0301 4.72238 18.0691 4.3035C18.1082 3.88462 18.024 3.46346 17.8269 3.0918C17.1631 1.76855 15.3786 0.880615 13.3829 0.880615C11.8226 0.880615 8.92607 1.23836 7.0123 3.6306C6.09681 4.724 5.62191 6.11948 5.6804 7.54435C5.6959 7.91292 5.63753 8.28088 5.50873 8.62656C5.37993 8.97225 5.1833 9.28869 4.9304 9.55726C4.69396 9.80895 4.40897 10.0101 4.09265 10.1487C3.77632 10.2872 3.43521 10.3602 3.08989 10.3633H3.03817C2.50361 10.3792 1.97302 10.2668 1.49076 10.0357C1.27414 9.93835 1.01957 10.0348 0.921815 10.2512C0.88736 10.3236 0.875346 10.4047 0.887319 10.484C0.883734 10.5039 0.882291 10.5241 0.883012 10.5443C0.882641 11.1703 1.0208 11.7887 1.28759 12.3551C1.55437 12.9214 1.94318 13.4217 2.42611 13.8201C2.93357 14.2341 3.52655 14.5305 4.16232 14.6877C4.79809 14.845 5.46083 14.8593 6.10279 14.7296C6.15882 14.7167 6.21484 14.708 6.27518 14.6994C5.8117 14.3374 5.43522 13.8761 5.17341 13.3495C4.9116 12.8229 4.77111 12.2443 4.76227 11.6563C4.76227 11.4182 4.95525 11.2252 5.19332 11.2252C5.43139 11.2252 5.62437 11.4182 5.62437 11.6563C5.62437 13.6477 7.52952 14.6002 8.4476 15.0571C8.45191 15.0614 8.45622 15.0657 8.46052 15.0657C9.09332 15.3901 9.79701 15.5516 10.5079 15.5356C11.2187 15.5504 11.9221 15.389 12.5553 15.0657C13.0739 14.7918 13.6545 14.6567 14.2407 14.6735C14.8282 14.6568 15.4102 14.7919 15.9303 15.0657C16.5633 15.3896 17.2669 15.551 17.9777 15.5356C18.6886 15.551 19.3921 15.3896 20.0251 15.0657C20.551 14.8077 21.129 14.6735 21.7148 14.6735C22.3005 14.6735 22.8785 14.8077 23.4044 15.0657C24.0374 15.3896 24.7409 15.551 25.4518 15.5356C25.5088 15.5353 25.5652 15.5238 25.6178 15.5016C25.6703 15.4794 25.7179 15.447 25.7578 15.4062C25.7983 15.3663 25.8302 15.3186 25.8517 15.266C25.8732 15.2134 25.8838 15.157 25.8828 15.1002C25.8699 13.165 24.9863 9.50123 21.7147 9.50123ZM10.7968 2.17372C11.0348 2.17372 11.2278 2.36669 11.2278 2.60476C11.2278 2.84283 11.0348 3.03581 10.7968 3.03581C10.5587 3.03581 10.3657 2.84283 10.3657 2.60476C10.3664 2.367 10.559 2.1744 10.7968 2.17372ZM9.32697 3.78146C8.96415 4.04446 8.63801 4.35465 8.35716 4.70384C7.90787 5.2396 7.60099 5.88004 7.46492 6.56589C7.4463 6.66422 7.39389 6.75295 7.31675 6.81671C7.23961 6.88047 7.14261 6.91525 7.04253 6.91503C7.01504 6.91429 6.98766 6.91141 6.96062 6.90641C6.72621 6.86227 6.57186 6.63656 6.61579 6.40211C6.78113 5.57933 7.14846 4.81058 7.68473 4.16505C8.01367 3.75639 8.3948 3.39265 8.81836 3.08314C9.01142 2.94305 9.28153 2.98603 9.42163 3.17909C9.56133 3.37173 9.519 3.64102 9.32697 3.78146Z" fill="current"/>
        <path d="M2.17617 9.50126C2.41423 9.50126 2.60721 9.30827 2.60721 9.07021C2.60721 8.83215 2.41423 8.63916 2.17617 8.63916C1.9381 8.63916 1.74512 8.83215 1.74512 9.07021C1.74512 9.30827 1.9381 9.50126 2.17617 9.50126Z" fill="current"/>
        <path d="M17.2621 7.3461C17.5002 7.3461 17.6932 7.15312 17.6932 6.91506C17.6932 6.67699 17.5002 6.48401 17.2621 6.48401C17.024 6.48401 16.8311 6.67699 16.8311 6.91506C16.8311 7.15312 17.024 7.3461 17.2621 7.3461Z" fill="current"/>
        <path d="M18.9862 9.07022C19.2243 9.07022 19.4173 8.87724 19.4173 8.63918C19.4173 8.40112 19.2243 8.20813 18.9862 8.20813C18.7482 8.20813 18.5552 8.40112 18.5552 8.63918C18.5552 8.87724 18.7482 9.07022 18.9862 9.07022Z" fill="current"/>
    </g>
    <defs>
        <clipPath id="clip0_748_3765">
            <rect width="25" height="14.656" fill="current" transform="translate(0.882812 0.880615)"/>
        </clipPath>
    </defs>
</svg>
