<svg width="3" height="15" viewBox="0 0 3 15" fill="none" xmlns="http://www.w3.org/2000/svg">
<g clip-path="url(#clip0_181_537)">
<path d="M0.314603 9.70312C0.322415 10.2148 0.740384 10.625 1.2521 10.625C1.76382 10.625 2.18179 10.2109 2.1896 9.70312L2.5021 1.28125C2.52163 0.960938 2.40445 0.648438 2.17788 0.40625C1.9357 0.148438 1.59976 0 1.2521 0C0.904446 0 0.568509 0.148438 0.326322 0.40625C0.0997591 0.648438 -0.0174285 0.960938 0.00210271 1.28125L0.314603 9.70312Z" fill="current"/>
<path d="M1.25195 15C1.94231 15 2.50195 14.4404 2.50195 13.75C2.50195 13.0596 1.94231 12.5 1.25195 12.5C0.561597 12.5 0.00195312 13.0596 0.00195312 13.75C0.00195312 14.4404 0.561597 15 1.25195 15Z" fill="current"/>
</g>
<defs>
<clipPath id="clip0_181_537">
<rect width="2.50421" height="15" fill="white"/>
</clipPath>
</defs>
</svg>
