<svg width="21" height="20" viewBox="0 0 21 20" fill="#000" xmlns="http://www.w3.org/2000/svg">
    <path d="M10.5 0C4.98333 0 0.5 4.48333 0.5 10C0.5 15.5167 4.98333 20 10.5 20C16.0167 20 20.5 15.5167 20.5 10C20.5 4.48333 16.0167 0 10.5 0ZM14.8083 9.68333L13 11.1583L13.75 13.4333C13.85 13.7417 13.75 14.0833 13.4917 14.275C13.2333 14.475 12.8833 14.4833 12.6083 14.3083L10.5083 12.9417L8.44167 14.325C8.31667 14.4083 8.16667 14.45 8.01667 14.45C7.85833 14.45 7.69167 14.4 7.55833 14.3C7.43178 14.2049 7.33805 14.0727 7.29025 13.9219C7.24244 13.771 7.24294 13.6089 7.29167 13.4583L8.00833 11.1583L6.19167 9.68333C6.07317 9.58245 5.98818 9.4479 5.94799 9.29757C5.9078 9.14723 5.91432 8.98822 5.96667 8.84167C6.075 8.54167 6.36667 8.34167 6.68333 8.34167H8.975L9.78333 6.16667C9.89167 5.86667 10.1833 5.66667 10.5 5.66667C10.8167 5.66667 11.1083 5.86667 11.2167 6.16667L12.025 8.34167H14.3167C14.6333 8.34167 14.925 8.54167 15.0333 8.84167C15.1417 9.14167 15.05 9.48333 14.8083 9.69167V9.68333Z" fill="current"/>
</svg>
