<svg width="22" height="23" viewBox="0 0 22 23" fill="#000" xmlns="http://www.w3.org/2000/svg">
    <path fill-rule="evenodd" clip-rule="evenodd" d="M18.5469 12.6814C19.4898 13.5306 20.0687 14.5572 20.0687 15.6791C20.0687 16.8251 19.4641 17.8728 18.4828 18.7322C16.8547 20.1603 14.2195 21.0642 11.257 21.0642C8.29453 21.0642 5.65937 20.1603 4.03125 18.7322C3.05 17.8728 2.44531 16.8251 2.44531 15.6791C2.44531 14.5572 3.02422 13.5306 3.96719 12.6814C4.11645 12.5416 4.20492 12.3488 4.21361 12.1444C4.2223 11.9401 4.1505 11.7405 4.01365 11.5885C3.87679 11.4365 3.68579 11.3442 3.48166 11.3315C3.27752 11.3188 3.07654 11.3866 2.92187 11.5205C1.62266 12.69 0.882812 14.1337 0.882812 15.6791C0.882812 17.2548 1.65313 18.7259 3.00078 19.9072C4.86484 21.5416 7.86563 22.6267 11.257 22.6267C14.6484 22.6267 17.6492 21.5416 19.5133 19.9072C20.8609 18.7259 21.6312 17.2548 21.6312 15.6791C21.6312 14.1337 20.8914 12.69 19.5922 11.5205C19.4375 11.3866 19.2365 11.3188 19.0324 11.3315C18.8283 11.3442 18.6373 11.4365 18.5004 11.5885C18.3636 11.7405 18.2918 11.9401 18.3005 12.1444C18.3091 12.3488 18.3976 12.5416 18.5469 12.6814ZM15.5797 14.6486C15.8086 14.9619 15.9445 15.3095 15.9445 15.6791C15.9445 16.24 15.6352 16.7462 15.1547 17.1673C14.2773 17.9361 12.8539 18.4134 11.257 18.4134C9.66016 18.4134 8.23672 17.9361 7.35937 17.1673C6.87891 16.7462 6.56953 16.24 6.56953 15.6791C6.56953 15.3634 6.66875 15.0634 6.84063 14.7876C6.89485 14.7005 6.93138 14.6036 6.94814 14.5024C6.9649 14.4012 6.96156 14.2976 6.93831 14.1977C6.91506 14.0978 6.87236 14.0034 6.81263 13.92C6.75291 13.8365 6.67734 13.7657 6.59023 13.7115C6.50313 13.6573 6.4062 13.6207 6.30498 13.604C6.20376 13.5872 6.10022 13.5905 6.00029 13.6138C5.90036 13.637 5.80599 13.6797 5.72256 13.7395C5.63913 13.7992 5.56828 13.8748 5.51406 13.9619C5.18617 14.4748 5.01036 15.0702 5.00703 15.6791C5.00703 16.6697 5.48203 17.5986 6.32891 18.3416C7.44219 19.3181 9.23125 19.9759 11.257 19.9759C13.2828 19.9759 15.0719 19.3181 16.1852 18.3416C17.032 17.5986 17.507 16.6697 17.507 15.6791C17.507 14.9822 17.2734 14.3189 16.8414 13.7267C16.719 13.5596 16.5352 13.4478 16.3305 13.4158C16.1258 13.3839 15.9167 13.4345 15.7492 13.5564C15.582 13.6788 15.4702 13.8626 15.4385 14.0674C15.4067 14.2722 15.4575 14.4812 15.5797 14.6486ZM10.6063 16.9564C10.6775 17.0637 10.7743 17.1518 10.8878 17.2126C11.0013 17.2735 11.1282 17.3054 11.257 17.3054C11.3859 17.3054 11.5127 17.2735 11.6263 17.2126C11.7398 17.1518 11.8365 17.0637 11.9078 16.9564C11.9078 16.9564 14.2578 13.415 15.6687 10.2283C16.3148 8.76812 16.7539 7.37124 16.7539 6.37749C16.7539 3.3439 14.2906 0.880615 11.257 0.880615C8.22344 0.880615 5.76016 3.3439 5.76016 6.37749C5.76016 7.37124 6.19922 8.76812 6.84531 10.2283C8.25625 13.415 10.6063 16.9564 10.6063 16.9564ZM11.257 4.44702C11.8575 4.44723 12.4333 4.6858 12.858 5.11033C13.2827 5.53486 13.5215 6.11061 13.5219 6.71108C13.5219 7.96108 12.507 8.97593 11.257 8.97593C10.007 8.97593 8.99219 7.96108 8.99219 6.71108C8.9926 6.11061 9.23138 5.53486 9.65605 5.11033C10.0807 4.6858 10.6566 4.44723 11.257 4.44702Z" fill="current"/>
</svg>
