<svg width="26" height="26" viewBox="0 0 26 26" fill="none" xmlns="http://www.w3.org/2000/svg">
    <g clip-path="url(#clip0_344_817)">
        <path d="M25.2992 11.3087C25.2984 11.3082 25.2978 11.3074 25.2972 11.3068L14.6913 0.701289C14.2392 0.24893 13.6381 0 12.9988 0C12.3595 0 11.7585 0.24893 11.3062 0.701238L0.705772 11.3014C0.702218 11.3049 0.69846 11.3087 0.695108 11.3123C-0.233274 12.2459 -0.231649 13.7609 0.699679 14.6922C1.12512 15.1179 1.68687 15.3643 2.28776 15.3902C2.31234 15.3926 2.33697 15.3938 2.36175 15.3938H2.78425V23.1987C2.78425 24.7433 4.04109 25.9999 5.58575 25.9999H9.73514C10.1559 25.9999 10.4969 25.6587 10.4969 25.2382V19.1191C10.4969 18.4143 11.0703 17.8411 11.7751 17.8411H14.2225C14.9274 17.8411 15.5006 18.4144 15.5006 19.1191V25.2383C15.5006 25.6588 15.8416 26 16.2623 26H20.4117C21.9566 26 23.2132 24.7434 23.2132 23.1987V15.3938H23.6052C24.2443 15.3938 24.8453 15.1448 25.2978 14.6924C26.2302 13.7597 26.2305 12.242 25.2992 11.3087L25.2992 11.3087ZM24.2205 13.6153C24.1399 13.6964 24.044 13.7607 23.9384 13.8045C23.8328 13.8483 23.7195 13.8707 23.6052 13.8704H22.4514C22.0307 13.8704 21.6897 14.2114 21.6897 14.6322V23.1987C21.6897 23.9033 21.1164 24.4766 20.4116 24.4766H17.024V19.1191C17.024 17.5745 15.7673 16.3176 14.2225 16.3176H11.7752C10.2303 16.3176 8.97347 17.5745 8.97347 19.1191V24.4766H5.58585C4.88121 24.4766 4.30774 23.9032 4.30774 23.1987V14.6321C4.30774 14.2113 3.96674 13.8704 3.54602 13.8704H2.41212C2.40024 13.8695 2.38834 13.869 2.37642 13.8688C2.14948 13.8648 1.93666 13.7748 1.77721 13.6151C1.43799 13.2758 1.43799 12.7239 1.77721 12.3844C1.77736 12.3844 1.77736 12.3842 1.77756 12.384L1.77817 12.3834L12.3837 1.77836C12.4642 1.69726 12.5601 1.63297 12.6657 1.58921C12.7713 1.54545 12.8845 1.52309 12.9988 1.52344C13.2311 1.52344 13.4495 1.61388 13.614 1.77836L24.2171 12.3813L24.2221 12.3861C24.5595 12.7259 24.5589 13.2768 24.2205 13.6153Z" fill="current"/>
    </g>
    <defs>
        <clipPath id="clip0_344_817">
            <rect width="25.9974" height="26" fill="current"/>
        </clipPath>
    </defs>
</svg>
