<svg width="18" height="23" viewBox="0 0 18 23" fill="none" xmlns="http://www.w3.org/2000/svg">
<g clip-path="url(#clip0_164_307)">
<path d="M8.7373 11.5C9.87455 11.5 10.9863 11.1628 11.9318 10.531C12.8774 9.89913 13.6144 9.00111 14.0496 7.95043C14.4848 6.89976 14.5987 5.74362 14.3768 4.62823C14.155 3.51284 13.6073 2.48829 12.8032 1.68414C11.999 0.879987 10.9745 0.332352 9.85907 0.110487C8.74368 -0.111378 7.58755 0.00249139 6.53687 0.437695C5.4862 0.872899 4.58817 1.60989 3.95635 2.55547C3.32454 3.50106 2.9873 4.61276 2.9873 5.75C2.98883 7.27453 3.59512 8.73618 4.67312 9.81419C5.75113 10.8922 7.21278 11.4985 8.7373 11.5ZM8.7373 1.91667C9.49547 1.91667 10.2366 2.14149 10.867 2.5627C11.4974 2.98391 11.9887 3.5826 12.2788 4.28305C12.569 4.9835 12.6449 5.75425 12.497 6.49785C12.3491 7.24144 11.984 7.92448 11.4479 8.46058C10.9118 8.99668 10.2287 9.36177 9.48515 9.50968C8.74156 9.65759 7.9708 9.58168 7.27035 9.29154C6.5699 9.00141 5.97122 8.51008 5.55 7.87969C5.12879 7.2493 4.90397 6.50816 4.90397 5.75C4.90397 4.73334 5.30784 3.75832 6.02673 3.03943C6.74562 2.32054 7.72064 1.91667 8.7373 1.91667ZM8.7373 13.4167C6.45059 13.4192 4.25826 14.3287 2.64131 15.9457C1.02436 17.5626 0.114841 19.755 0.112305 22.0417C0.112305 22.2958 0.213272 22.5396 0.392994 22.7193C0.572716 22.899 0.816472 23 1.07064 23C1.3248 23 1.56856 22.899 1.74828 22.7193C1.928 22.5396 2.02897 22.2958 2.02897 22.0417C2.02897 20.2625 2.73574 18.5562 3.9938 17.2982C5.25185 16.0401 6.95814 15.3333 8.7373 15.3333C10.5165 15.3333 12.2228 16.0401 13.4808 17.2982C14.7389 18.5562 15.4456 20.2625 15.4456 22.0417C15.4456 22.2958 15.5466 22.5396 15.7263 22.7193C15.906 22.899 16.1498 23 16.404 23C16.6581 23 16.9019 22.899 17.0816 22.7193C17.2613 22.5396 17.3623 22.2958 17.3623 22.0417C17.3598 19.755 16.4503 17.5626 14.8333 15.9457C13.2163 14.3287 11.024 13.4192 8.7373 13.4167Z" fill="current"/>
</g>
<defs>
<clipPath id="clip0_164_307">
<rect width="17.25" height="23" fill="white" transform="translate(0.112305)"/>
</clipPath>
</defs>
</svg>
