<svg width="23" height="30" viewBox="0 0 23 30" fill="none" xmlns="http://www.w3.org/2000/svg">
<g clip-path="url(#clip0_165_1493)">
<path d="M17.3453 7.33239C13.9624 2.72599 12.492 1.23198 11.4182 0C10.3192 1.25752 8.85937 2.74838 5.49117 7.33239C1.92204 12.2953 0.112305 16.118 0.112305 18.6941C0.112305 24.9282 5.18412 30 11.4182 30C17.6523 30 22.7241 24.9282 22.7241 18.6941C22.7241 16.118 20.9144 12.2953 17.3453 7.33239ZM11.4182 28.2421C6.15336 28.2421 1.87018 23.9589 1.87018 18.6941C1.87018 16.5269 3.6127 12.9574 6.90936 8.37117C8.68798 5.89685 10.4852 3.74087 11.4183 2.65345C12.3513 3.74087 14.1485 5.89691 15.9271 8.37117C19.2238 12.9574 20.9663 16.5269 20.9663 18.6941C20.9662 23.9589 16.683 28.2421 11.4182 28.2421Z" fill="current"/>
<path d="M15.183 18.3541C13.725 18.3541 12.5388 19.5402 12.5388 20.9982C12.5388 22.4562 13.725 23.6423 15.183 23.6423C16.641 23.6423 17.8271 22.4562 17.8271 20.9982C17.8271 19.5402 16.641 18.3541 15.183 18.3541ZM15.183 21.8844C14.6943 21.8844 14.2967 21.4869 14.2967 20.9982C14.2967 20.5095 14.6943 20.1119 15.183 20.1119C15.6717 20.1119 16.0692 20.5095 16.0692 20.9982C16.0692 21.4869 15.6717 21.8844 15.183 21.8844ZM10.2975 16.0615C10.2975 14.6035 9.11139 13.4174 7.65341 13.4174C6.19543 13.4174 5.00928 14.6035 5.00928 16.0615C5.00928 17.5195 6.19543 18.7056 7.65341 18.7056C9.11139 18.7056 10.2975 17.5195 10.2975 16.0615ZM7.65341 16.9478C7.16472 16.9478 6.76715 16.5502 6.76715 16.0615C6.76715 15.5728 7.16472 15.1752 7.65341 15.1752C8.1421 15.1752 8.53967 15.5728 8.53967 16.0615C8.53967 16.5502 8.1421 16.9478 7.65341 16.9478ZM8.3033 22.893L12.974 13.3821L14.5525 14.1573L9.88187 23.6682L8.3033 22.893Z" fill="current"/>
</g>
<defs>
<clipPath id="clip0_165_1493">
<rect width="22.6118" height="30" fill="white" transform="translate(0.112305)"/>
</clipPath>
</defs>
</svg>
