<svg width="20" height="20" viewBox="0 0 20 20" fill="#000" xmlns="http://www.w3.org/2000/svg">
    <path d="M10 0C4.49 0 0 4.49 0 10C0 15.51 4.49 20 10 20C15.51 20 20 15.51 20 10C20 4.49 15.51 0 10 0ZM10.816 13.571C10.816 13.98 10.51 14.388 10 14.388C9.49 14.388 9.184 14.082 9.184 13.571V9.49C9.184 9.082 9.49 8.674 10 8.674C10.51 8.674 10.816 8.98 10.816 9.49V13.571ZM10 7.45C9.49 7.45 8.98 6.94 8.98 6.43C8.98 5.92 9.49 5.41 10 5.41C10.51 5.41 11.02 5.92 11.02 6.43C11.02 6.94 10.51 7.45 10 7.45Z" fill="current"/>
</svg>
