<svg width="20" height="20" viewBox="0 0 20 20" fill="none" xmlns="http://www.w3.org/2000/svg">
<g clip-path="url(#clip0_195_704)">
<path d="M10.6976 9.06974C10.6976 8.88471 10.6241 8.70725 10.4933 8.57641C10.3624 8.44558 10.185 8.37207 9.99992 8.37207C9.81489 8.37207 9.63743 8.44558 9.50659 8.57641C9.37575 8.70725 9.30225 8.88471 9.30225 9.06974V14.6511C9.30225 14.8362 9.37575 15.0136 9.50659 15.1445C9.63743 15.2753 9.81489 15.3488 9.99992 15.3488C10.185 15.3488 10.3624 15.2753 10.4933 15.1445C10.6241 15.0136 10.6976 14.8362 10.6976 14.6511V9.06974Z" fill="current"/>
<path fill-rule="evenodd" clip-rule="evenodd" d="M10 0C4.47721 0 0 4.47721 0 10C0 15.5228 4.47721 20 10 20C15.5228 20 20 15.5228 20 10C20 4.47721 15.5228 0 10 0ZM1.39535 10C1.39535 7.71791 2.30191 5.52928 3.91559 3.91559C5.52928 2.30191 7.71791 1.39535 10 1.39535C12.2821 1.39535 14.4707 2.30191 16.0844 3.91559C17.6981 5.52928 18.6047 7.71791 18.6047 10C18.6047 12.2821 17.6981 14.4707 16.0844 16.0844C14.4707 17.6981 12.2821 18.6047 10 18.6047C7.71791 18.6047 5.52928 17.6981 3.91559 16.0844C2.30191 14.4707 1.39535 12.2821 1.39535 10Z" fill="current"/>
<path d="M10.9303 6.27905C10.9303 6.52576 10.8323 6.76237 10.6578 6.93682C10.4834 7.11127 10.2468 7.20928 10.0001 7.20928C9.75334 7.20928 9.51674 7.11127 9.34228 6.93682C9.16783 6.76237 9.06982 6.52576 9.06982 6.27905C9.06982 6.03234 9.16783 5.79573 9.34228 5.62127C9.51674 5.44682 9.75334 5.34882 10.0001 5.34882C10.2468 5.34882 10.4834 5.44682 10.6578 5.62127C10.8323 5.79573 10.9303 6.03234 10.9303 6.27905Z" fill="current"/>
</g>
<defs>
<clipPath id="clip0_195_704">
<rect width="20" height="20" fill="white"/>
</clipPath>
</defs>
</svg>
