<svg width="26" height="25" viewBox="0 0 26 25" fill="#000" xmlns="http://www.w3.org/2000/svg">
    <g clip-path="url(#clip0_506_1846)">
        <path d="M13.0253 15.4325C11.8915 15.4326 10.7581 15.1553 9.72451 14.601L2.27179 10.6034C1.19108 10.0238 0.522027 8.90288 0.525539 7.67813C0.529098 6.45339 1.20466 5.33639 2.2887 4.76295L9.76019 0.810936C10.7661 0.278324 11.8871 -0.00012207 13.0253 -0.00012207C14.1635 -0.00012207 15.2845 0.278324 16.2904 0.810936L23.7619 4.76295C24.8459 5.33634 25.5215 6.45334 25.5251 7.67813C25.5286 8.90288 24.8595 10.0238 23.7789 10.6034L16.3261 14.601C15.2928 15.1553 14.1589 15.4324 13.0253 15.4325ZM13.0253 1.95317C12.2054 1.95321 11.398 2.15379 10.6734 2.53743L3.202 6.48949C2.75059 6.72826 2.48017 7.17479 2.47872 7.68385C2.47727 8.1929 2.74502 8.64098 3.19507 8.88237L10.6478 12.8799C12.1367 13.6785 13.9142 13.6785 15.403 12.8799L22.8558 8.88237C23.3059 8.64098 23.5736 8.19294 23.5722 7.68385C23.5707 7.17475 23.3003 6.72826 22.8489 6.48949L15.3772 2.53743C14.6526 2.15381 13.8452 1.95323 13.0253 1.95317ZM16.3261 23.4388L25.0102 18.7809C25.4855 18.526 25.6641 17.934 25.4092 17.4588C25.1543 16.9835 24.5623 16.8048 24.087 17.0598L15.4029 21.7176C13.9142 22.5162 12.1366 22.5162 10.644 21.7156L1.95993 17.1066C1.48342 16.8537 0.892331 17.035 0.639561 17.5114C0.386698 17.9878 0.567917 18.5789 1.04433 18.8317L9.72455 23.4387C10.7581 23.9931 11.8915 24.2702 13.0254 24.2702C14.1589 24.2703 15.2928 23.993 16.3261 23.4388ZM16.3261 19.0443L25.0102 14.3865C25.4855 14.1316 25.6641 13.5396 25.4092 13.0643C25.1543 12.589 24.5623 12.4105 24.087 12.6653L15.4029 17.3232C13.9142 18.1218 12.1366 18.1217 10.644 17.3212L1.95993 12.7122C1.48342 12.4593 0.892331 12.6406 0.639561 13.1169C0.386698 13.5933 0.567917 14.1844 1.04433 14.4373L9.72455 19.0443C10.7581 19.5987 11.8915 19.8758 13.0254 19.8758C14.1589 19.8758 15.2928 19.5986 16.3261 19.0443Z" fill="current"/>
    </g>
    <defs>
        <clipPath id="clip0_506_1846">
            <rect width="24.9999" height="24.2703" fill="current" transform="translate(0.525391 -0.00012207)"/>
        </clipPath>
    </defs>
</svg>
