<svg width="22" height="28" viewBox="0 0 22 28" fill="#fff" xmlns="http://www.w3.org/2000/svg">
    <path d="M18.6978 10.7664H17.854V7.39136C17.854 3.66863 14.8267 0.641357 11.104 0.641357C7.38127 0.641357 4.354 3.66863 4.354 7.39136V10.7664H3.51025C2.11527 10.7664 0.979004 11.9014 0.979004 13.2976V25.1101C0.979004 26.5064 2.11527 27.6414 3.51025 27.6414H18.6978C20.0927 27.6414 21.229 26.5064 21.229 25.1101V13.2976C21.229 11.9014 20.0927 10.7664 18.6978 10.7664ZM6.60407 7.39136C6.60407 4.90952 8.62222 2.89143 11.104 2.89143C13.5858 2.89143 15.6039 4.90957 15.6039 7.39136V10.7664H6.60407V7.39136Z" fill="current"/>
</svg>
