<svg width="19" height="24" viewBox="0 0 19 24" fill="none" xmlns="http://www.w3.org/2000/svg">
<path d="M9.5 24L8.84101 23.4025C7.93252 22.5978 0 15.3506 0 10.0495C0 4.49935 4.25331 0 9.5 0C14.7467 0 19 4.49935 19 10.0495C19 15.3507 11.0675 22.5978 10.1628 23.4064L9.5 24ZM9.5 2.17301C5.38974 2.17793 2.05887 5.70147 2.05422 10.0495C2.05422 13.3798 6.93462 18.6998 9.5 21.1348C12.0654 18.6988 16.9458 13.3757 16.9458 10.0495C16.9411 5.70147 13.6103 2.17797 9.5 2.17301Z" fill="current"/>
<path d="M9.50009 14.0331C7.42035 14.0331 5.73438 12.2496 5.73438 10.0495C5.73438 7.84948 7.42035 6.06598 9.50009 6.06598C11.5798 6.06598 13.2658 7.84948 13.2658 10.0495C13.2658 12.2496 11.5799 14.0331 9.50009 14.0331ZM9.50009 8.05771C8.46022 8.05771 7.61723 8.94946 7.61723 10.0495C7.61723 11.1495 8.46022 12.0413 9.50009 12.0413C10.54 12.0413 11.383 11.1495 11.383 10.0495C11.383 8.94946 10.54 8.05771 9.50009 8.05771Z" fill="current"/>
</svg>
