<svg width="26" height="27" viewBox="0 0 26 27" fill="#000" xmlns="http://www.w3.org/2000/svg">
    <circle cx="13" cy="13.8806" r="13" fill="current"/>
    <path d="M14.6222 10.2891C14.6222 9.03099 15.6461 8.00708 16.9047 8.00708C18.1628 8.00708 19.1868 9.03073 19.1868 10.2891C19.1868 10.463 19.1177 10.6298 18.9947 10.7527C18.8718 10.8757 18.705 10.9448 18.5311 10.9448C18.3572 10.9448 18.1904 10.8757 18.0674 10.7527C17.9445 10.6298 17.8754 10.463 17.8754 10.2891C17.8751 10.0318 17.7728 9.78503 17.5908 9.60305C17.4088 9.42108 17.1621 9.31872 16.9047 9.31844C16.6473 9.31865 16.4005 9.42097 16.2184 9.60294C16.0363 9.78492 15.9339 10.0317 15.9335 10.2891C15.9335 10.463 15.8645 10.6298 15.7415 10.7527C15.6185 10.8757 15.4518 10.9448 15.2779 10.9448C15.104 10.9448 14.9372 10.8757 14.8142 10.7527C14.6913 10.6298 14.6222 10.463 14.6222 10.2891ZM7.3512 10.282C7.3512 9.02391 8.37512 8 9.63376 8C10.8919 8 11.9158 9.02365 11.9158 10.282C11.9158 10.4559 11.8467 10.6227 11.7237 10.7457C11.6008 10.8686 11.434 10.9377 11.2601 10.9377C11.0862 10.9377 10.9194 10.8686 10.7965 10.7457C10.6735 10.6227 10.6044 10.4559 10.6044 10.282C10.6042 10.0247 10.5018 9.77795 10.3198 9.59597C10.1378 9.41399 9.89111 9.31164 9.63376 9.31136C9.37634 9.31157 9.12951 9.41389 8.94744 9.59586C8.76536 9.77784 8.66291 10.0246 8.66257 10.282C8.66257 10.4559 8.59348 10.6227 8.47052 10.7457C8.34756 10.8686 8.18078 10.9377 8.00688 10.9377C7.83299 10.9377 7.66621 10.8686 7.54325 10.7457C7.42029 10.6227 7.3512 10.4559 7.3512 10.282ZM7.06034 16.1441C7.01061 16.0245 6.99115 15.8946 7.0037 15.7657C7.01626 15.6368 7.06043 15.513 7.1323 15.4053C7.20417 15.2976 7.30151 15.2094 7.41569 15.1483C7.52987 15.0873 7.65736 15.0553 7.78684 15.0554C8.09527 15.0554 8.38797 15.2379 8.51359 15.5408C9.24192 17.2941 11.0458 18.4269 13.1094 18.4269C15.1263 18.4269 16.9197 17.2936 17.6784 15.539C17.718 15.4421 17.7765 15.3541 17.8506 15.2801C17.9246 15.2061 18.0127 15.1476 18.1096 15.1081C18.2065 15.0685 18.3103 15.0487 18.415 15.0498C18.5196 15.0509 18.623 15.0729 18.7191 15.1144C18.8152 15.156 18.902 15.2163 18.9745 15.2918C19.0469 15.3673 19.1036 15.4565 19.1412 15.5542C19.1788 15.6519 19.1965 15.7561 19.1932 15.8607C19.19 15.9653 19.166 16.0683 19.1225 16.1635C18.1151 18.494 15.7547 20 13.1094 20C10.4077 20.0003 8.03337 18.4867 7.06034 16.1441Z" fill="white"/>
</svg>
