<svg width="26" height="26" viewBox="0 0 26 26" fill="#000" xmlns="http://www.w3.org/2000/svg">
    <circle cx="13" cy="13" r="13" fill="current"/>
    <path d="M11.5884 11.1332C12.2858 9.15314 13.2262 7.29451 14.0911 6.65226C11.6022 6.30538 9.18116 7.91871 8.55566 10.2775C8.85378 10.1634 9.17214 10.1045 9.4905 10.1045C10.3186 10.1045 11.0915 10.491 11.5884 11.1332Z" fill="white"/>
    <path d="M14.9133 12.0128C15.5372 8.93228 15.3421 6.95035 14.7679 6.79025C14.2048 6.63383 12.9921 8.2698 11.9561 11.1958C13.0076 10.8165 14.1967 11.1323 14.9133 12.0128Z" fill="white"/>
    <path d="M17.9284 9.38314C17.38 8.30476 16.5041 7.48217 15.4202 7.02028C15.8306 8.01768 15.6797 10.0935 15.2601 12.149C15.5656 12.0312 15.8913 11.9687 16.2188 11.9687C17.0359 11.9687 17.8051 12.3478 18.3038 12.9771C18.6388 11.8141 18.5081 10.5241 17.9284 9.38314ZM12.4905 15.7025L13.6444 11.5454C13.5303 11.5013 13.4088 11.4718 13.2892 11.446L12.1133 15.697C12.1322 15.6972 12.2695 15.6957 12.4905 15.7025ZM15.0393 6.51237L15.0429 6.49213H15.0448L15.1147 6.23265C15.1212 6.20945 15.1231 6.1852 15.1203 6.16126C15.1174 6.13733 15.1099 6.11419 15.0981 6.09317C15.0863 6.07215 15.0705 6.05366 15.0516 6.03876C15.0326 6.02385 15.0109 6.01282 14.9877 6.0063C14.8902 5.98054 14.7871 6.03575 14.7614 6.13512L14.6841 6.413C14.8175 6.413 14.9333 6.44667 15.0393 6.51237Z" fill="white"/>
    <path d="M8 17.5925C8 17.6955 8.08281 17.7765 8.18402 17.7765H16.1191C16.2222 17.7765 16.3031 17.6955 16.3031 17.5925C16.3031 17.5777 16.3031 17.5649 16.2995 17.5501C16.174 15.5537 8 15.5978 8 17.5925Z" fill="white"/>
</svg>
