<svg width="14" height="19" viewBox="0 0 14 19" fill="#fff" xmlns="http://www.w3.org/2000/svg">
    <path d="M11.1197 2.68212L11.2358 2.79579C12.2851 3.86942 12.8923 5.30126 12.932 6.80587C12.9731 8.36029 12.4053 9.86913 11.35 11.0108C9.5316 12.894 8.04768 15.073 6.96167 17.4543C5.83924 15.0731 4.34776 12.883 2.54146 10.9651C2.01723 10.3889 1.61183 9.71481 1.34852 8.98158C1.08438 8.24608 0.968434 7.46559 1.00735 6.68508C1.08425 5.18649 1.72064 3.77129 2.79071 2.71931C3.86094 1.66717 5.28704 1.05497 6.78696 1.00378L6.78841 1.00373C7.58643 0.975332 8.3819 1.10947 9.12648 1.398C9.87107 1.68652 10.5492 2.12341 11.1197 2.68212ZM5.00456 9.90489C5.5856 10.2931 6.26873 10.5004 6.96754 10.5004C7.90463 10.5004 8.80333 10.1281 9.46595 9.46549C10.1286 8.80287 10.5008 7.90416 10.5008 6.96708C10.5008 6.26826 10.2936 5.58514 9.90536 5.00409C9.51712 4.42305 8.96529 3.97018 8.31967 3.70275C7.67405 3.43533 6.96363 3.36536 6.27824 3.50169C5.59285 3.63802 4.96328 3.97453 4.46914 4.46867C3.975 4.96281 3.63849 5.59238 3.50215 6.27777C3.36582 6.96316 3.43579 7.67359 3.70322 8.31921C3.97064 8.96483 4.42352 9.51665 5.00456 9.90489Z" fill="current" stroke="current" stroke-width="2"/>
    <circle cx="7" cy="7" r="3" fill="#fff"/>
</svg>
