<svg width="26" height="29" viewBox="0 0 26 29" fill="#000" xmlns="http://www.w3.org/2000/svg">
    <path d="M15.7172 25.3022C14.0455 25.8077 13.1699 26.9212 13.0917 28.643C13.0885 28.7129 13.0584 28.7788 13.0078 28.8271C12.9572 28.8754 12.8899 28.9023 12.8199 28.9022H12.808C12.738 28.9023 12.6707 28.8754 12.6201 28.8271C12.5695 28.7788 12.5395 28.7129 12.5362 28.643C12.458 26.9212 11.5824 25.8077 9.9107 25.3022C4.40636 23.9935 0.313965 19.0452 0.313965 13.1414C0.313965 6.23755 5.91016 0.641357 12.814 0.641357C19.7178 0.641357 25.314 6.23755 25.314 13.1414C25.314 19.0452 21.221 23.9935 15.7172 25.3022Z" fill="current"/>
    <path d="M11.5879 11.1332C12.2853 9.15315 13.2257 7.29451 14.0906 6.65226C11.6017 6.30538 9.18067 7.91871 8.55518 10.2775C8.85329 10.1634 9.17165 10.1045 9.49002 10.1045C10.3181 10.1045 11.091 10.491 11.5879 11.1332Z" fill="white"/>
    <path d="M14.9138 12.0128C15.5376 8.93222 15.3426 6.95029 14.7684 6.79019C14.2053 6.63377 12.9926 8.26974 11.9565 11.1957C13.0081 10.8164 14.1972 11.1322 14.9138 12.0128Z" fill="white"/>
    <path d="M17.9284 9.38314C17.38 8.30476 16.5041 7.48217 15.4202 7.02028C15.8306 8.01768 15.6797 10.0935 15.2601 12.149C15.5656 12.0312 15.8913 11.9687 16.2188 11.9687C17.0359 11.9687 17.8051 12.3478 18.3038 12.9771C18.6388 11.8141 18.5081 10.5241 17.9284 9.38314ZM12.4905 15.7025L13.6444 11.5454C13.5303 11.5013 13.4088 11.4718 13.2892 11.446L12.1133 15.697C12.1322 15.6972 12.2695 15.6957 12.4905 15.7025ZM15.0393 6.51237L15.0429 6.49213H15.0448L15.1147 6.23265C15.1212 6.20945 15.1231 6.1852 15.1203 6.16126C15.1174 6.13733 15.1099 6.11419 15.0981 6.09317C15.0863 6.07215 15.0705 6.05366 15.0516 6.03876C15.0326 6.02385 15.0109 6.01282 14.9877 6.0063C14.8902 5.98054 14.7871 6.03575 14.7614 6.13512L14.6841 6.413C14.8175 6.413 14.9333 6.44667 15.0393 6.51237Z" fill="white"/>
    <path d="M8 17.5925C8 17.6955 8.08281 17.7765 8.18402 17.7765H16.1191C16.2222 17.7765 16.3031 17.6955 16.3031 17.5925C16.3031 17.5777 16.3031 17.5649 16.2995 17.5501C16.174 15.5537 8 15.5978 8 17.5925Z" fill="white"/>
</svg>
