<svg width="26" height="27" viewBox="0 0 26 27" fill="#000" xmlns="http://www.w3.org/2000/svg">
    <circle cx="13" cy="13.8806" r="13" fill="current"/>
    <g clip-path="url(#clip0_698_3518)">
        <path d="M18.9357 17.9156C18.9761 18.0012 18.9977 18.0932 18.9993 18.1864C19.0009 18.2797 18.9825 18.3723 18.945 18.4589C18.9076 18.5456 18.8518 18.6247 18.781 18.6916C18.7102 18.7585 18.6257 18.812 18.5324 18.849C18.439 18.8861 18.3386 18.906 18.2369 18.9075C18.1351 18.909 18.0341 18.8921 17.9395 18.8577C17.8449 18.8234 17.7586 18.7723 17.6856 18.7073C17.6126 18.6424 17.5542 18.5649 17.5139 18.4793C16.7668 16.8959 15.0013 15.8726 13.0153 15.8726C10.9835 15.8726 9.20713 16.8952 8.49028 18.4774C8.41136 18.6513 8.26038 18.7894 8.07049 18.8613C7.8806 18.9332 7.66732 18.9332 7.47749 18.8611C7.28778 18.7887 7.13716 18.6503 7.05872 18.4762C6.98027 18.3022 6.98043 18.1067 7.05916 17.9327C8.0172 15.8184 10.3552 14.4523 13.015 14.4523C15.6193 14.4528 17.9433 15.812 18.9357 17.9156ZM7.63114 9.55262C7.62508 9.3564 7.66201 9.16105 7.73974 8.97814C7.81748 8.79523 7.93444 8.62847 8.08371 8.48772C8.23298 8.34697 8.41153 8.23509 8.60879 8.1587C8.80606 8.0823 9.01803 8.04295 9.23218 8.04297C9.44632 8.04298 9.65829 8.08237 9.85554 8.15879C10.0528 8.23521 10.2313 8.34712 10.3806 8.48789C10.5298 8.62866 10.6467 8.79544 10.7244 8.97836C10.8022 9.16128 10.839 9.35663 10.8329 9.55285C10.8211 9.93484 10.6473 10.2975 10.3483 10.5639C10.0494 10.8303 9.64893 10.9793 9.23204 10.9793C8.81516 10.9793 8.41471 10.8303 8.11577 10.5639C7.81683 10.2975 7.64298 9.93461 7.63114 9.55262ZM14.8918 9.55262C14.8892 9.35827 14.9286 9.16537 15.0079 8.98511C15.0872 8.80485 15.2047 8.64082 15.3537 8.50253C15.5027 8.36424 15.6801 8.25444 15.8758 8.1795C16.0714 8.10457 16.2813 8.06599 16.4934 8.06601C16.7054 8.06602 16.9153 8.10463 17.1109 8.17959C17.3066 8.25456 17.484 8.36438 17.633 8.5027C17.7819 8.64101 17.8994 8.80506 17.9787 8.98533C18.058 9.16561 18.0974 9.35851 18.0947 9.55285C18.0893 9.93895 17.9182 10.3076 17.6184 10.5788C17.3186 10.8501 16.9144 11.0022 16.4931 11.0022C16.0719 11.0022 15.6676 10.85 15.3679 10.5787C15.0682 10.3074 14.8971 9.93872 14.8918 9.55262Z" fill="white"/>
    </g>
    <defs>
        <clipPath id="clip0_698_3518">
            <rect width="12" height="11" fill="white" transform="translate(7 8)"/>
        </clipPath>
    </defs>
</svg>
