<svg width="5" height="5" viewBox="0 0 5 5" fill="#000" xmlns="http://www.w3.org/2000/svg">
    <path d="M2.81405 4.88054C2.23749 4.88054 1.68455 4.65151 1.27686 4.24382C0.869174 3.83613 0.640137 3.28319 0.640137 2.70663C0.640137 2.13007 0.869174 1.57713 1.27686 1.16944C1.68455 0.761752 2.23749 0.532715 2.81405 0.532715C3.39061 0.532715 3.94355 0.761752 4.35124 1.16944C4.75893 1.57713 4.98796 2.13007 4.98796 2.70663C4.98796 3.28319 4.75893 3.83613 4.35124 4.24382C3.94355 4.65151 3.39061 4.88054 2.81405 4.88054Z" fill="white"/>
    <path fill-rule="evenodd" clip-rule="evenodd" d="M2.81401 3.79354C3.10229 3.79354 3.37876 3.67902 3.5826 3.47518C3.78645 3.27134 3.90096 2.99486 3.90096 2.70659C3.90096 2.41831 3.78645 2.14183 3.5826 1.93799C3.37876 1.73415 3.10229 1.61963 2.81401 1.61963C2.52573 1.61963 2.24926 1.73415 2.04541 1.93799C1.84157 2.14183 1.72705 2.41831 1.72705 2.70659C1.72705 2.99486 1.84157 3.27134 2.04541 3.47518C2.24926 3.67902 2.52573 3.79354 2.81401 3.79354Z" fill="current"/>
</svg>
