<svg width="27" height="22" viewBox="0 0 27 22" fill="none" xmlns="http://www.w3.org/2000/svg">
<g clip-path="url(#clip0_241_710)">
<path d="M1.63625 21.98C1.203 21.9777 0.788146 21.8046 0.481786 21.4982C0.175427 21.1919 0.00229847 20.777 0 20.3438V6.88625C0.00230987 5.98887 0.359816 5.12891 0.994361 4.49436C1.62891 3.85982 2.48887 3.50231 3.38625 3.5H19.355C20.2539 3.5 21.1161 3.85648 21.7525 4.49128C22.389 5.12607 22.7477 5.98736 22.75 6.88625V15.855C22.75 16.7539 22.3935 17.6161 21.7587 18.2525C21.1239 18.889 20.2626 19.2477 19.3637 19.25H6.04625C5.89499 19.2512 5.74799 19.3002 5.62625 19.39L2.625 21.6562C2.33883 21.8677 1.99208 21.9813 1.63625 21.98ZM3.38625 5.25C2.953 5.2523 2.53815 5.42543 2.23179 5.73179C1.92543 6.03815 1.7523 6.453 1.75 6.88625V20.125L4.57625 17.99C5.0015 17.6742 5.51655 17.5025 6.04625 17.5H19.355C19.7913 17.5 20.2097 17.3267 20.5182 17.0182C20.8267 16.7097 21 16.2913 21 15.855V6.88625C20.9977 6.453 20.8246 6.03815 20.5182 5.73179C20.2119 5.42543 19.797 5.2523 19.3637 5.25H3.38625Z" fill="current"/>
<path d="M14.8223 12.3287C15.3055 12.3287 15.6973 11.937 15.6973 11.4537C15.6973 10.9705 15.3055 10.5787 14.8223 10.5787C14.339 10.5787 13.9473 10.9705 13.9473 11.4537C13.9473 11.937 14.339 12.3287 14.8223 12.3287Z" fill="current"/>
<path d="M11.4277 12.3287C11.911 12.3287 12.3027 11.937 12.3027 11.4537C12.3027 10.9705 11.911 10.5787 11.4277 10.5787C10.9445 10.5787 10.5527 10.9705 10.5527 11.4537C10.5527 11.937 10.9445 12.3287 11.4277 12.3287Z" fill="current"/>
<path d="M7.92773 12.3287C8.41098 12.3287 8.80273 11.937 8.80273 11.4537C8.80273 10.9705 8.41098 10.5787 7.92773 10.5787C7.44449 10.5787 7.05273 10.9705 7.05273 11.4537C7.05273 11.937 7.44449 12.3287 7.92773 12.3287Z" fill="current"/>
<path d="M25.375 13.125C25.1429 13.125 24.9204 13.0328 24.7563 12.8687C24.5922 12.7046 24.5 12.4821 24.5 12.25V3.38625C24.4977 2.953 24.3246 2.53815 24.0182 2.23179C23.7119 1.92543 23.297 1.7523 22.8637 1.75H5.25C5.01794 1.75 4.79538 1.65781 4.63128 1.49372C4.46719 1.32962 4.375 1.10706 4.375 0.875C4.375 0.642936 4.46719 0.420376 4.63128 0.256282C4.79538 0.0921872 5.01794 0 5.25 0H22.8637C23.7611 0.00230987 24.6211 0.359816 25.2556 0.994361C25.8902 1.62891 26.2477 2.48887 26.25 3.38625V12.25C26.25 12.4821 26.1578 12.7046 25.9937 12.8687C25.8296 13.0328 25.6071 13.125 25.375 13.125Z" fill="current"/>
</g>
<defs>
<clipPath id="clip0_241_710">
<rect width="26.25" height="21.98" fill="white"/>
</clipPath>
</defs>
</svg>
