<svg width="14" height="14" viewBox="0 0 14 14" fill="#fff" xmlns="http://www.w3.org/2000/svg">
    <path d="M7.75624 4.88312C8.67972 5.66817 9.85757 6.42312 11.0465 6.66667C10.5438 5.49727 9.66104 4.35614 8.75685 3.44693L7.75624 4.88312ZM8.03519 2.76727C7.16217 1.99832 5.67183 0.816514 4.51221 0.6604C5.00723 1.78119 5.76058 2.85417 6.59979 3.76629L8.03519 2.76727Z" fill="current"/>
    <path d="M6.79071 3.97054C7.03202 4.22436 7.28371 4.46812 7.54513 4.70118L9.06347 2.5222C9.14007 2.58401 9.23517 2.62337 9.34056 2.62337C9.58886 2.62337 9.79068 2.41997 9.79068 2.17035C9.79068 1.92205 9.58886 1.71997 9.34056 1.71997C9.09226 1.71997 8.89019 1.92205 8.89019 2.17035C8.89019 2.27073 8.92664 2.36529 8.98581 2.44242L6.79071 3.97054ZM8.48445 11.9347C7.18483 12.6875 5.0452 12.7065 3.71547 11.9389C3.35886 11.7329 3.11136 11.5002 2.95419 11.2799L2.95313 11.5712C2.95181 12.0303 3.27011 12.4672 3.84939 12.8014C5.91558 13.9951 9.21852 13.032 9.22222 11.5865L9.22354 11.2946C9.21641 11.3044 9.20743 11.3137 9.20003 11.3232C9.02913 11.5493 8.7906 11.7569 8.48445 11.9347Z" fill="current"/>
    <path d="M8.32986 9.25849C7.98145 9.05642 7.57069 8.90849 7.10631 8.81762L7.10499 9.03845C7.20854 9.07781 7.3068 9.12113 7.39292 9.17159C7.76801 9.38793 7.97537 9.68483 7.9759 10.0071L7.97643 10.0103L7.97431 10.6809C7.97352 10.9995 7.76907 11.2935 7.39873 11.5085C6.67813 11.9275 5.50846 11.9259 4.79103 11.5114C4.41356 11.2935 4.20647 10.995 4.20726 10.6714L4.20963 10.0084L4.20911 10.0037C4.20911 9.68245 4.41409 9.3866 4.78654 9.17106C4.87537 9.12089 4.96792 9.07761 5.06337 9.04162L5.06443 8.81445C4.60163 8.90321 4.18137 9.05351 3.84062 9.25242C3.2719 9.58366 2.95835 10.0153 2.95703 10.468L2.9573 10.4694C2.95597 10.9995 3.38918 11.4309 3.85356 11.6987C5.10431 12.4209 7.12824 12.4022 8.34465 11.695C8.82409 11.4166 9.11941 11.0663 9.20129 10.6928C9.20394 10.6796 9.20922 10.6664 9.2116 10.6532C9.21503 10.6329 9.21477 10.612 9.21714 10.5914C9.22111 10.5552 9.22639 10.5193 9.22639 10.4831C9.2256 10.0266 8.90729 9.59211 8.32986 9.25849Z" fill="current"/>
    <path d="M4.4834 10.6078V10.6722C4.48261 10.8928 4.64084 11.1062 4.92876 11.2724C5.57276 11.6443 6.61853 11.6432 7.25989 11.2703C7.54201 11.1062 7.69759 10.8968 7.69812 10.6802L7.69838 10.6146C7.6931 10.6199 7.68597 10.6247 7.68042 10.6302C6.93974 11.335 5.20216 11.3265 4.4834 10.6078ZM6.63491 10.1923C6.75431 10.1228 6.82299 10.0356 6.82299 9.95268L6.83355 8.01487C6.78812 8.00246 6.38582 7.87963 6.1045 7.75151C5.84035 7.63159 5.56299 7.47257 5.34797 7.32385L5.33582 9.94793C5.33582 10.2712 6.17476 10.4604 6.63544 10.1925L6.63491 10.1923Z" fill="current"/>
    <path d="M5.0593 9.94716L5.06141 9.33882C5.01467 9.36055 4.96893 9.38435 4.92431 9.41014C4.64167 9.57339 4.48609 9.78365 4.48503 10.0016C4.4816 11.1348 7.7016 11.1704 7.69975 10.0077C7.69922 9.78814 7.54073 9.57577 7.25333 9.41014C7.20467 9.38156 7.1544 9.3558 7.10277 9.33301L7.09881 9.95377C7.09881 10.1638 6.95379 10.3262 6.77337 10.4308C6.17824 10.7769 5.0593 10.5671 5.0593 9.94716ZM4.25707 0.777954C3.11277 2.36471 3.13707 4.06531 4.32839 5.96931C4.83477 6.6355 5.4896 7.15878 6.18009 7.48078C7.78005 8.22516 9.58499 7.95969 10.948 6.93452C8.36092 6.37056 5.42514 3.41656 4.25707 0.777954Z" fill="current"/>
</svg>
