<svg width="16" height="26" viewBox="0 0 16 26" fill="#000" xmlns="http://www.w3.org/2000/svg">
    <g clip-path="url(#clip0_1086_5024)">
        <path d="M3.21887 0.311523C2.49778 0.311523 1.80623 0.597975 1.29634 1.10786C0.786451 1.61775 0.5 2.3093 0.5 3.03039V22.5927C0.5 24.0951 1.71697 25.3115 3.21887 25.3115C4.72077 25.3115 5.93774 24.0946 5.93774 22.5927V3.03039C5.93774 1.52849 4.72132 0.311523 3.21887 0.311523ZM13.0068 0.311523C12.2857 0.311523 11.5942 0.597975 11.0843 1.10786C10.5744 1.61775 10.2879 2.3093 10.2879 3.03039V22.5927C10.2879 24.0946 11.5049 25.3115 13.0068 25.3115C14.5087 25.3115 15.7257 24.0946 15.7257 22.5927V3.03039C15.7257 2.3093 15.4392 1.61775 14.9293 1.10786C14.4194 0.597975 13.7279 0.311523 13.0068 0.311523Z" fill="current"/>
    </g>
    <defs>
        <clipPath id="clip0_1086_5024">
            <rect width="15.2257" height="25" fill="current" transform="translate(0.5 0.311523)"/>
        </clipPath>
    </defs>
</svg>
