<svg width="30" height="31" viewBox="0 0 30 31" fill="none" xmlns="http://www.w3.org/2000/svg">
<g clip-path="url(#clip0_165_1494)">
<path d="M15.0537 30.2607C11.0627 30.2607 7.31061 28.7065 4.48855 25.8844C1.6665 23.0623 0.112305 19.3103 0.112305 15.3193C0.112305 11.3283 1.6665 7.57617 4.48855 4.75412C7.31061 1.93207 11.0627 0.377869 15.0537 0.377869C19.0447 0.377869 22.7968 1.93207 25.6189 4.75412C28.441 7.57617 29.9951 11.3283 29.9951 15.3193C29.9951 19.3103 28.441 23.0624 25.6189 25.8845C22.7968 28.7066 19.0447 30.2607 15.0537 30.2607ZM15.0537 1.54974C7.46113 1.54974 1.28418 7.7267 1.28418 15.3193C1.28418 22.9118 7.46113 29.0888 15.0537 29.0888C22.6462 29.0888 28.8232 22.9118 28.8232 15.3193C28.8232 7.7267 22.6462 1.54974 15.0537 1.54974Z" fill="current"/>
<path d="M23.299 23.8154H6.8084C6.72941 23.8154 6.65123 23.7994 6.57857 23.7684C6.50591 23.7374 6.44027 23.6921 6.38559 23.6351C4.22945 21.3878 3.04199 18.4346 3.04199 15.3193C3.04199 8.69595 8.43039 3.30756 15.0537 3.30756C21.677 3.30756 27.0654 8.69595 27.0654 15.3193C27.0654 18.4346 25.878 21.3878 23.7218 23.6351C23.6671 23.6921 23.6015 23.7374 23.5288 23.7684C23.4562 23.7994 23.378 23.8154 23.299 23.8154ZM7.06205 22.6435H23.0454C24.884 20.6392 25.8936 18.0481 25.8936 15.3193C25.8936 9.34219 21.0309 4.47943 15.0537 4.47943C9.07662 4.47943 4.21387 9.34219 4.21387 15.3193C4.21387 18.0481 5.22338 20.6392 7.06205 22.6435Z" fill="current"/>
<path d="M14.7607 20.2997C13.4684 20.2997 12.417 19.2483 12.417 17.956C12.417 16.6636 13.4684 15.6122 14.7607 15.6122C16.0531 15.6122 17.1045 16.6636 17.1045 17.956C17.1045 19.2483 16.0531 20.2997 14.7607 20.2997ZM14.7607 16.7841C14.1146 16.7841 13.5889 17.3098 13.5889 17.956C13.5889 18.6022 14.1146 19.1279 14.7607 19.1279C15.4069 19.1279 15.9326 18.6022 15.9326 17.956C15.9326 17.3098 15.4069 16.7841 14.7607 16.7841Z" fill="current"/>
<path d="M14.7607 16.7841C14.4371 16.7841 14.1748 16.5217 14.1748 16.1982V11.5107C14.1748 11.1871 14.4371 10.9247 14.7607 10.9247C15.0844 10.9247 15.3467 11.1871 15.3467 11.5107V16.1982C15.3467 16.5217 15.0844 16.7841 14.7607 16.7841ZM7.14355 15.6122H5.97168C5.64807 15.6122 5.38574 15.3499 5.38574 15.0263C5.38574 14.7027 5.64807 14.4404 5.97168 14.4404H7.14355C7.46717 14.4404 7.72949 14.7027 7.72949 15.0263C7.72949 15.3499 7.46717 15.6122 7.14355 15.6122ZM24.1357 15.6122H22.9639C22.6403 15.6122 22.3779 15.3499 22.3779 15.0263C22.3779 14.7027 22.6403 14.4404 22.9639 14.4404H24.1357C24.4593 14.4404 24.7217 14.7027 24.7217 15.0263C24.7217 15.3499 24.4593 15.6122 24.1357 15.6122ZM15.0537 7.70209C14.7301 7.70209 14.4678 7.43976 14.4678 7.11615V5.94427C14.4678 5.62066 14.7301 5.35834 15.0537 5.35834C15.3773 5.35834 15.6396 5.62066 15.6396 5.94427V7.11615C15.6396 7.43976 15.3773 7.70209 15.0537 7.70209ZM20.647 10.0189C20.5701 10.0191 20.4938 10.0039 20.4227 9.97449C20.3516 9.94504 20.287 9.90182 20.2327 9.84732C20.0039 9.61851 20.0039 9.2475 20.2327 9.01869L21.0614 8.19006C21.2903 7.96131 21.6612 7.96125 21.8901 8.19006C22.1189 8.41886 22.1189 8.78988 21.8901 9.01869L21.0614 9.84732C21.007 9.9018 20.9424 9.94501 20.8713 9.97446C20.8002 10.0039 20.724 10.019 20.647 10.0189ZM9.46041 10.0189C9.38345 10.0191 9.30722 10.0039 9.23612 9.97449C9.16502 9.94504 9.10044 9.90182 9.04609 9.84732L8.21746 9.01869C7.98865 8.78988 7.98865 8.41886 8.21746 8.19C8.44627 7.96119 8.81728 7.96119 9.04615 8.19L9.87479 9.01863C10.1036 9.24744 10.1036 9.61845 9.87479 9.84732C9.82042 9.9018 9.75582 9.94501 9.68471 9.97446C9.6136 10.0039 9.53738 10.019 9.46041 10.0189ZM17.9834 26.7451H12.124C11.8004 26.7451 11.5381 26.4827 11.5381 26.1591C11.5381 25.8356 11.8004 25.5732 12.124 25.5732H17.9834C18.307 25.5732 18.5693 25.8356 18.5693 26.1591C18.5693 26.4827 18.307 26.7451 17.9834 26.7451Z" fill="current"/>
</g>
<defs>
<clipPath id="clip0_165_1494">
<rect width="29.8828" height="29.8828" fill="white" transform="translate(0.112305 0.377869)"/>
</clipPath>
</defs>
</svg>
