<svg width="26" height="21" viewBox="0 0 26 21" fill="#000" xmlns="http://www.w3.org/2000/svg">
    <g clip-path="url(#clip0_1091_5003)">
        <path d="M7.61035 2.78711V1.41504C7.61035 0.804688 7.11719 0.311523 6.50684 0.311523C6.27734 0.311523 6.05273 0.384766 5.8623 0.516602L1.31641 3.79785C0.823242 4.15918 0.710937 4.84766 1.06738 5.34082C1.13574 5.43848 1.21875 5.52148 1.31641 5.58984L5.86719 8.87109C6.36035 9.22754 7.04883 9.11523 7.40527 8.61719C7.54199 8.43164 7.61035 8.20703 7.61035 7.97266V6.69336H17.0684C19.6904 6.69336 21.8193 8.82226 21.8193 11.4443C21.8193 14.0713 19.6904 16.1953 17.0684 16.1953H1.79004C1.2041 16.1953 0.725586 16.6738 0.725586 17.2598V19.042C0.725586 19.6279 1.2041 20.1064 1.79004 20.1064H17.0684C21.8486 20.1064 25.7256 16.2295 25.7256 11.4492C25.7256 6.66894 21.8486 2.79199 17.0684 2.79199H7.61035V2.78711Z" fill="current"/>
    </g>
    <defs>
        <clipPath id="clip0_1091_5003">
            <rect width="25" height="19.7949" fill="current" transform="translate(0.725586 0.311523)"/>
        </clipPath>
    </defs>
</svg>
