<svg width="26" height="23" viewBox="0 0 26 23" fill="none" xmlns="http://www.w3.org/2000/svg">
<g clip-path="url(#clip0_163_119)">
<path d="M4.61033 10.7415C2.13012 10.7415 0.112305 12.7593 0.112305 15.2396C0.112305 16.4935 0.797912 18.008 2.15014 19.7409C3.11593 20.9787 4.0704 21.8737 4.11058 21.9112L4.61038 22.3779L5.11017 21.9112C5.15035 21.8737 6.10482 20.9787 7.07061 19.7409C8.42279 18.008 9.10845 16.4935 9.10845 15.2396C9.1084 12.7593 7.09058 10.7415 4.61033 10.7415ZM4.61033 16.6948C3.80794 16.6948 3.15514 16.042 3.15514 15.2396C3.15514 14.4372 3.80794 13.7844 4.61033 13.7844C5.41272 13.7844 6.06552 14.4372 6.06552 15.2396C6.06552 16.042 5.41272 16.6948 4.61033 16.6948ZM20.6142 0C18.134 0 16.1162 2.01781 16.1162 4.49802C16.1162 5.75192 16.8018 7.26638 18.154 8.99936C19.1197 10.2371 20.0743 11.1322 20.1144 11.1696L20.6142 11.6363L21.1139 11.1696C21.1541 11.1322 22.1086 10.2371 23.0744 8.99936C24.4266 7.26638 25.1122 5.75192 25.1122 4.49802C25.1123 2.01786 23.0945 0 20.6142 0ZM20.6142 5.95326C19.8118 5.95326 19.159 5.30046 19.159 4.49807C19.159 3.69568 19.8118 3.04288 20.6142 3.04288C21.4167 3.04288 22.0695 3.69568 22.0695 4.49807C22.0695 5.30046 21.4167 5.95326 20.6142 5.95326Z" fill="current"/>
<path d="M17.9291 22.1083H7.54004V20.6436H17.9291C19.006 20.6436 19.8821 19.7675 19.8821 18.6906C19.8821 17.6136 19.006 16.7375 17.9291 16.7375H13.8331C11.9486 16.7375 10.4154 15.2044 10.4154 13.3198C10.4154 11.4353 11.9486 9.90216 13.8331 9.90216H17.6849V11.3668H13.8331C12.7561 11.3668 11.88 12.2429 11.88 13.3198C11.88 14.3968 12.7561 15.2729 13.8331 15.2729H17.9291C19.8136 15.2729 21.3468 16.806 21.3468 18.6906C21.3468 20.5751 19.8136 22.1083 17.9291 22.1083Z" fill="current"/>
</g>
<defs>
<clipPath id="clip0_163_119">
<rect width="24.9999" height="22.3779" fill="white" transform="translate(0.112305)"/>
</clipPath>
</defs>
</svg>
