<svg width="21" height="20" viewBox="0 0 21 20" fill="none" xmlns="http://www.w3.org/2000/svg">
<g clip-path="url(#clip0_165_976)">
<path d="M0.945638 3.95855H3.22564C3.4045 4.61666 3.79495 5.19763 4.33674 5.61183C4.87854 6.02602 5.54157 6.25043 6.22355 6.25043C6.90554 6.25043 7.56857 6.02602 8.11037 5.61183C8.65216 5.19763 9.04261 4.61666 9.22147 3.95855H19.279C19.5 3.95855 19.7119 3.87075 19.8682 3.71447C20.0245 3.55819 20.1123 3.34623 20.1123 3.12522C20.1123 2.9042 20.0245 2.69224 19.8682 2.53596C19.7119 2.37968 19.5 2.29188 19.279 2.29188H9.22147C9.04261 1.63377 8.65216 1.0528 8.11037 0.638607C7.56857 0.224409 6.90554 0 6.22355 0C5.54157 0 4.87854 0.224409 4.33674 0.638607C3.79495 1.0528 3.4045 1.63377 3.22564 2.29188H0.945638C0.724624 2.29188 0.512663 2.37968 0.356382 2.53596C0.200102 2.69224 0.112305 2.9042 0.112305 3.12522C0.112305 3.34623 0.200102 3.55819 0.356382 3.71447C0.512663 3.87075 0.724624 3.95855 0.945638 3.95855ZM6.22314 1.66688C6.51157 1.66688 6.79352 1.75241 7.03334 1.91266C7.27317 2.0729 7.46008 2.30066 7.57046 2.56714C7.68084 2.83361 7.70972 3.12683 7.65345 3.40972C7.59718 3.69261 7.45829 3.95246 7.25433 4.15641C7.05038 4.36037 6.79053 4.49926 6.50764 4.55553C6.22476 4.6118 5.93153 4.58292 5.66506 4.47254C5.39858 4.36216 5.17082 4.17524 5.01058 3.93542C4.85033 3.6956 4.7648 3.41365 4.7648 3.12522C4.76525 2.73858 4.91903 2.3679 5.19243 2.09451C5.46582 1.82111 5.8365 1.66732 6.22314 1.66688ZM19.279 9.16688H16.999C16.8204 8.50862 16.4301 7.92744 15.8884 7.51307C15.3466 7.0987 14.6835 6.87419 14.0015 6.87419C13.3194 6.87419 12.6563 7.0987 12.1146 7.51307C11.5728 7.92744 11.1825 8.50862 11.004 9.16688H0.945638C0.724624 9.16688 0.512663 9.25468 0.356382 9.41096C0.200102 9.56724 0.112305 9.7792 0.112305 10.0002C0.112305 10.2212 0.200102 10.4332 0.356382 10.5895C0.512663 10.7458 0.724624 10.8336 0.945638 10.8336H11.004C11.1825 11.4918 11.5728 12.073 12.1146 12.4874C12.6563 12.9017 13.3194 13.1262 14.0015 13.1262C14.6835 13.1262 15.3466 12.9017 15.8884 12.4874C16.4301 12.073 16.8204 11.4918 16.999 10.8336H19.279C19.5 10.8336 19.7119 10.7458 19.8682 10.5895C20.0245 10.4332 20.1123 10.2212 20.1123 10.0002C20.1123 9.7792 20.0245 9.56724 19.8682 9.41096C19.7119 9.25468 19.5 9.16688 19.279 9.16688ZM14.0015 11.4586C13.713 11.4586 13.4311 11.373 13.1913 11.2128C12.9514 11.0525 12.7645 10.8248 12.6541 10.5583C12.5438 10.2918 12.5149 9.9986 12.5712 9.71571C12.6274 9.43282 12.7663 9.17297 12.9703 8.96902C13.1742 8.76507 13.4341 8.62617 13.717 8.56991C13.9999 8.51363 14.2931 8.54251 14.5596 8.65289C14.826 8.76327 15.0538 8.95019 15.214 9.19001C15.3743 9.42983 15.4598 9.71179 15.4598 10.0002C15.4594 10.3869 15.3056 10.7575 15.0322 11.0309C14.7588 11.3043 14.3881 11.4581 14.0015 11.4586ZM19.279 16.0419H9.22147C9.04261 15.3838 8.65216 14.8028 8.11037 14.3886C7.56857 13.9744 6.90554 13.75 6.22355 13.75C5.54157 13.75 4.87854 13.9744 4.33674 14.3886C3.79495 14.8028 3.4045 15.3838 3.22564 16.0419H0.945638C0.724624 16.0419 0.512663 16.1297 0.356382 16.286C0.200102 16.4422 0.112305 16.6542 0.112305 16.8752C0.112305 17.0962 0.200102 17.3082 0.356382 17.4645C0.512663 17.6208 0.724624 17.7086 0.945638 17.7086H3.22564C3.4045 18.3667 3.79495 18.9476 4.33674 19.3618C4.87854 19.776 5.54157 20.0004 6.22355 20.0004C6.90554 20.0004 7.56857 19.776 8.11037 19.3618C8.65216 18.9476 9.04261 18.3667 9.22147 17.7086H19.279C19.5 17.7086 19.7119 17.6208 19.8682 17.4645C20.0245 17.3082 20.1123 17.0962 20.1123 16.8752C20.1123 16.6542 20.0245 16.4422 19.8682 16.286C19.7119 16.1297 19.5 16.0419 19.279 16.0419ZM6.22314 18.3336C5.93471 18.3336 5.65275 18.248 5.41293 18.0878C5.17311 17.9275 4.98619 17.6998 4.87581 17.4333C4.76544 17.1668 4.73656 16.8736 4.79283 16.5907C4.8491 16.3078 4.98799 16.048 5.19194 15.844C5.39589 15.6401 5.65574 15.5012 5.93863 15.4449C6.22152 15.3886 6.51474 15.4175 6.78122 15.5279C7.04769 15.6383 7.27545 15.8252 7.4357 16.065C7.59594 16.3048 7.68147 16.5868 7.68147 16.8752C7.68081 17.2618 7.52695 17.6323 7.25361 17.9057C6.98026 18.179 6.60971 18.3329 6.22314 18.3336Z" fill="current"/>
</g>
<defs>
<clipPath id="clip0_165_976">
<rect width="20" height="20.0004" fill="white" transform="translate(0.112305)"/>
</clipPath>
</defs>
</svg>
