<svg width="19" height="20" viewBox="0 0 19 20" fill="#000" xmlns="http://www.w3.org/2000/svg">
    <path d="M17.7598 8.66406L14.0613 12.2693L14.9347 17.3613C14.9534 17.4705 14.9412 17.5828 14.8994 17.6854C14.8577 17.788 14.7881 17.8769 14.6984 17.942C14.6088 18.0071 14.5027 18.0458 14.3922 18.0538C14.2817 18.0618 14.1712 18.0387 14.0732 17.9871L9.5001 15.583L4.92763 17.9865C4.82957 18.0381 4.71905 18.0612 4.60856 18.0532C4.49806 18.0452 4.392 18.0065 4.30237 17.9414C4.21274 17.8763 4.14311 17.7874 4.10136 17.6848C4.0596 17.5822 4.04739 17.4699 4.0661 17.3607L4.93951 12.2687L1.24044 8.66406C1.16105 8.58671 1.10489 8.48867 1.07833 8.38104C1.05177 8.27342 1.05587 8.16051 1.09016 8.0551C1.12446 7.94969 1.18757 7.85598 1.27237 7.78458C1.35717 7.71319 1.46026 7.66696 1.56997 7.65112L6.68157 6.90894L8.96751 2.2765C9.1676 1.87097 9.8326 1.87097 10.0327 2.2765L12.3186 6.90894L17.4302 7.65112C17.5397 7.66737 17.6425 7.71383 17.727 7.78528C17.8115 7.85672 17.8744 7.95033 17.9086 8.05556C17.9429 8.1608 17.9471 8.2735 17.9208 8.38099C17.8945 8.48849 17.8387 8.58652 17.7598 8.66406Z" fill="current"/>
</svg>
