<svg width="25" height="25" viewBox="0 0 25 25" fill="#000" xmlns="http://www.w3.org/2000/svg">
    <g clip-path="url(#clip0_732_4213)">
        <path d="M16.9312 8.06878C15.8069 6.94444 14.2196 6.21693 12.5 6.21693C10.7804 6.21693 9.19312 6.91138 8.06878 8.06878C6.94444 9.19312 6.21693 10.7804 6.21693 12.5C6.21693 14.2196 6.94444 15.8069 8.06878 16.9312C9.19312 18.0556 10.7804 18.7831 12.5 18.7831C14.2196 18.7831 15.8069 18.0886 16.9312 16.9312C18.0556 15.8069 18.7831 14.2196 18.7831 12.5C18.7831 10.7804 18.0886 9.19312 16.9312 8.06878ZM12.5 4.26587C12.963 4.26587 13.3598 3.86905 13.3598 3.40608V0.859788C13.3598 0.396825 12.963 0 12.5 0C12.037 0 11.6402 0.396825 11.6402 0.859788V3.40608C11.6402 3.86905 12.037 4.26587 12.5 4.26587ZM19.5436 6.67989L21.3624 4.86111C21.6931 4.53042 21.6931 4.00132 21.3624 3.67063C21.0317 3.33995 20.5026 3.33995 20.172 3.67063L18.3532 5.48942C18.0225 5.82011 18.0225 6.34921 18.3532 6.67989C18.6508 7.01058 19.1799 7.01058 19.5436 6.67989ZM24.1402 11.6402H21.5939C21.131 11.6402 20.7341 12.037 20.7341 12.5C20.7341 12.963 21.131 13.3598 21.5939 13.3598H24.1402C24.6032 13.3598 25 12.963 25 12.5C25 12.037 24.6032 11.6402 24.1402 11.6402ZM19.5106 18.3201C19.1799 17.9894 18.6508 17.9894 18.3201 18.3201C17.9894 18.6508 17.9894 19.1799 18.3201 19.5106L20.1389 21.3294C20.4696 21.6601 20.9987 21.6601 21.3294 21.3294C21.6601 20.9987 21.6601 20.4696 21.3294 20.1389L19.5106 18.3201ZM12.5 20.7341C12.037 20.7341 11.6402 21.131 11.6402 21.5939V24.1402C11.6402 24.6032 12.037 25 12.5 25C12.963 25 13.3598 24.6032 13.3598 24.1402V21.5939C13.3598 21.131 12.963 20.7341 12.5 20.7341ZM5.45635 18.3201L3.63757 20.1389C3.30688 20.4696 3.30688 20.9987 3.63757 21.3294C3.96825 21.6601 4.49735 21.6601 4.82804 21.3294L6.64683 19.5106C6.97751 19.1799 6.97751 18.6508 6.64683 18.3201C6.34921 17.9894 5.82011 17.9894 5.45635 18.3201ZM4.26587 12.5C4.26587 12.037 3.86905 11.6402 3.40608 11.6402H0.859788C0.396825 11.6402 0 12.037 0 12.5C0 12.963 0.396825 13.3598 0.859788 13.3598H3.40608C3.86905 13.3598 4.26587 12.963 4.26587 12.5ZM5.45635 6.67989C5.78704 7.01058 6.31614 7.01058 6.64683 6.67989C6.97751 6.34921 6.97751 5.82011 6.64683 5.48942L4.82804 3.67063C4.49735 3.33995 3.96825 3.33995 3.63757 3.67063C3.30688 4.00132 3.30688 4.53042 3.63757 4.86111L5.45635 6.67989Z" fill="current"/>
    </g>
    <defs>
        <clipPath id="clip0_732_4213">
            <rect width="25" height="25" fill="current"/>
        </clipPath>
    </defs>
</svg>
