<svg width="30" height="20" viewBox="0 0 30 20" fill="none" xmlns="http://www.w3.org/2000/svg">
    <path d="M28.9689 17.1562C28.7814 16.6875 28.3126 16.4062 27.7501 16.5937L25.3126 17.4375C22.7814 18.2812 19.9689 18 17.6251 16.875L17.8126 16.6875C19.4064 15.0937 19.4064 12.4687 17.8126 10.875L10.7814 3.84375C9.56264 2.4375 7.31264 2.4375 6.00014 3.75L1.87514 7.875C1.59389 8.15625 1.40639 8.53125 1.40639 9C1.40639 9.46875 1.59389 9.84375 1.87514 10.125C2.43764 10.6875 3.28139 10.7812 3.84389 10.3125L8.43764 7.3125L11.0626 9.9375L8.62514 12.375C7.12514 12.2812 5.53139 12.4687 4.03139 12.9375L1.59389 13.7812C1.12514 13.9687 0.843887 14.4375 1.03139 15C1.21889 15.4687 1.68764 15.75 2.25014 15.5625L4.68764 14.7187C8.06264 13.5937 11.8126 14.3437 14.4376 16.7812C16.5939 18.75 19.4064 19.7812 22.3126 19.7812C23.5314 19.7812 24.8439 19.5937 26.0626 19.2187L28.5001 18.375C28.8751 18.1875 29.1564 17.625 28.9689 17.1562Z" fill="current"/>
    <path d="M21.5625 9.9375C24.1875 9.9375 26.25 7.875 26.25 5.25C26.25 2.625 24.1875 0.5625 21.5625 0.5625C18.9375 0.5625 16.875 2.625 16.875 5.25C16.875 7.875 18.9375 9.9375 21.5625 9.9375Z" fill="current"/>
</svg>
