<svg width="14" height="31" viewBox="0 0 14 31" fill="#000" xmlns="http://www.w3.org/2000/svg">
    <path d="M12.5512 8.53213H12.1182C11.7938 8.53213 11.5308 8.79514 11.5308 9.11955C11.5308 9.44396 11.7938 9.70698 12.1182 9.70698H12.5512C12.8756 9.70698 13.1386 9.44396 13.1386 9.11955C13.1386 8.79514 12.8756 8.53213 12.5512 8.53213ZM12.5512 5.28827H12.1182C11.7938 5.28827 11.5308 5.55128 11.5308 5.87569C11.5308 6.2001 11.7938 6.46312 12.1182 6.46312H12.5512C12.8756 6.46312 13.1386 6.2001 13.1386 5.87569C13.1386 5.55128 12.8756 5.28827 12.5512 5.28827ZM12.5512 11.776H12.1182C11.7938 11.776 11.5308 12.0391 11.5308 12.3635C11.5308 12.6879 11.7938 12.9509 12.1182 12.9509H12.5512C12.8756 12.9509 13.1386 12.6879 13.1386 12.3635C13.1386 12.0391 12.8756 11.776 12.5512 11.776ZM12.5512 15.02H12.1182C11.7938 15.02 11.5308 15.283 11.5308 15.6074C11.5308 15.9318 11.7938 16.1948 12.1182 16.1948H12.5512C12.8756 16.1948 13.1386 15.9318 13.1386 15.6074C13.1386 15.283 12.8756 15.02 12.5512 15.02ZM12.5512 18.2638H12.1182C11.7938 18.2638 11.5308 18.5268 11.5308 18.8513C11.5308 19.1757 11.7938 19.4387 12.1182 19.4387H12.5512C12.8756 19.4387 13.1386 19.1757 13.1386 18.8513C13.1386 18.5268 12.8756 18.2638 12.5512 18.2638Z" fill="current"/>
    <path d="M10.7875 20.2431V3.8704C10.7875 1.73624 9.05117 0 6.91714 0C4.78298 0 3.04674 1.73624 3.04674 3.8704V20.2431C1.64223 21.4017 0.842285 23.0914 0.842285 24.925C0.842285 28.2747 3.56744 30.9999 6.91714 30.9999C10.2668 30.9999 12.992 28.2747 12.992 24.925C12.9919 23.0915 12.192 21.4019 10.7875 20.2431ZM6.91714 29.8251C4.21523 29.8251 2.01714 27.627 2.01714 24.9251C2.01714 23.3653 2.73462 21.934 3.9857 20.9983C4.13985 20.8831 4.2205 20.7066 4.22068 20.5279H4.22159V3.8704C4.22159 2.38409 5.43077 1.17479 6.9172 1.17479C8.4035 1.17479 9.6128 2.38403 9.6128 3.8704V20.5279H9.61383C9.61395 20.7066 9.69466 20.883 9.84881 20.9983C11.0998 21.934 11.8173 23.3651 11.8173 24.9251C11.8171 27.627 9.61892 29.8251 6.91714 29.8251Z" fill="current"/>
    <path d="M8.49169 21.564V11.76C8.49169 11.4356 8.22868 11.1726 7.90427 11.1726H5.92971C5.6053 11.1726 5.34229 11.4356 5.34229 11.76V21.564C4.05627 22.1685 3.21582 23.4697 3.21582 24.9138C3.21582 26.9546 4.87614 28.6149 6.91693 28.6149C8.95778 28.6149 10.618 26.9546 10.618 24.9138C10.6181 23.4696 9.77759 22.1685 8.49169 21.564Z" fill="current"/>
</svg>
