<svg width="26" height="25" viewBox="0 0 26 25" fill="#000" xmlns="http://www.w3.org/2000/svg">
    <g clip-path="url(#clip0_1197_5176)">
        <path d="M22.035 9.17266C22.0354 9.14864 22.0357 9.12461 22.0356 9.10059C22.0356 7.08945 20.6721 5.371 18.7656 4.86655C17.8896 2.16216 15.382 0.311523 12.5142 0.311523C10.2434 0.311523 8.24214 1.4748 7.054 3.25386C6.10094 3.32613 5.1981 3.70988 4.48467 4.34595C3.80951 4.94795 3.33578 5.74298 3.12769 6.62329C1.24873 7.4438 0.0141602 9.27183 0.0141602 11.2979C0.0141602 14.1249 2.33604 16.4248 5.18994 16.4248H6.11631C6.4249 17.0178 6.70776 17.4568 6.7749 17.5591C7.12378 18.0906 8.11963 19.8306 8.11963 20.8193C8.11963 21.8093 7.14878 23.5086 6.77466 24.0799L7.99951 24.8833C8.16172 24.6361 9.58447 22.4221 9.58447 20.8193C9.58447 19.2166 8.16172 17.0025 7.99951 16.7554C7.9288 16.6467 7.86051 16.5365 7.79468 16.4248H11.2433C11.5519 17.0178 11.8347 17.4568 11.9019 17.5591C12.2507 18.0906 13.2466 19.8306 13.2466 20.8193C13.2466 21.8093 12.2757 23.5086 11.9016 24.0799L13.1265 24.8833C13.2887 24.6361 14.7114 22.4221 14.7114 20.8193C14.7114 19.2166 13.2887 17.0025 13.1265 16.7554C13.0558 16.6467 12.9875 16.5365 12.9216 16.4248H16.3702C16.6788 17.0178 16.9617 17.4568 17.0288 17.5591C17.3777 18.0906 18.3735 19.8306 18.3735 20.8193C18.3735 21.8093 17.4027 23.5086 17.0286 24.0799L18.2534 24.8833C18.4156 24.6361 19.8384 22.4221 19.8384 20.8193C19.8384 19.2166 18.4156 17.0025 18.2534 16.7554C18.1827 16.6467 18.1144 16.5365 18.0486 16.4248H21.3032C23.3275 16.4248 25.0142 14.7874 25.0142 12.7627C25.0142 10.9624 23.6887 9.50273 22.035 9.17266ZM21.3032 14.96H17.2999C17.0773 14.4355 16.9087 13.9018 16.9087 13.4951C16.9087 12.9729 17.179 12.2532 17.4892 11.6059L17.6658 12.6076L19.1084 12.3532L18.4725 8.74673L14.8661 9.38267L15.1204 10.8252L16.3478 10.6088C15.9163 11.445 15.4438 12.5715 15.4438 13.4951C15.4438 13.9535 15.5603 14.4619 15.7303 14.96H12.1729C11.9503 14.4355 11.7817 13.9018 11.7817 13.4951C11.7817 12.9729 12.052 12.2532 12.3622 11.6059L12.5388 12.6076L13.9814 12.3532L13.3455 8.74673L9.73911 9.38267L9.99346 10.8252L11.2208 10.6088C10.7893 11.445 10.3169 12.5715 10.3169 13.4951C10.3169 13.9535 10.4333 14.4619 10.6034 14.96H7.046C6.82339 14.4355 6.65479 13.9018 6.65479 13.4951C6.65479 12.9729 6.92505 12.2532 7.23525 11.6059L7.41187 12.6076L8.85449 12.3532L8.21855 8.74673L4.61216 9.38267L4.8665 10.8252L6.09385 10.6088C5.66235 11.445 5.18994 12.5715 5.18994 13.4951C5.18994 13.9535 5.3064 14.4619 5.47642 14.96H5.18994C3.14375 14.96 1.479 13.3171 1.479 11.2979C1.479 9.75449 2.49639 8.36904 4.01064 7.85039L4.44014 7.70332L4.49946 7.25327C4.68726 5.82871 5.90728 4.68154 7.44819 4.71362L7.88018 4.72256L8.09692 4.34883C9.0311 2.73809 10.6824 1.77642 12.5142 1.77642C14.864 1.77642 16.903 3.37744 17.4726 5.66978L17.5907 6.14507L18.075 6.21753C19.7685 6.4709 20.8426 8.05776 20.5117 9.68721L20.3332 10.5655H21.3032C22.5208 10.5655 23.5493 11.5717 23.5493 12.7627C23.5493 13.9538 22.5208 14.96 21.3032 14.96Z" fill="current"/>
    </g>
    <defs>
        <clipPath id="clip0_1197_5176">
            <rect width="25" height="24.5718" fill="current" transform="translate(0.0141602 0.311523)"/>
        </clipPath>
    </defs>
</svg>
