<svg width="20" height="19" viewBox="0 0 20 19" fill="none" xmlns="http://www.w3.org/2000/svg">
<g clip-path="url(#clip0_181_2054)">
<path d="M10 12.8478C9.44086 12.8478 8.97217 13.3165 8.97217 13.8757C8.97217 14.4348 9.44086 14.9035 10 14.9035C10.5386 14.9035 11.0278 14.4348 11.0032 13.9003C11.0278 13.3124 10.5632 12.8478 10 12.8478Z" fill="current"/>
<path d="M19.5133 16.4905C20.1588 15.3763 20.1629 14.0483 19.5215 12.9383L13.0832 1.78842C12.446 0.666032 11.2948 0 10.0039 0C8.71291 0 7.56175 0.670143 6.92449 1.78431L0.477959 12.9465C-0.163405 14.0689 -0.159294 15.4051 0.490293 16.5192C1.13166 17.6211 2.27871 18.283 3.56144 18.283H16.4216C17.7085 18.283 18.8637 17.6129 19.5133 16.4905ZM18.1155 15.6846C17.7578 16.3013 17.1247 16.6672 16.4175 16.6672H3.55733C2.85841 16.6672 2.22938 16.3096 1.87992 15.7052C1.52634 15.0926 1.52223 14.3608 1.8758 13.7441L8.32234 2.58601C8.6718 1.97343 9.29672 1.61163 10.0039 1.61163C10.7069 1.61163 11.3359 1.97754 11.6854 2.59013L18.1278 13.7482C18.4732 14.3485 18.469 15.0721 18.1155 15.6846Z" fill="current"/>
<path d="M9.74465 5.63247C9.25541 5.77226 8.95117 6.21628 8.95117 6.75486C8.97584 7.07965 8.9964 7.40856 9.02106 7.73335C9.09096 8.97085 9.16085 10.1837 9.23074 11.4212C9.25541 11.8405 9.5802 12.1448 9.99956 12.1448C10.4189 12.1448 10.7478 11.82 10.7684 11.3965C10.7684 11.1416 10.7684 10.9073 10.793 10.6483C10.8383 9.85479 10.8876 9.0613 10.9328 8.26782C10.9575 7.75391 11.0027 7.23999 11.0274 6.72608C11.0274 6.54107 11.0027 6.37662 10.9328 6.21217C10.7231 5.7517 10.2339 5.51736 9.74465 5.63247Z" fill="current"/>
</g>
<defs>
<clipPath id="clip0_181_2054">
<rect width="20" height="18.283" fill="white"/>
</clipPath>
</defs>
</svg>
