<svg width="25" height="25" viewBox="0 0 25 25" fill="#000" xmlns="http://www.w3.org/2000/svg">
    <g clip-path="url(#clip0_767_4651)">
        <path d="M13.9648 14.0642C14.3697 14.0642 14.6973 13.7366 14.6973 13.3318V1.61304C14.6973 1.2082 14.3697 0.880615 13.9648 0.880615H12.5C12.0952 0.880615 11.7676 1.2082 11.7676 1.61304V13.3318C11.7676 13.7366 12.0952 14.0642 12.5 14.0642H13.9648Z" fill="current"/>
        <path d="M16.1621 5.31226V12.7343C17.0128 13.0376 17.6269 13.843 17.6269 14.7966V19.8171C16.8109 20.0625 15.9469 19.8825 15.2072 19.2563C13.6093 17.903 11.4635 17.903 9.86565 19.2563C8.80276 20.1561 7.48099 20.1561 6.41815 19.2563C4.82025 17.903 2.62494 17.9052 1.02851 19.2555C0.832516 19.4208 0.624411 19.5588 0.409812 19.6639C0.0464824 19.842 -0.103029 20.2805 0.0750956 20.6438C0.253171 21.0065 0.690915 21.1588 1.05498 20.9785C1.37753 20.8205 1.68657 20.6174 1.9748 20.3734C3.03769 19.4736 4.40829 19.4736 5.47113 20.3734C7.06903 21.7267 9.21477 21.7267 10.8127 20.3734C11.8756 19.4736 13.1973 19.4736 14.2602 20.3734C15.0591 21.0501 15.9947 21.3884 16.931 21.3884C17.8672 21.3884 18.8028 21.0501 19.6017 20.3735C19.8355 20.1755 20.0833 20.0288 20.3366 19.9179L21.5065 19.7158C22.0416 19.7568 22.6205 19.9692 23.098 20.3735C23.3555 20.5923 23.6352 20.7812 23.9285 20.9342C24.2854 21.1202 24.7295 20.9828 24.9169 20.6238C25.1036 20.2654 24.9648 19.8227 24.6065 19.6353C24.4059 19.5302 24.2176 19.4031 24.0451 19.2562C23.8814 19.1177 23.709 19.0027 23.5351 18.8925V13.3318C23.5351 9.13656 20.2621 5.68403 16.1621 5.31226Z" fill="current"/>
        <path d="M0.73242 12.5993H10.3027V2.34546H0.73242C0.327587 2.34546 0 2.67305 0 3.07788V11.8669C0 12.2718 0.327587 12.5993 0.73242 12.5993ZM24.6065 22.565C24.4059 22.4599 24.2176 22.3327 24.0451 22.1859C22.4472 20.8326 20.2526 20.8326 18.6547 22.1859C17.5918 23.0857 16.27 23.0857 15.2072 22.1859C13.6093 20.8326 11.4636 20.8326 9.86565 22.1859C9.30921 22.657 8.68162 22.8815 8.0575 22.8592C7.48968 22.839 6.92455 22.6145 6.41815 22.1859C4.82025 20.8326 2.62495 20.8348 1.02851 22.1852C0.832518 22.3504 0.624413 22.4884 0.409814 22.5936C0.0464843 22.7716 -0.103027 23.2101 0.0750975 23.5734C0.253173 23.9361 0.690917 24.0884 1.05498 23.9082C1.37754 23.7501 1.68657 23.547 1.9748 23.303C3.03769 22.4032 4.40829 22.4032 5.47113 23.303C6.27196 23.9813 7.21039 24.3196 8.14852 24.318C9.08221 24.3164 10.0156 23.978 10.8127 23.303C11.8756 22.4032 13.1973 22.4032 14.2602 23.303C15.0592 23.9798 15.9947 24.3181 16.931 24.3181C17.8673 24.3181 18.8028 23.9797 19.6017 23.3031C20.6646 22.4033 22.0352 22.4033 23.0981 23.3031C23.3555 23.522 23.6352 23.7108 23.9285 23.8639C24.2854 24.0505 24.7295 23.9125 24.9169 23.5535C25.1037 23.1951 24.9649 22.7524 24.6065 22.565Z" fill="current"/>
    </g>
    <defs>
        <clipPath id="clip0_767_4651">
            <rect width="25" height="23.4375" fill="current" transform="translate(0 0.880615)"/>
        </clipPath>
    </defs>
</svg>
