<svg width="20" height="20" viewBox="0 0 20 20" fill="#000" xmlns="http://www.w3.org/2000/svg">
    <path d="M10.8333 20.0002C9.50766 19.9989 8.23666 19.4716 7.29926 18.5342C6.36187 17.5969 5.83466 16.3259 5.83333 15.0002C5.83333 13.7002 6.83333 11.6293 8.79333 8.84351C9.02605 8.51936 9.3326 8.25528 9.68763 8.07311C10.0427 7.89095 10.436 7.79593 10.835 7.79593C11.234 7.79593 11.6273 7.89095 11.9824 8.07311C12.3374 8.25528 12.644 8.51936 12.8767 8.84351C14.8375 11.6293 15.8333 13.7002 15.8333 15.0002C15.832 16.3259 15.3048 17.5969 14.3674 18.5342C13.43 19.4716 12.159 19.9989 10.8333 20.0002ZM4.16667 9.16684C3.062 9.16552 2.00296 8.72611 1.22185 7.94499C0.440735 7.16388 0.00132321 6.10484 0 5.00018C0 3.95018 0.701667 2.62101 2.145 0.936009C2.39534 0.644968 2.70557 0.41141 3.05449 0.2513C3.4034 0.0911889 3.78277 0.00830078 4.16667 0.00830078C4.55056 0.00830078 4.92993 0.0911889 5.27885 0.2513C5.62776 0.41141 5.93799 0.644968 6.18833 0.936009C7.63167 2.61934 8.33333 3.94851 8.33333 5.00018C8.33201 6.10484 7.8926 7.16388 7.11148 7.94499C6.33037 8.72611 5.27133 9.16552 4.16667 9.16684ZM16.25 8.30351C15.2558 8.30241 14.3026 7.90696 13.5996 7.20394C12.8965 6.50092 12.5011 5.54773 12.5 4.55351C12.5 3.64434 13.0833 2.46518 14.2883 0.948509C14.5242 0.655058 14.8228 0.418257 15.1623 0.255551C15.5018 0.0928457 15.8735 0.00838169 16.25 0.00838169C16.6265 0.00838169 16.9982 0.0928457 17.3377 0.255551C17.6772 0.418257 17.9758 0.655058 18.2117 0.948509C19.4167 2.46518 20 3.64434 20 4.55351C19.9989 5.54773 19.6035 6.50092 18.9004 7.20394C18.1974 7.90696 17.2442 8.30241 16.25 8.30351Z" fill="current"/>
</svg>