<svg width="31" height="21" viewBox="0 0 31 21" fill="#000" xmlns="http://www.w3.org/2000/svg">
    <path d="M24.7999 16.5381C22.9624 16.5381 22.014 17.205 21.1775 17.7932C20.4426 18.3097 19.8622 18.7178 18.5995 18.7178C17.337 18.7178 16.7566 18.3097 16.022 17.7932C15.1855 17.2047 14.2371 16.5381 12.3996 16.5381C10.5623 16.5381 9.61394 17.205 8.77742 17.7932C8.0428 18.3097 7.4624 18.7178 6.19994 18.7178C4.93742 18.7178 4.35701 18.3097 3.62246 17.7932C2.78558 17.205 1.83717 16.5381 0 16.5381V18.3545C1.26271 18.3545 1.84287 18.7625 2.57748 19.2792C3.41424 19.8674 4.3624 20.5341 6.19988 20.5341C8.03711 20.5341 8.98552 19.8674 9.8221 19.2792C10.5567 18.7625 11.1371 18.3544 12.3996 18.3544C13.6623 18.3544 14.2424 18.7625 14.9773 19.2792C15.8139 19.8674 16.7622 20.5341 18.5995 20.5341C20.4369 20.5341 21.3853 19.8674 22.2221 19.2792C22.9567 18.7626 23.5372 18.3544 24.7999 18.3544C26.0626 18.3544 26.6427 18.7625 27.3776 19.2792C28.2141 19.8674 29.1625 20.5341 31 20.5341V18.7177C29.7373 18.7177 29.1569 18.3097 28.4223 17.7932C27.5855 17.205 26.6371 16.538 24.7999 16.538V16.5381ZM24.7999 5.82334C22.9624 5.82334 22.014 6.49008 21.1775 7.0783C20.4426 7.59482 19.8622 8.00303 18.5995 8.00303C17.337 8.00303 16.7566 7.59482 16.022 7.0783C15.1855 6.49008 14.2371 5.82334 12.3996 5.82334C10.5623 5.82334 9.61394 6.49008 8.77742 7.0783C8.0428 7.59482 7.4624 8.00303 6.19994 8.00303C4.93742 8.00303 4.35701 7.59482 3.62246 7.0783C2.78558 6.49008 1.83717 5.82334 0 5.82334V7.63975C1.26271 7.63975 1.84287 8.04777 2.57748 8.5643C3.41424 9.15275 4.3624 9.81944 6.19988 9.81944C8.03711 9.81944 8.98552 9.15251 9.8221 8.5643C10.5567 8.04777 11.1371 7.63975 12.3996 7.63975C13.6623 7.63975 14.2424 8.04777 14.9773 8.5643C15.8139 9.15275 16.7622 9.81944 18.5995 9.81944C20.4369 9.81944 21.3853 9.15251 22.2221 8.5643C22.9567 8.04777 23.5372 7.63975 24.7999 7.63975C26.0626 7.63975 26.6427 8.04777 27.3776 8.5643C28.2141 9.15275 29.1625 9.81944 31 9.81944V8.00303C29.7373 8.00303 29.1569 7.59482 28.4223 7.0783C27.5855 6.49008 26.6371 5.82334 24.7999 5.82334ZM24.7999 11.1808C22.9624 11.1808 22.014 11.8475 21.1775 12.4357C20.4426 12.9523 19.8622 13.3605 18.5995 13.3605C17.337 13.3605 16.7566 12.9523 16.022 12.4357C15.1855 11.8475 14.2371 11.1808 12.3996 11.1808C10.5623 11.1808 9.61394 11.8475 8.77742 12.4357C8.0428 12.9523 7.4624 13.3605 6.19994 13.3605C4.93742 13.3605 4.35701 12.9523 3.62246 12.4357C2.78558 11.8475 1.83717 11.1809 0 11.1809V12.9973C1.26271 12.9973 1.84287 13.4053 2.57748 13.9218C3.41424 14.51 4.3624 15.177 6.19988 15.177C8.03711 15.177 8.98552 14.51 9.8221 13.9218C10.5567 13.4053 11.1371 12.9973 12.3996 12.9973C13.6623 12.9973 14.2424 13.4053 14.9773 13.9218C15.8139 14.51 16.7622 15.177 18.5995 15.177C20.4369 15.177 21.3853 14.51 22.2221 13.9218C22.9567 13.4053 23.5372 12.9973 24.7999 12.9973C26.0626 12.9973 26.6427 13.4053 27.3776 13.9218C28.2141 14.51 29.1625 15.177 31 15.177V13.3606C29.7373 13.3606 29.1569 12.9524 28.4223 12.4358C27.5855 11.8476 26.6371 11.1809 24.7999 11.1809V11.1808ZM28.4223 1.72105C27.5855 1.13265 26.637 0.465912 24.7999 0.465912C22.9624 0.465912 22.014 1.13265 21.1775 1.72105C20.4426 2.23763 19.8622 2.6456 18.5994 2.6456C17.3369 2.6456 16.7565 2.23763 16.0219 1.72105C15.1855 1.13265 14.2371 0.465912 12.3996 0.465912C10.5623 0.465912 9.61394 1.13265 8.77742 1.72105C8.0428 2.23763 7.4624 2.6456 6.19994 2.6456C4.93742 2.6456 4.35701 2.23763 3.62246 1.72105C2.78558 1.13265 1.83717 0.465912 0 0.465912V2.28232C1.26271 2.28232 1.84287 2.69028 2.57748 3.20687C3.41424 3.79526 4.3624 4.46201 6.19988 4.46201C8.03711 4.46201 8.98552 3.79526 9.8221 3.20687C10.5567 2.69028 11.137 2.28232 12.3996 2.28232C13.6623 2.28232 14.2424 2.69028 14.9773 3.20687C15.8139 3.79526 16.7622 4.46201 18.5995 4.46201C20.4369 4.46201 21.3853 3.79526 22.2221 3.20687C22.9567 2.69028 23.5372 2.28232 24.7999 2.28232C26.0626 2.28232 26.6427 2.69028 27.3776 3.20687C28.2141 3.79526 29.1625 4.46201 31 4.46201V2.6456C29.7373 2.6456 29.1569 2.23763 28.4223 1.72105Z" fill="current"/>
</svg>
