<svg width="25" height="23" viewBox="0 0 25 23" fill="#000" xmlns="http://www.w3.org/2000/svg">
    <path d="M24 19.3333C24 19.4807 23.9649 19.622 23.9024 19.7262C23.8399 19.8304 23.7551 19.8889 23.6667 19.8889C23.2407 19.8889 22.9633 20.12 22.6427 20.3878C22.2987 20.675 21.909 21 21.3333 21C20.7547 21 20.3633 20.6739 20.018 20.3861C19.698 20.1194 19.4217 19.8889 19 19.8889C18.5783 19.8889 18.302 20.1194 17.982 20.3861C17.6367 20.6739 17.2453 21 16.6667 21C16.091 21 15.7013 20.675 15.3573 20.3878C15.0367 20.12 14.7593 19.8889 14.3333 19.8889C14.2449 19.8889 14.1601 19.8304 14.0976 19.7262C14.0351 19.622 14 19.4807 14 19.3333C14 19.186 14.0351 19.0447 14.0976 18.9405C14.1601 18.8363 14.2449 18.7778 14.3333 18.7778C14.917 18.7778 15.3097 19.1056 15.656 19.3944C15.974 19.6594 16.2487 19.8889 16.6667 19.8889C17.088 19.8889 17.364 19.6583 17.684 19.3922C18.0293 19.1039 18.421 18.7778 19 18.7778C19.579 18.7778 19.9707 19.1039 20.316 19.3922C20.636 19.6583 20.912 19.8889 21.3333 19.8889C21.7513 19.8889 22.026 19.6594 22.344 19.3944C22.6903 19.1056 23.083 18.7778 23.6667 18.7778C23.7551 18.7778 23.8399 18.8363 23.9024 18.9405C23.9649 19.0447 24 19.186 24 19.3333ZM24 16.5556C24 16.7029 23.9649 16.8442 23.9024 16.9484C23.8399 17.0526 23.7551 17.1111 23.6667 17.1111C23.2407 17.1111 22.9633 17.3422 22.6427 17.61C22.2987 17.8972 21.909 18.2222 21.3333 18.2222C20.7547 18.2222 20.3633 17.8961 20.018 17.6083C19.698 17.3417 19.4217 17.1111 19 17.1111C18.5783 17.1111 18.302 17.3417 17.982 17.6083C17.6367 17.8961 17.2453 18.2222 16.6667 18.2222C16.091 18.2222 15.7013 17.8972 15.3573 17.61C15.0367 17.3422 14.7593 17.1111 14.3333 17.1111C14.2449 17.1111 14.1601 17.0526 14.0976 16.9484C14.0351 16.8442 14 16.7029 14 16.5556C14 16.4082 14.0351 16.2669 14.0976 16.1627C14.1601 16.0585 14.2449 16 14.3333 16C14.917 16 15.3097 16.3278 15.656 16.6167C15.974 16.8817 16.2487 17.1111 16.6667 17.1111C17.088 17.1111 17.364 16.8806 17.684 16.6144C18.0293 16.3261 18.421 16 19 16C19.579 16 19.9707 16.3261 20.316 16.6144C20.636 16.8806 20.912 17.1111 21.3333 17.1111C21.7513 17.1111 22.026 16.8817 22.344 16.6167C22.6903 16.3278 23.083 16 23.6667 16C23.7551 16 23.8399 16.0585 23.9024 16.1627C23.9649 16.2669 24 16.4082 24 16.5556Z" fill="current"/>
    <path d="M0.874023 12.3601C0.874023 12.1529 0.956333 11.9542 1.10285 11.8077C1.24936 11.6612 1.44807 11.5789 1.65527 11.5789C4.4584 11.5789 5.51465 9.59839 6.85137 7.09058C8.3834 4.21714 10.2896 0.641357 15.7178 0.641357C18.3896 0.641357 20.4053 2.32026 20.4053 4.54761C20.4053 6.33042 18.9834 7.67261 18.0615 7.67261C17.8543 7.67261 17.6556 7.5903 17.5091 7.44378C17.3626 7.29727 17.2803 7.09856 17.2803 6.89136C17.2803 6.66948 17.2295 6.35542 16.7896 6.19136C16.2053 5.97417 15.3803 6.17105 14.9904 6.62105C14.085 7.66714 13.9084 9.39526 14.5615 10.8234C15.2318 12.2906 16.6146 13.1328 18.3553 13.1328C19.2045 13.1328 19.8014 12.8226 20.492 12.4632C21.2881 12.0492 22.192 11.5789 23.5303 11.5789C23.7375 11.5789 23.9362 11.6612 24.0827 11.8077C24.2292 11.9542 24.3115 12.1529 24.3115 12.3601C24.3115 12.5673 24.2292 12.766 24.0827 12.9125C23.9362 13.059 23.7375 13.1414 23.5303 13.1414C22.5732 13.1414 21.9428 13.4695 21.2123 13.8492C20.4498 14.246 19.5857 14.6953 18.3545 14.6953C15.9764 14.6953 14.0756 13.521 13.1396 11.4726C12.2271 9.47573 12.4959 7.11479 13.8084 5.59839C14.624 4.65698 16.1412 4.28276 17.335 4.72729C17.8357 4.91401 18.2295 5.22886 18.4889 5.63355C18.6795 5.3687 18.8428 5.00229 18.8428 4.54761C18.8428 3.21167 17.499 2.20386 15.7178 2.20386C11.2271 2.20386 9.77168 4.93433 8.23027 7.82573C6.8373 10.439 5.39668 13.1414 1.65527 13.1414C1.44807 13.1414 1.24936 13.059 1.10285 12.9125C0.956333 12.766 0.874023 12.5673 0.874023 12.3601Z" fill="current"/>
    <path d="M2.92871 15.9961V21H2.29639V16.7856L1.02148 17.2505V16.6797L2.82959 15.9961H2.92871ZM7.91211 18.1152V18.874C7.91211 19.2819 7.87565 19.626 7.80273 19.9062C7.72982 20.1865 7.625 20.4121 7.48828 20.583C7.35156 20.7539 7.18636 20.8781 6.99268 20.9556C6.80127 21.0308 6.5848 21.0684 6.34326 21.0684C6.15186 21.0684 5.97526 21.0444 5.81348 20.9966C5.65169 20.9487 5.50586 20.8724 5.37598 20.7676C5.24837 20.6605 5.139 20.5215 5.04785 20.3506C4.95671 20.1797 4.88721 19.9723 4.83936 19.7285C4.7915 19.4847 4.76758 19.1999 4.76758 18.874V18.1152C4.76758 17.7074 4.80404 17.3656 4.87695 17.0898C4.95215 16.8141 5.05811 16.5931 5.19482 16.4268C5.33154 16.2581 5.49561 16.1374 5.68701 16.0645C5.8807 15.9915 6.09717 15.9551 6.33643 15.9551C6.53011 15.9551 6.70785 15.979 6.86963 16.0269C7.03369 16.0724 7.17952 16.1465 7.30713 16.249C7.43473 16.3493 7.54297 16.4837 7.63184 16.6523C7.72298 16.8187 7.79248 17.0226 7.84033 17.2642C7.88818 17.5057 7.91211 17.7894 7.91211 18.1152ZM7.27637 18.9766V18.0093C7.27637 17.786 7.2627 17.59 7.23535 17.4214C7.21029 17.2505 7.17269 17.1047 7.12256 16.9839C7.07243 16.8631 7.00863 16.7651 6.93115 16.6899C6.85596 16.6147 6.76823 16.5601 6.66797 16.5259C6.56999 16.4894 6.45947 16.4712 6.33643 16.4712C6.18604 16.4712 6.05273 16.4997 5.93652 16.5566C5.82031 16.6113 5.72233 16.6991 5.64258 16.8198C5.5651 16.9406 5.50586 17.099 5.46484 17.2949C5.42383 17.4909 5.40332 17.729 5.40332 18.0093V18.9766C5.40332 19.1999 5.41585 19.397 5.44092 19.5679C5.46826 19.7388 5.50814 19.8869 5.56055 20.0122C5.61296 20.1353 5.67676 20.2367 5.75195 20.3164C5.82715 20.3962 5.91374 20.4554 6.01172 20.4941C6.11198 20.5306 6.22249 20.5488 6.34326 20.5488C6.49821 20.5488 6.63379 20.5192 6.75 20.46C6.86621 20.4007 6.96305 20.3084 7.04053 20.1831C7.12028 20.0555 7.17952 19.8926 7.21826 19.6943C7.257 19.4938 7.27637 19.2546 7.27637 18.9766ZM8.6709 17.2437V16.9805C8.6709 16.7913 8.71191 16.6193 8.79395 16.4644C8.87598 16.3094 8.99333 16.1852 9.146 16.0918C9.29867 15.9984 9.47982 15.9517 9.68945 15.9517C9.90365 15.9517 10.0859 15.9984 10.2363 16.0918C10.389 16.1852 10.5063 16.3094 10.5884 16.4644C10.6704 16.6193 10.7114 16.7913 10.7114 16.9805V17.2437C10.7114 17.4282 10.6704 17.598 10.5884 17.7529C10.5086 17.9079 10.3924 18.0321 10.2397 18.1255C10.0894 18.2189 9.9082 18.2656 9.69629 18.2656C9.48438 18.2656 9.30094 18.2189 9.146 18.1255C8.99333 18.0321 8.87598 17.9079 8.79395 17.7529C8.71191 17.598 8.6709 17.4282 8.6709 17.2437ZM9.146 16.9805V17.2437C9.146 17.3485 9.16536 17.4476 9.2041 17.541C9.24512 17.6344 9.30664 17.7108 9.38867 17.77C9.4707 17.827 9.57324 17.8555 9.69629 17.8555C9.81934 17.8555 9.92074 17.827 10.0005 17.77C10.0802 17.7108 10.1395 17.6344 10.1782 17.541C10.217 17.4476 10.2363 17.3485 10.2363 17.2437V16.9805C10.2363 16.8734 10.2158 16.7731 10.1748 16.6797C10.1361 16.584 10.0757 16.5076 9.99365 16.4507C9.9139 16.3914 9.8125 16.3618 9.68945 16.3618C9.56868 16.3618 9.46729 16.3914 9.38525 16.4507C9.3055 16.5076 9.24512 16.584 9.2041 16.6797C9.16536 16.7731 9.146 16.8734 9.146 16.9805ZM11.0942 20.0464V19.7798C11.0942 19.5929 11.1353 19.422 11.2173 19.2671C11.2993 19.1121 11.4167 18.988 11.5693 18.8945C11.722 18.8011 11.9032 18.7544 12.1128 18.7544C12.327 18.7544 12.5093 18.8011 12.6597 18.8945C12.8123 18.988 12.9297 19.1121 13.0117 19.2671C13.0938 19.422 13.1348 19.5929 13.1348 19.7798V20.0464C13.1348 20.2332 13.0938 20.4041 13.0117 20.5591C12.932 20.714 12.8158 20.8382 12.6631 20.9316C12.5127 21.0251 12.3315 21.0718 12.1196 21.0718C11.9077 21.0718 11.7254 21.0251 11.5728 20.9316C11.4201 20.8382 11.3016 20.714 11.2173 20.5591C11.1353 20.4041 11.0942 20.2332 11.0942 20.0464ZM11.5693 19.7798V20.0464C11.5693 20.1512 11.5887 20.2515 11.6274 20.3472C11.6685 20.4406 11.73 20.5169 11.812 20.5762C11.894 20.6331 11.9966 20.6616 12.1196 20.6616C12.2427 20.6616 12.3441 20.6331 12.4238 20.5762C12.5059 20.5169 12.5662 20.4406 12.605 20.3472C12.6437 20.2537 12.6631 20.1535 12.6631 20.0464V19.7798C12.6631 19.6727 12.6426 19.5724 12.6016 19.479C12.5628 19.3856 12.5024 19.3104 12.4204 19.2534C12.3407 19.1942 12.2381 19.1646 12.1128 19.1646C11.992 19.1646 11.8906 19.1942 11.8086 19.2534C11.7288 19.3104 11.6685 19.3856 11.6274 19.479C11.5887 19.5724 11.5693 19.6727 11.5693 19.7798ZM12.27 16.731L9.83984 20.6206L9.48438 20.395L11.9146 16.5054L12.27 16.731Z" fill="current"/>
</svg>
