<svg width="24" height="22" viewBox="0 0 24 22" fill="#fff" xmlns="http://www.w3.org/2000/svg">
    <path d="M23.4375 19.5996C23.4375 19.8068 23.3552 20.0055 23.2087 20.152C23.0622 20.2985 22.8635 20.3809 22.6562 20.3809C21.6578 20.3809 21.0078 20.7059 20.2563 21.0824C19.45 21.4863 18.5367 21.9434 17.1875 21.9434C15.8313 21.9434 14.9141 21.4848 14.1047 21.0801C13.3547 20.7051 12.707 20.3809 11.7188 20.3809C10.7305 20.3809 10.0828 20.7051 9.33281 21.0801C8.52344 21.4848 7.60625 21.9434 6.25 21.9434C4.90078 21.9434 3.9875 21.4863 3.18125 21.0824C2.42969 20.7059 1.77969 20.3809 0.78125 20.3809C0.57405 20.3809 0.375336 20.2985 0.228823 20.152C0.08231 20.0055 0 19.8068 0 19.5996C0 19.3924 0.08231 19.1937 0.228823 19.0472C0.375336 18.9007 0.57405 18.8184 0.78125 18.8184C2.14922 18.8184 3.06953 19.2793 3.88125 19.6855C4.62656 20.0582 5.27031 20.3809 6.25 20.3809C7.2375 20.3809 7.88438 20.0566 8.63437 19.6824C9.44375 19.277 10.3617 18.8184 11.7188 18.8184C13.0758 18.8184 13.9937 19.277 14.8031 19.6824C15.5531 20.0566 16.2 20.3809 17.1875 20.3809C18.1672 20.3809 18.8109 20.0582 19.5562 19.6855C20.368 19.2793 21.2883 18.8184 22.6562 18.8184C22.8635 18.8184 23.0622 18.9007 23.2087 19.0472C23.3552 19.1937 23.4375 19.3924 23.4375 19.5996ZM23.4375 15.6934C23.4375 15.9006 23.3552 16.0993 23.2087 16.2458C23.0622 16.3923 22.8635 16.4746 22.6562 16.4746C21.6578 16.4746 21.0078 16.7996 20.2563 17.1762C19.45 17.5801 18.5367 18.0371 17.1875 18.0371C15.8313 18.0371 14.9141 17.5785 14.1047 17.1738C13.3547 16.7988 12.707 16.4746 11.7188 16.4746C10.7305 16.4746 10.0828 16.7988 9.33281 17.1738C8.52344 17.5785 7.60625 18.0371 6.25 18.0371C4.90078 18.0371 3.9875 17.5801 3.18125 17.1762C2.42969 16.7996 1.77969 16.4746 0.78125 16.4746C0.57405 16.4746 0.375336 16.3923 0.228823 16.2458C0.08231 16.0993 0 15.9006 0 15.6934C0 15.4862 0.08231 15.2874 0.228823 15.1409C0.375336 14.9944 0.57405 14.9121 0.78125 14.9121C2.14922 14.9121 3.06953 15.373 3.88125 15.7793C4.62656 16.152 5.27031 16.4746 6.25 16.4746C7.2375 16.4746 7.88438 16.1504 8.63437 15.7762C9.44375 15.3707 10.3617 14.9121 11.7188 14.9121C13.0758 14.9121 13.9937 15.3707 14.8031 15.7762C15.5531 16.1504 16.2 16.4746 17.1875 16.4746C18.1672 16.4746 18.8109 16.152 19.5562 15.7793C20.368 15.373 21.2883 14.9121 22.6562 14.9121C22.8635 14.9121 23.0622 14.9944 23.2087 15.1409C23.3552 15.2874 23.4375 15.4862 23.4375 15.6934ZM0 11.7871C0 11.5799 0.08231 11.3812 0.228823 11.2347C0.375336 11.0882 0.57405 11.0059 0.78125 11.0059C3.58438 11.0059 4.64062 9.02539 5.97734 6.51758C7.50938 3.64414 9.41562 0.0683594 14.8438 0.0683594C17.5156 0.0683594 19.5312 1.74727 19.5312 3.97461C19.5312 5.75742 18.1094 7.09961 17.1875 7.09961C16.9803 7.09961 16.7816 7.0173 16.6351 6.87079C16.4886 6.72427 16.4062 6.52556 16.4062 6.31836C16.4062 6.09648 16.3555 5.78242 15.9156 5.61836C15.3313 5.40117 14.5063 5.59805 14.1164 6.04805C13.2109 7.09414 13.0344 8.82227 13.6875 10.2504C14.3578 11.7176 15.7406 12.5598 17.4812 12.5598C18.3305 12.5598 18.9273 12.2496 19.618 11.8902C20.4141 11.4762 21.318 11.0059 22.6562 11.0059C22.8635 11.0059 23.0622 11.0882 23.2087 11.2347C23.3552 11.3812 23.4375 11.5799 23.4375 11.7871C23.4375 11.9943 23.3552 12.193 23.2087 12.3395C23.0622 12.486 22.8635 12.5684 22.6562 12.5684C21.6992 12.5684 21.0688 12.8965 20.3383 13.2762C19.5758 13.673 18.7117 14.1223 17.4805 14.1223C15.1023 14.1223 13.2016 12.948 12.2656 10.8996C11.3531 8.90273 11.6219 6.5418 12.9344 5.02539C13.75 4.08398 15.2672 3.70977 16.4609 4.1543C16.9617 4.34102 17.3555 4.65586 17.6148 5.06055C17.8055 4.7957 17.9688 4.4293 17.9688 3.97461C17.9688 2.63867 16.625 1.63086 14.8438 1.63086C10.3531 1.63086 8.89766 4.36133 7.35625 7.25273C5.96328 9.86602 4.52266 12.5684 0.78125 12.5684C0.57405 12.5684 0.375336 12.486 0.228823 12.3395C0.08231 12.193 0 11.9943 0 11.7871Z" fill="current"/>
</svg>
