<svg width="22" height="22" viewBox="0 0 22 22" fill="#000" xmlns="http://www.w3.org/2000/svg">
    <g clip-path="url(#clip0_431_15936)">
        <path d="M21.875 2.34375V7.8125C21.8744 8.43391 21.6273 9.02969 21.1878 9.4691C20.7484 9.9085 20.1527 10.1556 19.5312 10.1562H14.0625C13.4411 10.1556 12.8453 9.9085 12.4059 9.4691C11.9665 9.02969 11.7194 8.43391 11.7188 7.8125V2.34375C11.7194 1.72234 11.9665 1.12656 12.4059 0.687154C12.8453 0.24775 13.4411 0.00062048 14.0625 0H19.5312C20.1527 0.00062048 20.7484 0.24775 21.1878 0.687154C21.6273 1.12656 21.8744 1.72234 21.875 2.34375ZM7.8125 0H2.34375C1.72234 0.00062048 1.12656 0.24775 0.687154 0.687154C0.24775 1.12656 0.00062048 1.72234 0 2.34375V7.8125C0.00062048 8.43391 0.24775 9.02969 0.687154 9.4691C1.12656 9.9085 1.72234 10.1556 2.34375 10.1562H7.8125C8.43391 10.1556 9.02969 9.9085 9.4691 9.4691C9.9085 9.02969 10.1556 8.43391 10.1562 7.8125V2.34375C10.1556 1.72234 9.9085 1.12656 9.4691 0.687154C9.02969 0.24775 8.43391 0.00062048 7.8125 0ZM7.8125 11.7187H2.34375C1.72234 11.7194 1.12656 11.9665 0.687154 12.4059C0.24775 12.8453 0.00062048 13.4411 0 14.0625V19.5312C0.00062048 20.1527 0.24775 20.7484 0.687154 21.1878C1.12656 21.6272 1.72234 21.8744 2.34375 21.875H7.8125C8.43391 21.8744 9.02969 21.6272 9.4691 21.1878C9.9085 20.7484 10.1556 20.1527 10.1562 19.5312V14.0625C10.1556 13.4411 9.9085 12.8453 9.4691 12.4059C9.02969 11.9665 8.43391 11.7194 7.8125 11.7187ZM16.7969 11.7187C15.7925 11.7187 14.8107 12.0166 13.9756 12.5746C13.1405 13.1326 12.4897 13.9257 12.1053 14.8536C11.7209 15.7815 11.6204 16.8025 11.8163 17.7876C12.0123 18.7726 12.4959 19.6775 13.2061 20.3876C13.9163 21.0978 14.8211 21.5815 15.8062 21.7774C16.7912 21.9734 17.8123 21.8728 18.7402 21.4884C19.6681 21.1041 20.4612 20.4532 21.0192 19.6181C21.5772 18.783 21.875 17.8012 21.875 16.7969C21.8733 15.4506 21.3378 14.1599 20.3858 13.2079C19.4338 12.2559 18.1432 11.7204 16.7969 11.7187Z" fill="current"/>
    </g>
    <defs>
        <clipPath id="clip0_431_15936">
            <rect width="21.875" height="21.875" fill="current"/>
        </clipPath>
    </defs>
</svg>
