<svg width="29" height="30" viewBox="0 0 29 30" fill="none" xmlns="http://www.w3.org/2000/svg">
<path d="M20.3437 2.16994e-05C18.4794 -0.000360858 16.6774 0.671346 15.2681 1.89197C13.8589 3.11259 12.9369 4.80031 12.6712 6.64565C12.6517 6.78376 12.6622 6.92446 12.7021 7.05813C12.742 7.1918 12.8102 7.31529 12.9022 7.42015C12.9942 7.52501 13.1077 7.60877 13.235 7.6657C13.3624 7.72263 13.5005 7.7514 13.64 7.75002C13.8736 7.75266 14.1003 7.67078 14.2784 7.51946C14.4564 7.36814 14.5737 7.15759 14.6087 6.92658C14.8194 5.39529 15.6298 4.01041 16.8615 3.07659C18.0933 2.14278 19.6456 1.73653 21.1769 1.94721C22.7082 2.15789 24.0931 2.96825 25.0269 4.20001C25.9607 5.43177 26.3669 6.98404 26.1562 8.51533C25.9358 9.94296 25.2041 11.2419 24.0975 12.1703C22.9908 13.0988 21.5845 13.5935 20.1403 13.5625H0.96875C0.711821 13.5625 0.465416 13.6646 0.28374 13.8463C0.102064 14.0279 0 14.2743 0 14.5313C0 14.7882 0.102064 15.0346 0.28374 15.2163C0.465416 15.398 0.711821 15.5 0.96875 15.5H20.0725C22.0738 15.5325 24.0133 14.8063 25.5012 13.4675C26.9892 12.1287 27.9154 10.2765 28.0937 8.28283C28.1669 7.22117 28.0206 6.15582 27.6641 5.15316C27.3075 4.15051 26.7482 3.23203 26.0212 2.45496C25.2941 1.6779 24.4148 1.0589 23.438 0.636537C22.4612 0.214176 21.4079 -0.00249643 20.3437 2.16994e-05ZM16.2653 17.4375H0.96875C0.711821 17.4375 0.465416 17.5396 0.28374 17.7213C0.102064 17.9029 0 18.1493 0 18.4063C0 18.6632 0.102064 18.9096 0.28374 19.0913C0.465416 19.273 0.711821 19.375 0.96875 19.375H16.2653C16.8518 19.3747 17.4307 19.5076 17.9584 19.7635C18.4861 20.0195 18.9488 20.3919 19.3117 20.8527C19.6745 21.3135 19.928 21.8506 20.0531 22.4236C20.1782 22.9966 20.1716 23.5906 20.0337 24.1606C19.8269 25.0143 19.3361 25.7723 18.642 26.3105C17.9478 26.8487 17.0914 27.1351 16.2131 27.1227C15.3348 27.1103 14.4868 26.7999 13.8081 26.2423C13.1294 25.6848 12.6602 24.9132 12.4775 24.0541C12.4383 23.8266 12.3191 23.6206 12.1415 23.4732C11.9639 23.3258 11.7395 23.2467 11.5087 23.25C11.3683 23.2484 11.2292 23.2774 11.1011 23.3349C10.973 23.3924 10.8589 23.4771 10.7668 23.583C10.6746 23.689 10.6066 23.8137 10.5674 23.9486C10.5283 24.0835 10.5189 24.2252 10.54 24.3641C10.751 25.4447 11.2647 26.4432 12.0211 27.2432C12.7775 28.0433 13.7456 28.6121 14.8127 28.8833C15.8798 29.1546 17.002 29.1172 18.0486 28.7755C19.0953 28.4338 20.0234 27.8018 20.7249 26.9532C21.4263 26.1045 21.8724 25.0741 22.011 23.9818C22.1496 22.8895 21.9751 21.7803 21.5079 20.7834C21.0407 19.7864 20.2999 18.9426 19.3717 18.3503C18.4436 17.758 17.3663 17.4414 16.2653 17.4375Z" fill="current"/>
<path d="M6.3842 9.54223H1.04639C0.789458 9.54223 0.543053 9.6443 0.361377 9.82597C0.179701 10.0076 0.0776367 10.2541 0.0776367 10.511C0.0776367 10.7679 0.179701 11.0143 0.361377 11.196C0.543053 11.3777 0.789458 11.4797 1.04639 11.4797H6.33576C7.44329 11.4979 8.51855 11.1066 9.35526 10.3807C10.192 9.65486 10.7312 8.64562 10.8695 7.54661C10.976 6.46795 10.6768 5.38831 10.0304 4.5183C9.38394 3.64828 8.43656 3.05029 7.37307 2.84098C6.30957 2.63167 5.20624 2.82605 4.27831 3.3862C3.35038 3.94636 2.6644 4.83211 2.3542 5.87067C2.30914 6.01884 2.30027 6.17565 2.32831 6.32796C2.35636 6.48027 2.42052 6.62364 2.5154 6.74604C2.61028 6.86844 2.73313 6.9663 2.87364 7.03143C3.01415 7.09656 3.16822 7.12706 3.32295 7.12036C3.54425 7.1268 3.76107 7.05726 3.93734 6.9233C4.1136 6.78934 4.23866 6.59905 4.2917 6.38411C4.47354 5.81474 4.8595 5.33273 5.37533 5.03079C5.89116 4.72886 6.50042 4.62834 7.08591 4.74856C7.67139 4.86878 8.19174 5.20126 8.54685 5.68203C8.90196 6.1628 9.06675 6.7579 9.00951 7.35286C8.92534 7.98015 8.60897 8.55307 8.1229 8.95842C7.63683 9.36378 7.01641 9.5721 6.3842 9.54223Z" fill="current"/>
</svg>
